{
.appVersion = "3151";
.formatVersion = 3;
DisplayStrings = (
"┌─│├",
"+H世今何出日うそにはを"
);
axes = (
{
name = Weight;
tag = wght;
}
);
customParameters = (
{
name = "Use Typo Metrics";
value = 1;
}
);
date = "2023-01-10 15:10:13 +0000";
familyName = "Geist Mono";
featurePrefixes = (
{
automatic = 1;
code = "languagesystem DFLT dflt;
languagesystem DFLT MAH;

languagesystem latn dflt;
languagesystem latn AZE;
languagesystem latn CRT;
languagesystem latn KAZ;
languagesystem latn TAT;
languagesystem latn TRK;
languagesystem latn ROM;
languagesystem latn MOL;
languagesystem latn MAH;
languagesystem latn NLD;
";
name = Languagesystems;
}
);
features = (
{
automatic = 1;
code = "feature locl;
feature subs;
feature sinf;
feature sups;
feature frac;
feature ordn;
feature fwid;
feature ss01;
feature ss02;
feature ss03;
feature ss04;
feature ss06;
feature ss07;
feature ss08;
feature ss09;
";
tag = aalt;
},
{
automatic = 1;
code = "lookup ccmp_Other_1 {
	@CombiningTopAccents = [acutecomb brevecomb caroncomb circumflexcomb commaturnedabovecomb dieresiscomb dotaccentcomb gravecomb hungarumlautcomb macroncomb ringcomb tildecomb];
	@CombiningNonTopAccents = [cedillacomb ogonekcomb strokeshortcomb];
	sub [i j]' @CombiningTopAccents by [idotless jdotless];
	sub [i j]' @CombiningNonTopAccents @CombiningTopAccents by [idotless jdotless];
} ccmp_Other_1;
";
tag = ccmp;
},
{
automatic = 1;
code = "lookup locl_noScript_0 {
	language MAH;
	sub commaaccentcomb by commaaccentcomb.loclMAH;
} locl_noScript_0;

lookup locl_latn_0 {
	script latn;
	language AZE;
	sub i by idotaccent;
	language CRT;
	sub i by idotaccent;
	language KAZ;
	sub i by idotaccent;
	language TAT;
	sub i by idotaccent;
	language TRK;
	sub i by idotaccent;
} locl_latn_0;

lookup locl_latn_1 {
	script latn;
	language ROM;
	sub Scedilla by Scommaaccent;
	sub scedilla by scommaaccent;
	sub Tcedilla by Tcommaaccent;
	sub tcedilla by tcommaaccent;
	language MOL;
	sub Scedilla by Scommaaccent;
	sub scedilla by scommaaccent;

glyphs = (
{
glyphname = A;
kernLeft = "0";
kernRight = "0";
lastChange = "2023-11-09 14:20:38 +0000";
layers = (
{
anchors = (
{
name = ogonek;
pos = (542,0);
},
{
name = top;
pos = (300,710);
}
);
background = {
shapes = (
{
closed = 1;
nodes = (
(23,0,l),
(106,239,l),
(250,655,l),
(235,655,l),
(375,247,l),
(461,0,l),
(557,0,l),
(301,710,l),
(183,710,l),
(-73,0,l)
);
},
{
closed = 1;
nodes = (
(70,201,l),
(425,201,l),
(425,287,l),
(70,287,l)
);
}
);
};
layerId = "EE2FFE84-06F1-4AFB-BBEC-60D09A436D14";
shapes = (
{
closed = 1;
nodes = (
(81,0,l),
(300,678,l),
(519,0,l),
(552,0,l),
(319,710,l),
(281,710,l),
(48,0,l)
);
},
{
closed = 1;
nodes = (
(442,265,l),
(158,265,l),
(148,235,l),
(452,235,l)
);
}
);
width = 600;
},
{
anchors = (
{
name = bottom;
pos = (352,0);
},
{
name = ogonek;
pos = (634,0);
},
{
name = top;
pos = (352,710);
}
);
associatedMasterId = "EE2FFE84-06F1-4AFB-BBEC-60D09A436D14";
background = {
shapes = (
{
closed = 1;
nodes = (
(133,0,l),
(216,239,l),
(360,655,l),
(345,655,l),
(485,247,l),
(571,0,l),
(667,0,l),
(411,710,l),
(293,710,l),
(37,0,l)
);
},
{
closed = 1;
nodes = (
(180,201,l),
(535,201,l),
(535,287,l),
(180,287,l)
);
}
);
};
layerId = "B79994D4-476F-4D20-B932-F759658767FF";
name = "22 Feb 23 16:32";
shapes = (
{
closed = 1;
nodes = (
(103,0,l),
(352,678,l),
(601,0,l),
(634,0,l),
(371,710,l),
(333,710,l),
(70,0,l)
);
},
{
closed = 1;
nodes = (
(180,235,l),
(528,235,l),
(528,265,l),
(180,265,l)
);
}
);
width = 704;
},
{
anchors = (
{
name = ogonek;
pos = (564,0);
},
{
name = top;
pos = (300,710);
}
);
layerId = "574EE4B9-5C1A-4E7E-9985-C08FACB65BD8";
shapes = (
{
closed = 1;
nodes = (
(114,0,l),
(300,635,l),
(486,0,l),
(574,0,l),
(358,710,l),
(242,710,l),
(26,0,l)
);
},
{
closed = 1;
nodes = (
(435,280,l),
(165,280,l),
(135,202,l),
(465,202,l)
);
}
);
width = 600;
},
{
anchors = (
{
name = ogonek;
pos = (575,0);
},
{
name = top;
pos = (300,710);
}
);
layerId = "58B1DC7A-69F8-4375-AD2E-AC5103CCF536";
shapes = (
{
closed = 1;
nodes = (
(168,0,l),
(300,469,l),
(432,0,l),
(585,0,l),
(372,710,l),
(228,710,l),
(15,0,l)
);
},
{
closed = 1;
nodes = (
(393,244,l),
(209,244,l),
(156,128,l),
(444,128,l)
);
}
);
width = 600;
}
);
unicode = 65;
},
{
color = 8;
glyphname = AE;
kernLeft = "0";
kernRight = "0";
lastChange = "2023-11-09 14:20:38 +0000";
layers = (
{
layerId = "EE2FFE84-06F1-4AFB-BBEC-60D09A436D14";
shapes = (
{
closed = 1;
nodes = (
(2,0,l),
(36,0,l),
(122,231,l),
(311,231,l),
(311,0,l),
(591,0,l),
(591,30,l),
(343,30,l),
(343,341,l),
(577,341,l),
(577,371,l),
(343,371,l),
(343,680,l),
(586,680,l),
(586,710,l),
(270,710,l)
);
},
{
closed = 1;
nodes = (
(291,680,l),
(311,680,l),
(311,261,l),
(133,261,l)
);
}
);
width = 600;
},
{
layerId = "574EE4B9-5C1A-4E7E-9985-C08FACB65BD8";
shapes = (
{
closed = 1;
nodes = (
(10,0,l),
(99,0,l),
(163,202,l),
(321,202,l),
(321,0,l),
(582,0,l),
(582,84,l),
(407,84,l),
(407,315,l),
(570,315,l),
(570,397,l),
(407,397,l),
(407,626,l),
(577,626,l),
(577,710,l),
(244,710,l)
);
},
{
closed = 1;
nodes = (
(300,629,l),
(321,629,l),
(321,286,l),
(189,286,l)
);
}
);
width = 600;
},
{
layerId = "58B1DC7A-69F8-4375-AD2E-AC5103CCF536";
shapes = (
{
closed = 1;
nodes = (
(4,0,l),
(144,0,l),
(200,180,l),
(322,180,l),
(322,0,l),
(590,0,l),
(590,128,l),
(461,128,l),
(461,293,l),
(578,293,l),
(578,419,l),
(461,419,l),
(461,582,l),
(585,582,l),
(585,710,l),
(237,710,l)
);
},
{
closed = 1;
nodes = (
(315,583,l),
(322,585,l),
(322,308,l),
(235,308,l)
);
}
);
width = 600;
}
);
unicode = 198;
},
{
glyphname = B;
kernLeft = "0";
kernRight = "0";
lastChange = "2023-11-09 14:20:38 +0000";
layers = (
{
background = {
shapes = (
{
closed = 1;
nodes = (
(202,0,ls),
(344,0,o),
(444,83,o),
(444,201,cs),
(444,300,o),
(363,370,o),
(249,370,c),
(250,364,l),
(342,364,o),
(414,430,o),
(414,513,cs),
(414,634,o),
(317,710,o),
(162,710,cs),
(-33,710,l),
(-33,0,l)
);
},
{
closed = 1;
nodes = (
(55,318,l),
(202,318,ls),
(290,318,o),
(352,273,o),
(352,201,cs),
(352,130,o),
(290,86,o),
(202,86,cs),
(55,86,l)
);
},
{
closed = 1;
nodes = (
(55,624,l),
(162,624,ls),
(260,624,o),
(322,581,o),
(322,513,cs),
(322,446,o),
(260,404,o),
(162,404,cs),
(55,404,l)
);
}
);
};
layerId = "EE2FFE84-06F1-4AFB-BBEC-60D09A436D14";
shapes = (
{
closed = 1;
nodes = (
(307,0,ls),
(455,0,o),
(537,68,o),
(537,189,cs),
(537,294,o),
(458,360,o),
(332,360,c),
(332,354,l),
(435,354,o),
(507,423,o),
(507,520,cs),
(507,642,o),
(421,710,o),
(267,710,cs),
(90,710,l),
(90,0,l)
);
},
{
closed = 1;
nodes = (
(122,339,l),
(307,339,ls),
(427,339,o),
(503,281,o),
(503,189,cs),
(503,83,o),
(438,30,o),
(307,30,cs),
(122,30,l)
);
},
{
closed = 1;
nodes = (
(122,680,l),
(267,680,ls),
(399,680,o),
(473,623,o),
(473,520,cs),
(473,423,o),
(399,369,o),
(267,369,cs),
(122,369,l)
);
}
);
width = 600;
},
{
layerId = "574EE4B9-5C1A-4E7E-9985-C08FACB65BD8";
shapes = (
{
closed = 1;
nodes = (
(315,0,ls),
(464,0,o),
(556,78,o),
(556,201,cs),
(556,305,o),
(481,370,o),
(361,370,c),
(362,364,l),
(458,364,o),
(526,426,o),
(526,513,cs),
(526,639,o),
(436,710,o),
(275,710,cs),
(78,710,l),
(78,0,l)
);
},
{
closed = 1;
nodes = (
(165,319,l),
(315,319,ls),
(412,319,o),
(466,276,o),
(466,201,cs),
(466,128,o),
(408,84,o),
(315,84,cs),
(165,84,l)
);
},
{
closed = 1;
nodes = (
(165,626,l),
(275,626,ls),
(379,626,o),
(436,585,o),
(436,513,cs),
(436,442,o),
(379,403,o),
(275,403,cs),
(165,403,l)
);
}
);
width = 600;
},
{
layerId = "58B1DC7A-69F8-4375-AD2E-AC5103CCF536";
shapes = (
{
closed = 1;
nodes = (
(304,0,ls),
(476,0,o),
(566,70,o),
(566,201,cs),
(566,295,o),
(501,356,o),
(389,366,c),
(389,368,l),
(481,379,o),
(536,434,o),
(536,513,cs),
(536,643,o),
(444,710,o),
(264,710,cs),
(59,710,l),
(59,0,l)
);
},
{
closed = 1;
nodes = (
(206,297,l),
(297,297,ls),
(373,297,o),
(413,268,o),
(413,214,cs),
(413,160,o),
(372,131,o),
(297,131,cs),
(206,131,l)
);
},
{
closed = 1;
nodes = (
(206,579,l),
(271,579,ls),
(345,579,o),
(383,552,o),
(383,502,cs),
(383,451,o),
(345,425,o),
(271,425,cs),
(206,425,l)
);
}
);
width = 600;
}
);
unicode = 66;
},
{
glyphname = C;
kernLeft = "0";
kernRight = "0";
lastChange = "2023-11-13 16:58:32 +0000";
layers = (
{
anchors = (
{
name = bottom;
pos = (315,0);
},
{
name = top;
pos = (315,710);
}
);
background = {
shapes = (
{
closed = 1;
nodes = (
(527,249,l),
(504,97,o),
(414,16,o),
(294,16,cs),
(128,16,o),
(24,146,o),
(24,354,cs),
(24,563,o),
(128,694,o),
(294,694,cs),
(411,694,o),
(498,610,o),
(521,477,c),
(555,481,l),
(525,638,o),
(424,726,o),
(294,726,cs),
(107,726,o),
(-10,583,o),
(-10,354,cs),
(-10,127,o),
(107,-16,o),
(294,-16,cs),
(432,-16,o),
(536,78,o),
(561,245,c)
);
}
);
};
layerId = "EE2FFE84-06F1-4AFB-BBEC-60D09A436D14";
shapes = (
{
closed = 1;
nodes = (
(522,230,l),
(494,93,o),
(423,16,o),
(315,16,cs),
(175,16,o),
(86,146,o),
(86,354,cs),
(86,563,o),
(175,694,o),
(315,694,cs),
(420,694,o),
(489,622,o),
(516,494,c),
(550,498,l),
(518,644,o),
(434,726,o),
(315,726,cs),
(154,726,o),
(52,583,o),
(52,354,cs),
(52,127,o),
(154,-16,o),
(315,-16,cs),
(443,-16,o),
(529,71,o),
(556,226,c)
);
}
);
width = 600;
},
{
anchors = (
{
name = bottom;
pos = (315,0);
},
{
name = top;
pos = (315,710);
}
);
layerId = "574EE4B9-5C1A-4E7E-9985-C08FACB65BD8";
shapes = (
{
closed = 1;
nodes = (
(476,239,l),
(456,126,o),
(396,68,o),
(314,68,cs),
(195,68,o),
(129,171,o),
(129,354,cs),
(129,538,o),
(195,642,o),
(314,642,cs),
(388,642,o),
(446,589,o),
(469,487,c),
(561,493,l),
(531,640,o),
(439,726,o),
(314,726,cs),
(138,726,o),
(38,583,o),
(38,354,cs),
(38,127,o),
(138,-16,o),
(314,-16,cs),
(448,-16,o),
(541,78,o),
(567,234,c)
);
}
);
width = 600;
},
{
anchors = (
{
name = bottom;
pos = (311,0);
},
{
name = top;
pos = (311,710);
}
);
background = {
shapes = (
{
closed = 1;
nodes = (
(511,277,l),
(499,190,o),
(455,141,o),
(387,141,cs),
(287,141,o),
(236,226,o),
(236,354,cs),
(236,483,o),
(286,569,o),
(387,569,cs),
(452,569,o),
(497,522,o),
(511,441,c),
(714,448,l),
(683,629,o),
(563,726,o),
(392,726,cs),
(178,726,o),
(35,568,o),
(35,354,cs),
(35,140,o),
(178,-16,o),
(392,-16,cs),
(565,-16,o),
(684,84,o),
(715,270,c)
);
}
);
};
layerId = "58B1DC7A-69F8-4375-AD2E-AC5103CCF536";
shapes = (
{
closed = 1;
nodes = (
(424,271,l),
(408,162,o),
(370,115,o),
(309,115,cs),
(224,115,o),
(180,197,o),
(180,354,cs),
(180,512,o),
(224,595,o),
(309,595,cs),
(367,595,o),
(405,550,o),
(423,446,c),
(577,455,l),
(550,621,o),
(449,726,o),
(314,726,cs),
(135,726,o),
(26,583,o),
(26,354,cs),
(26,127,o),
(135,-16,o),
(314,-16,cs),
(453,-16,o),
(555,92,o),
(578,263,c)
);
}
);
width = 600;
}
);
unicode = 67;
},
{
glyphname = D;
kernLeft = "0";
kernRight = "0";
lastChange = "2023-11-09 14:20:38 +0000";
layers = (
{
anchors = (
{
name = bottom;
pos = (308,0);
},
{
name = top;
pos = (308,710);
}
);
background = {
shapes = (
{
closed = 1;
nodes = (
(-48,0,l),
(178,0,ls),
(379,0,o),
(514,151,o),
(514,354,cs),
(514,560,o),
(378,710,o),
(172,710,cs),
(-48,710,l)
);
},
{
closed = 1;
nodes = (
(40,624,l),
(172,624,ls),
(354,624,o),
(422,506,o),
(422,354,cs),
(422,203,o),
(353,86,o),
(172,86,cs),
(40,86,l)
);
}
);
};
layerId = "EE2FFE84-06F1-4AFB-BBEC-60D09A436D14";
shapes = (
{
closed = 1;
nodes = (
(95,0,l),
(243,0,ls),
(440,0,o),
(555,127,o),
(555,354,cs),
(555,582,o),
(437,710,o),
(237,710,cs),
(95,710,l)
);
},
{
closed = 1;
nodes = (
(127,680,l),
(237,680,ls),
(416,680,o),
(521,563,o),
(521,354,cs),
(521,146,o),
(416,30,o),
(237,30,cs),
(127,30,l)
);
}
);
width = 600;
},
{
anchors = (
{
name = bottom;
pos = (307,0);
},
{
name = top;
pos = (301,710);
}
);
layerId = "574EE4B9-5C1A-4E7E-9985-C08FACB65BD8";
shapes = (
{
closed = 1;
nodes = (
(76,0,l),
(255,0,ls),
(451,0,o),
(570,127,o),
(570,354,cs),
(570,582,o),
(448,710,o),
(249,710,cs),
(76,710,l)
);
},
{
closed = 1;
nodes = (
(162,626,l),
(249,626,ls),
(397,626,o),
(480,536,o),
(480,354,cs),
(480,174,o),
(397,84,o),
(249,84,cs),
(162,84,l)
);
}
);
width = 600;
},
{
anchors = (
{
name = bottom;
pos = (316,0);
},
{
name = top;
pos = (310,710);
}
);
layerId = "58B1DC7A-69F8-4375-AD2E-AC5103CCF536";
shapes = (
{
closed = 1;
nodes = (
(54,0,l),
(265,0,ls),
(460,0,o),
(581,134,o),
(581,354,cs),
(581,576,o),
(457,710,o),
(259,710,cs),
(54,710,l)
);
},
{
closed = 1;
nodes = (
(200,579,l),
(259,579,ls),
(366,579,o),
(426,505,o),
(426,355,cs),
(426,205,o),
(366,131,o),
(259,131,cs),
(200,131,l)
);
}
);
width = 600;
}
);
unicode = 68;
},
{
glyphname = Eth;
kernLeft = "0";
kernRight = "0";
lastChange = "2023-11-09 14:20:38 +0000";
layers = (
{
background = {
shapes = (
{
closed = 1;
nodes = (
(84,0,l),
(310,0,ls),
(511,0,o),
(646,151,o),
(646,354,cs),
(646,560,o),
(510,710,o),
(304,710,cs),
(84,710,l)
);
},
{
closed = 1;
nodes = (
(172,624,l),
(304,624,ls),
(486,624,o),
(554,506,o),
(554,354,cs),
(554,203,o),
(485,86,o),
(304,86,cs),
(172,86,l)
);
},
{
closed = 1;
nodes = (
(0,317,l),
(370,317,l),
(370,393,l),
(0,393,l)
);
}
);
};
layerId = "EE2FFE84-06F1-4AFB-BBEC-60D09A436D14";
shapes = (
{
closed = 1;
nodes = (
(0,340,l),
(310,340,l),
(310,370,l),
(0,370,l)
);
},
{
pos = (39,0);
ref = D;
}
);
width = 600;
},
{
layerId = "574EE4B9-5C1A-4E7E-9985-C08FACB65BD8";
shapes = (
{
closed = 1;
nodes = (
(-10,318,l),
(310,318,l),
(310,392,l),
(-10,392,l)
);
},
{
alignment = -1;
pos = (39,0);
ref = D;
}
);
width = 600;
},
{
layerId = "58B1DC7A-69F8-4375-AD2E-AC5103CCF536";
shapes = (
{
closed = 1;
nodes = (
(-3,309,l),
(331,309,l),
(331,398,l),
(-3,398,l)
);
},
{
alignment = -1;
pos = (40,0);
ref = D;
}
);
width = 600;
}
);
unicode = 208;
},
{
glyphname = E;
kernLeft = "0";
kernRight = "0";
lastChange = "2023-11-09 14:20:38 +0000";
layers = (
{
anchors = (
{
name = bottom;
pos = (306,0);
},
{
name = ogonek;
pos = (517,0);
},
{
name = top;
pos = (306,710);
}
);
background = {
shapes = (
{
closed = 1;
nodes = (
(-35,0,l),
(420,0,l),
(420,86,l),
(53,86,l),
(53,314,l),
(400,314,l),
(400,398,l),
(53,398,l),
(53,624,l),
(412,624,l),
(412,710,l),
(-35,710,l)
);
}
);
};
layerId = "EE2FFE84-06F1-4AFB-BBEC-60D09A436D14";
shapes = (
{
closed = 1;
nodes = (
(100,0,l),
(527,0,l),
(527,30,l),
(132,30,l),
(132,339,l),
(507,339,l),
(507,369,l),
(132,369,l),
(132,680,l),
(519,680,l),
(519,710,l),
(100,710,l)
);
}
);
width = 600;
},
{
anchors = (
{
name = bottom;
pos = (318,0);
},
{
name = ogonek;
pos = (534,0);
},
{
name = top;
pos = (318,711);
}
);
layerId = "574EE4B9-5C1A-4E7E-9985-C08FACB65BD8";
shapes = (
{
closed = 1;
nodes = (
(90,0,l),
(544,0,l),
(544,84,l),
(176,84,l),
(176,315,l),
(524,315,l),
(524,397,l),
(176,397,l),
(176,626,l),
(536,626,l),
(536,710,l),
(90,710,l)
);
}
);
width = 600;
},
{
anchors = (
{
name = bottom;
pos = (308,0);
},
{
name = ogonek;
pos = (540,0);
},
{
name = top;
pos = (309,711);
}
);
layerId = "58B1DC7A-69F8-4375-AD2E-AC5103CCF536";
shapes = (
{
closed = 1;
nodes = (
(66,0,l),
(550,0,l),
(550,131,l),
(212,131,l),
(212,291,l),
(530,291,l),
(530,421,l),
(212,421,l),
(212,579,l),
(542,579,l),
(542,710,l),
(66,710,l)
);
}
);
width = 600;
}
);
unicode = 69;
},
{
glyphname = Schwa;
kernLeft = "0";
kernRight = "0";
lastChange = "2023-11-09 14:20:38 +0000";
layers = (
{
layerId = "EE2FFE84-06F1-4AFB-BBEC-60D09A436D14";
shapes = (
{
closed = 1;
nodes = (
(40,356,ls),
(40,138,o),
(148,-15,o),
(301,-15,cs),
(454,-15,o),
(561,138,o),
(561,356,cs),
(561,573,o),
(454,726,o),
(301,726,cs),
(198,726,o),
(99,641,o),
(60,519,c),
(94,516,l),
(133,621,o),
(218,694,o),
(301,694,cs),
(431,694,o),
(525,558,o),
(528,365,c),
(40,365,l)
);
},
{
closed = 1;
nodes = (
(176,17,o),
(82,148,o),
(74,335,c),
(528,335,l),
(520,148,o),
(426,17,o),
(301,17,cs)
);
}
);
width = 600;
},
{
anchors = (
{
name = bottom;
pos = (354.527,1.053);
},
{
name = ogonek;
pos = (270.256,710);
},
{
name = top;
pos = (354.527,710);
}
);
associatedMasterId = "EE2FFE84-06F1-4AFB-BBEC-60D09A436D14";
layerId = "72007AC6-C5A5-4BC2-857D-6E6F5A11D494";
name = "22 Feb 23 16:42";
shapes = (
{
closed = 1;
nodes = (
(634,365,l),
(54,365,l),
(56,335,l),
(634,335,l)
);
},
{
closed = 1;
nodes = (
(54,364,l),
(54,361,o),
(54,358,o),
(54,356,cs),
(54,138,o),
(178,-15,o),
(355,-15,cs),
(531,-15,o),
(655,138,o),
(655,356,cs),
(655,573,o),
(531,726,o),
(355,726,cs),
(229,726,o),
(113,641,o),
(74,519,c),
(108,516,l),
(147,621,o),
(249,694,o),
(355,694,cs),
(512,694,o),
(622,554,o),
(622,356,cs),
(622,157,o),
(512,17,o),
(355,17,cs),
(198,17,o),
(88,157,o),
(88,356,cs),
(88,358,o),
(88,361,o),
(88,364,c)
);
}
);
width = 709;
},
{
layerId = "574EE4B9-5C1A-4E7E-9985-C08FACB65BD8";
shapes = (
{
closed = 1;
nodes = (
(29,340,ls),
(33,131,o),
(138,-16,o),
(292,-16,cs),
(453,-16,o),
(572,147,o),
(572,355,cs),
(572,573,o),
(461,726,o),
(292,726,cs),
(179,726,o),
(87,642,o),
(47,509,c),
(138,501,l),
(160,583,o),
(220,642,o),
(292,642,cs),
(397,642,o),
(471,538,o),
(481,390,c),
(28,390,l)
);
},
{
closed = 1;
nodes = (
(198,68,o),
(140,154,o),
(121,306,c),
(480,306,l),
(457,154,o),
(393,68,o),
(292,68,cs)
);
}
);
width = 600;
},
{
layerId = "58B1DC7A-69F8-4375-AD2E-AC5103CCF536";
shapes = (
{
closed = 1;
nodes = (
(30,357,ls),
(31,131,o),
(136,-16,o),
(298,-16,cs),
(464,-16,o),
(573,133,o),
(573,355,cs),
(573,580,o),
(467,726,o),
(298,726,cs),
(180,726,o),
(78,636,o),
(43,513,c),
(195,489,l),
(209,553,o),
(244,595,o),
(298,595,cs),
(366,595,o),
(412,522,o),
(415,409,c),
(29,409,l)
);
},
{
closed = 1;
nodes = (
(237,115,o),
(196,179,o),
(190,278,c),
(414,278,l),
(408,179,o),
(362,115,o),
(299,115,cs)
);
}
);
width = 600;
}
);
unicode = 399;
},
{
glyphname = Ezh;
lastChange = "2023-11-09 14:20:38 +0000";
layers = (
{
anchors = (
{
name = top;
pos = (294,710);
}
);
layerId = "EE2FFE84-06F1-4AFB-BBEC-60D09A436D14";
shapes = (
{
closed = 1;
nodes = (
(76,95,l),
(134,24,o),
(214,-16,o),
(298,-16,cs),
(427,-16,o),
(520,79,o),
(520,199,cs),
(520,334,o),
(416,423,o),
(269,415,c),
(509,670,l),
(509,710,l),
(80,710,l),
(80,680,l),
(477,680,l),
(234,421,l),
(234,384,l),
(288,385,ls),
(404,387,o),
(486,310,o),
(486,199,cs),
(486,97,o),
(408,16,o),
(298,16,cs),
(216,16,o),
(137,63,o),
(76,146,c)
);
}
);
width = 600;
},
{
anchors = (
{
name = top;
pos = (291,710);
}
);
layerId = "574EE4B9-5C1A-4E7E-9985-C08FACB65BD8";
shapes = (
{
closed = 1;
nodes = (
(47,83,l),
(106,22,o),
(197,-16,o),
(284,-16,cs),
(439,-16,o),
(546,74,o),
(546,201,cs),
(546,314,o),
(462,403,o),
(343,415,c),
(535,612,l),
(535,710,l),
(48,710,l),
(48,626,l),
(429,626,l),
(231,421,l),
(231,336,l),
(285,337,ls),
(386,339,o),
(456,283,o),
(456,201,cs),
(456,123,o),
(385,68,o),
(284,68,cs),
(210,68,o),
(119,114,o),
(47,187,c)
);
}
);
width = 600;
},
{
anchors = (
{
name = top;
pos = (287,710);
}
);
layerId = "58B1DC7A-69F8-4375-AD2E-AC5103CCF536";
shapes = (
{
closed = 1;
nodes = (
(28,83,l),
(87,22,o),
(180,-16,o),
(280,-16,cs),
(458,-16,o),
(572,73,o),
(572,209,cs),
(572,308,o),
(506,382,o),
(402,405,c),
(561,560,l),
(561,710,l),
(29,710,l),
(29,579,l),
(385,579,l),
(227,421,l),
(227,304,l),
(281,305,ls),
(364,306,o),
(417,268,o),
(417,209,cs),
(417,152,o),
(363,115,o),
(280,115,cs),
(198,115,o),
(105,163,o),
(28,241,c)
);
}
);
width = 600;
}
);
unicode = 439;
},
{
glyphname = F;
kernLeft = "0";
kernRight = "0";
lastChange = "2023-11-09 14:20:38 +0000";
layers = (
{
background = {
shapes = (
{
closed = 1;
nodes = (
(-68,0,l),
(20,0,l),
(20,350,l),
(-25,305,l),
(321,305,l),
(321,389,l),
(-25,389,l),
(20,344,l),
(20,669,l),
(-25,624,l),
(339,624,l),
(339,710,l),
(-68,710,l)
);
}
);
};
layerId = "EE2FFE84-06F1-4AFB-BBEC-60D09A436D14";
shapes = (
{
closed = 1;
nodes = (
(110,0,l),
(142,0,l),
(142,350,l),
(135,339,l),
(501,339,l),
(501,369,l),
(135,369,l),
(142,344,l),
(142,689,l),
(135,680,l),
(519,680,l),
(519,710,l),
(110,710,l)
);
}
);
width = 600;
},
{
layerId = "574EE4B9-5C1A-4E7E-9985-C08FACB65BD8";
shapes = (
{
closed = 1;
nodes = (
(94,0,l),
(180,0,l),
(180,350,l),
(136,306,l),
(512,306,l),
(512,388,l),
(136,388,l),
(180,344,l),
(180,670,l),
(136,626,l),
(530,626,l),
(530,710,l),
(94,710,l)
);
}
);
width = 600;
},
{
layerId = "58B1DC7A-69F8-4375-AD2E-AC5103CCF536";
shapes = (
{
closed = 1;
nodes = (
(84,0,l),
(237,0,l),
(237,350,l),
(147,284,l),
(532,284,l),
(532,414,l),
(147,414,l),
(237,344,l),
(237,669,l),
(147,579,l),
(550,579,l),
(550,710,l),
(84,710,l)
);
}
);
width = 600;
}
);
unicode = 70;
},
{
glyphname = G;
kernLeft = "0";
kernRight = "0";
lastChange = "2023-11-09 14:20:38 +0000";
layers = (
{
anchors = (
{
name = bottom;
pos = (294,0);
},
{
name = top;
pos = (294,710);
}
);
background = {
shapes = (
{
closed = 1;
nodes = (
(598,360,l),
(314,360,l),
(314,274,l),
(513,274,l),
(506,159,o),
(437,70,o),
(314,70,cs),
(153,70,o),
(84,203,o),
(84,354,cs),
(84,506,o),
(152,640,o),
(314,640,cs),
(416,640,o),
(480,581,o),
(503,496,c),
(595,502,l),
(564,632,o),
(465,726,o),
(314,726,cs),
(108,726,o),
(-8,560,o),
(-8,354,cs),
(-8,149,o),
(109,-16,o),
(314,-16,cs),
(418,-16,o),
(515,51,o),
(534,142,c),
(523,160,l),
(534,0,l),
(598,0,l)
);
}
);
};
layerId = "EE2FFE84-06F1-4AFB-BBEC-60D09A436D14";
shapes = (
{
closed = 1;
nodes = (
(540,330,l),
(304,330,l),
(304,300,l),
(504,300,l),
(496,126,o),
(418,16,o),
(304,16,cs),
(163,16,o),
(80,146,o),
(80,354,cs),
(80,563,o),
(163,694,o),
(304,694,cs),
(393,694,o),
(468,618,o),
(501,497,c),
(534,501,l),
(500,639,o),
(412,726,o),
(304,726,cs),
(142,726,o),
(46,583,o),
(46,354,cs),
(46,127,o),
(142,-16,o),
(304,-16,cs),
(404,-16,o),
(484,58,o),
(512,177,c),
(501,195,l),
(508,0,l),
(540,0,l)
);
}
);
width = 600;
},
{
anchors = (
{
name = bottom;
pos = (299,0);
},
{
name = top;
pos = (299,710);
}
);
layerId = "574EE4B9-5C1A-4E7E-9985-C08FACB65BD8";
shapes = (
{
closed = 1;
nodes = (
(556,359,l),
(307,359,l),
(307,275,l),
(475,275,l),
(468,158,o),
(401,68,o),
(307,68,cs),
(191,68,o),
(126,171,o),
(126,354,cs),
(126,538,o),
(191,642,o),
(307,642,cs),
(382,642,o),
(444,582,o),
(467,496,c),
(557,502,l),
(526,634,o),
(427,726,o),
(307,726,cs),
(141,726,o),
(36,583,o),
(36,354,cs),
(36,127,o),
(141,-16,o),
(307,-16,cs),
(399,-16,o),
(478,49,o),
(498,143,c),
(477,161,l),
(497,0,l),
(556,0,l)
);
}
);
width = 600;
},
{
anchors = (
{
name = bottom;
pos = (305,0);
},
{
name = top;
pos = (306,710);
}
);
layerId = "58B1DC7A-69F8-4375-AD2E-AC5103CCF536";
shapes = (
{
closed = 1;
nodes = (
(563,370,l),
(296,370,l),
(296,253,l),
(414,253,l),
(408,172,o),
(373,115,o),
(305,115,cs),
(224,115,o),
(180,205,o),
(180,354,cs),
(180,504,o),
(224,595,o),
(305,595,cs),
(357,595,o),
(398,549,o),
(414,467,c),
(569,477,l),
(532,638,o),
(442,726,o),
(303,726,cs),
(135,726,o),
(25,575,o),
(25,354,cs),
(25,134,o),
(135,-16,o),
(303,-16,cs),
(390,-16,o),
(463,41,o),
(488,130,c),
(461,135,l),
(475,0,l),
(563,0,l)
);
}
);
width = 600;
}
);
unicode = 71;
},
{
glyphname = Gstroke;
lastChange = "2023-11-09 14:20:38 +0000";
layers = (
{
layerId = "EE2FFE84-06F1-4AFB-BBEC-60D09A436D14";
shapes = (
{
closed = 1;
nodes = (
(304,300,l),
(506,300,l),
(506,126,o),
(417,16,o),
(304,16,cs),
(163,16,o),
(74,146,o),
(74,354,cs),
(74,563,o),
(163,694,o),
(304,694,cs),
(393,694,o),
(470,618,o),
(503,497,c),
(536,501,l),
(503,639,o),
(413,726,o),
(304,726,cs),
(142,726,o),
(40,583,o),
(40,354,cs),
(40,127,o),
(142,-16,o),
(304,-16,cs),
(449,-16,o),
(540,108,o),
(540,306,cs),
(540,330,l),
(304,330,l)
);
},
{
closed = 1;
nodes = (
(304,169,l),
(579,169,l),
(579,199,l),
(304,199,l)
);
}
);
width = 600;
},
{
layerId = "574EE4B9-5C1A-4E7E-9985-C08FACB65BD8";
shapes = (
{
closed = 1;
nodes = (
(301,275,l),
(476,275,l),
(477,148,o),
(409,68,o),
(301,68,cs),
(179,68,o),
(110,201,o),
(110,354,cs),
(110,508,o),
(178,642,o),
(301,642,cs),
(383,642,o),
(448,582,o),
(471,496,c),
(561,502,l),
(530,632,o),
(431,726,o),
(301,726,cs),
(135,726,o),
(20,561,o),
(20,354,cs),
(20,148,o),
(136,-16,o),
(301,-16,cs),
(464,-16,o),
(567,112,o),
(567,315,cs),
(567,359,l),
(301,359,l)
);
},
{
closed = 1;
nodes = (
(301,147,l),
(591,147,l),
(591,221,l),
(301,221,l)
);
}
);
width = 600;
},
{
layerId = "58B1DC7A-69F8-4375-AD2E-AC5103CCF536";
shapes = (
{
closed = 1;
nodes = (
(295,274,l),
(414,274,l),
(410,177,o),
(367,115,o),
(303,115,cs),
(220,115,o),
(175,214,o),
(175,354,cs),
(175,495,o),
(220,595,o),
(303,595,cs),
(357,595,o),
(399,549,o),
(415,467,c),
(570,477,l),
(534,638,o),
(443,726,o),
(301,726,cs),
(131,726,o),
(21,577,o),
(21,354,cs),
(21,133,o),
(132,-16,o),
(303,-16,cs),
(476,-16,o),
(568,105,o),
(568,333,cs),
(568,370,l),
(295,370,l)
);
},
{
closed = 1;
nodes = (
(295,164,l),
(590,164,l),
(590,232,l),
(295,232,l)
);
}
);
width = 600;
}
);
unicode = 484;
},
{
glyphname = H;
kernLeft = "0";
kernRight = "0";
lastChange = "2023-11-13 19:26:09 +0000";
layers = (
{
anchors = (
{
name = top;
pos = (300,710);
}
);
background = {
shapes = (
{
pos = (-128,0);
ref = N;
}
);
};
layerId = "EE2FFE84-06F1-4AFB-BBEC-60D09A436D14";
shapes = (
{
closed = 1;
nodes = (
(120,0,l),
(120,359,l),
(111,349,l),
(488,349,l),
(480,359,l),
(480,0,l),
(512,0,l),
(512,710,l),
(480,710,l),
(480,370,l),
(488,379,l),
(111,379,l),
(120,370,l),
(120,710,l),
(88,710,l),
(88,0,l)
);
}
);
width = 600;
},
{
anchors = (
{
name = top;
pos = (300,710);
}
);
layerId = "574EE4B9-5C1A-4E7E-9985-C08FACB65BD8";
shapes = (
{
closed = 1;
nodes = (
(157,0,l),
(157,349,l),
(113,315,l),
(487,315,l),
(443,349,l),
(443,0,l),
(529,0,l),
(529,710,l),
(443,710,l),
(443,365,l),
(487,399,l),
(113,399,l),
(157,365,l),
(157,710,l),
(71,710,l),
(71,0,l)
);
}
);
width = 600;
},
{
anchors = (
{
name = top;
pos = (300,710);
}
);
background = {
shapes = (
{
closed = 1;
nodes = (
(157,0,l),
(157,349,l),
(113,315,l),
(487,315,l),
(443,349,l),
(443,0,l),
(529,0,l),
(529,710,l),
(443,710,l),
(443,365,l),
(487,399,l),
(113,399,l),
(157,365,l),
(157,710,l),
(71,710,l),
(71,0,l)
);
}
);
};
layerId = "58B1DC7A-69F8-4375-AD2E-AC5103CCF536";
shapes = (
{
closed = 1;
nodes = (
(189,0,l),
(189,335,l),
(156,288,l),
(444,288,l),
(411,335,l),
(411,0,l),
(557,0,l),
(557,710,l),
(411,710,l),
(411,379,l),
(444,419,l),
(156,419,l),
(189,379,l),
(189,710,l),
(43,710,l),
(43,0,l)
);
}
);
width = 600;
}
);
unicode = 72;
},
{
glyphname = Hbar;
kernLeft = "0";
kernRight = "0";
lastChange = "2023-11-09 14:20:38 +0000";
layers = (
{
layerId = "EE2FFE84-06F1-4AFB-BBEC-60D09A436D14";
shapes = (
{
closed = 1;
nodes = (
(89,0,l),
(121,0,l),
(121,710,l),
(89,710,l)
);
},
{
closed = 1;
nodes = (
(479,0,l),
(511,0,l),
(511,710,l),
(479,710,l)
);
},
{
closed = 1;
nodes = (
(24,586,l),
(24,556,l),
(576,556,l),
(576,586,l)
);
},
{
closed = 1;
nodes = (
(101,377,l),
(101,347,l),
(499,347,l),
(499,377,l)
);
}
);
width = 600;
},
{
layerId = "574EE4B9-5C1A-4E7E-9985-C08FACB65BD8";
shapes = (
{
closed = 1;
nodes = (
(91,0,l),
(177,0,l),
(177,710,l),
(91,710,l)
);
},
{
closed = 1;
nodes = (
(423,0,l),
(509,0,l),
(509,710,l),
(423,710,l)
);
},
{
closed = 1;
nodes = (
(24,613,l),
(24,529,l),
(576,529,l),
(576,613,l)
);
},
{
closed = 1;
nodes = (
(107,404,l),
(107,320,l),
(493,320,l),
(493,404,l)
);
}
);
width = 600;
},
{
layerId = "58B1DC7A-69F8-4375-AD2E-AC5103CCF536";
shapes = (
{
closed = 1;
nodes = (
(75,0,l),
(221,0,l),
(221,710,l),
(75,710,l)
);
},
{
closed = 1;
nodes = (
(379,0,l),
(525,0,l),
(525,710,l),
(379,710,l)
);
},
{
closed = 1;
nodes = (
(18,601,l),
(18,470,l),
(582,470,l),
(582,601,l)
);
},
{
closed = 1;
nodes = (
(104,349,l),
(104,218,l),
(496,218,l),
(496,349,l)
);
}
);
width = 600;
}
);
unicode = 294;
},
{
glyphname = I;
kernLeft = "0";
kernRight = "0";
lastChange = "2023-11-09 14:20:38 +0000";
layers = (
{
anchors = (
{
name = bottom;
pos = (300,0);
},
{
name = ogonek;
pos = (510,0);
},
{
name = top;
pos = (300,710);
}
);
layerId = "EE2FFE84-06F1-4AFB-BBEC-60D09A436D14";
shapes = (
{
closed = 1;
nodes = (
(96,710,l),
(96,680,l),
(284,680,l),
(284,30,l),
(90,30,l),
(90,0,l),
(510,0,l),
(510,30,l),
(316,30,l),
(316,680,l),
(504,680,l),
(504,710,l)
);
}
);
width = 600;
},
{
anchors = (
{
name = bottom;
pos = (300,0);
},
{
name = ogonek;
pos = (510,0);
},
{
name = top;
pos = (300,710);
}
);
layerId = "574EE4B9-5C1A-4E7E-9985-C08FACB65BD8";
shapes = (
{
closed = 1;
nodes = (
(96,710,l),
(96,626,l),
(257,626,l),
(257,84,l),
(90,84,l),
(90,0,l),
(510,0,l),
(510,84,l),
(343,84,l),
(343,626,l),
(504,626,l),
(504,710,l)
);
}
);
width = 600;
},
{
anchors = (
{
name = bottom;
pos = (300,0);
},
{
name = ogonek;
pos = (537,0);
},
{
name = top;
pos = (300,710);
}
);
layerId = "58B1DC7A-69F8-4375-AD2E-AC5103CCF536";
shapes = (
{
closed = 1;
nodes = (
(65,710,l),
(65,579,l),
(227,579,l),
(227,131,l),
(63,131,l),
(63,0,l),
(537,0,l),
(537,131,l),
(373,131,l),
(373,579,l),
(535,579,l),
(535,710,l)
);
}
);
width = 600;
}
);
unicode = 73;
},
{
glyphname = J;
kernLeft = "0";
kernRight = "0";
lastChange = "2023-11-09 14:20:38 +0000";
layers = (
{
anchors = (
{
name = top;
pos = (477,710);
}
);
background = {
shapes = (
{
closed = 1;
nodes = (
(-28,230,l),
(-27,86,o),
(66,-16,o),
(198,-16,cs),
(338,-16,o),
(426,86,o),
(426,248,cs),
(426,710,l),
(338,710,l),
(338,248,ls),
(338,134,o),
(288,70,o),
(198,70,cs),
(112,70,o),
(63,130,o),
(62,238,c)
);
}
);
};
layerId = "EE2FFE84-06F1-4AFB-BBEC-60D09A436D14";
shapes = (
{
closed = 1;
nodes = (
(55,232,l),
(56,86,o),
(142,-16,o),
(273,-16,cs),
(412,-16,o),
(493,86,o),
(493,248,cs),
(493,710,l),
(461,710,l),
(461,248,ls),
(461,101,o),
(392,16,o),
(273,16,cs),
(159,16,o),
(90,101,o),
(89,236,c)
);
}
);
width = 600;
},
{
anchors = (
{
name = top;
pos = (465,710);
}
);
layerId = "574EE4B9-5C1A-4E7E-9985-C08FACB65BD8";
shapes = (
{
closed = 1;
nodes = (
(36,230,l),
(37,86,o),
(129,-16,o),
(271,-16,cs),
(421,-16,o),
(508,86,o),
(508,248,cs),
(508,710,l),
(422,710,l),
(422,248,ls),
(422,133,o),
(372,68,o),
(271,68,cs),
(174,68,o),
(125,129,o),
(124,238,c)
);
}
);
width = 600;
},
{
anchors = (
{
name = top;
pos = (445,710);
}
);
layerId = "58B1DC7A-69F8-4375-AD2E-AC5103CCF536";
shapes = (
{
closed = 1;
nodes = (
(28,266,l),
(29,89,o),
(123,-16,o),
(277,-16,cs),
(431,-16,o),
(518,82,o),
(518,253,cs),
(518,710,l),
(372,710,l),
(372,253,ls),
(372,160,o),
(344,115,o),
(277,115,cs),
(218,115,o),
(182,169,o),
(182,274,c)
);
}
);
width = 600;
}
);
unicode = 74;
},
{
glyphname = K;
kernLeft = "0";
kernRight = "0";
lastChange = "2023-11-09 14:20:38 +0000";
layers = (
{
anchors = (
{
name = bottom;
pos = (293,0);
},
{
name = top;
pos = (293,710);
}
);
background = {
shapes = (
{
closed = 1;
nodes = (
(-58,0,l),
(30,0,l),
(30,710,l),
(-58,710,l)
);
},
{
closed = 1;
nodes = (
(-56,262,l),
(29,236,l),
(457,710,l),
(349,710,l)
);
},
{
closed = 1;
nodes = (
(78,399,l),
(372,0,l),
(474,0,l),
(175,405,l)
);
}
);
};
layerId = "EE2FFE84-06F1-4AFB-BBEC-60D09A436D14";
shapes = (
{
closed = 1;
nodes = (
(80,0,l),
(112,0,l),
(112,288,l),
(207,383,l),
(510,0,l),
(549,0,l),
(227,402,l),
(527,710,l),
(487,710,l),
(112,326,l),
(112,710,l),
(80,710,l)
);
}
);
width = 600;
},
{
anchors = (
{
name = bottom;
pos = (329,0);
},
{
name = top;
pos = (329,710);
}
);
associatedMasterId = "EE2FFE84-06F1-4AFB-BBEC-60D09A436D14";
background = {
shapes = (
{
closed = 1;
nodes = (
(70,0,l),
(158,0,l),
(158,710,l),
(70,710,l)
);
},
{
closed = 1;
nodes = (
(72,262,l),
(157,236,l),
(585,710,l),
(477,710,l)
);
},
{
closed = 1;
nodes = (
(206,399,l),
(500,0,l),
(602,0,l),
(303,405,l)
);
}
);
};
layerId = "3A429947-F838-409F-94EB-A9A7478FB0A7";
name = "24 de feb. de 23 09:14";
shapes = (
{
closed = 1;
nodes = (
(98,0,l),
(130,0,l),
(130,710,l),
(98,710,l)
);
},
{
closed = 1;
nodes = (
(100,243,l),
(126,229,l),
(575,710,l),
(536,710,l)
);
},
{
closed = 1;
nodes = (
(258,392,l),
(560,0,l),
(597,0,l),
(283,405,l)
);
}
);
width = 600;
},
{
anchors = (
{
name = bottom;
pos = (284,0);
},
{
name = top;
pos = (284,710);
}
);
layerId = "574EE4B9-5C1A-4E7E-9985-C08FACB65BD8";
shapes = (
{
closed = 1;
nodes = (
(57,0,l),
(143,0,l),
(143,281,l),
(207,346,l),
(465,0,l),
(569,0,l),
(267,408,l),
(550,710,l),
(442,710,l),
(143,401,l),
(143,710,l),
(57,710,l)
);
}
);
width = 600;
},
{
anchors = (
{
name = bottom;
pos = (299,0);
},
{
name = top;
pos = (299,710);
}
);
layerId = "58B1DC7A-69F8-4375-AD2E-AC5103CCF536";
shapes = (
{
closed = 1;
nodes = (
(31,0,l),
(177,0,l),
(177,240,l),
(220,288,l),
(409,0,l),
(585,0,l),
(321,396,l),
(569,710,l),
(388,710,l),
(177,450,l),
(177,710,l),
(31,710,l)
);
}
);
width = 600;
}
);
unicode = 75;
},
{
glyphname = L;
kernLeft = "0";
kernRight = "0";
lastChange = "2023-11-09 14:20:38 +0000";
layers = (
{
anchors = (
{
name = bottom;
pos = (317,0);
},
{
name = top;
pos = (116,710);
}
);
background = {
shapes = (
{
pos = (-119,0);
ref = E;
}
);
};
layerId = "EE2FFE84-06F1-4AFB-BBEC-60D09A436D14";
shapes = (
{
closed = 1;
nodes = (
(534,0,l),
(534,30,l),
(125,30,l),
(132,21,l),
(132,710,l),
(100,710,l),
(100,0,l)
);
}
);
width = 600;
},
{
anchors = (
{
name = bottom;
pos = (321,0);
},
{
name = top;
pos = (133,710);
}
);
layerId = "574EE4B9-5C1A-4E7E-9985-C08FACB65BD8";
shapes = (
{
closed = 1;
nodes = (
(551,0,l),
(551,84,l),
(133,84,l),
(176,40,l),
(176,710,l),
(90,710,l),
(90,0,l)
);
}
);
width = 600;
},
{
anchors = (
{
name = bottom;
pos = (320,0);
},
{
name = top;
pos = (155,710);
}
);
layerId = "58B1DC7A-69F8-4375-AD2E-AC5103CCF536";
shapes = (
{
closed = 1;
nodes = (
(557,0,l),
(557,131,l),
(117,131,l),
(229,41,l),
(229,710,l),
(83,710,l),
(83,0,l)
);
}
);
width = 600;
}
);
unicode = 76;
},
{
glyphname = Lslash;
kernLeft = "0";
kernRight = "0";
lastChange = "2023-11-09 15:20:47 +0000";
layers = (
{
layerId = "EE2FFE84-06F1-4AFB-BBEC-60D09A436D14";
shapes = (
{
closed = 1;
nodes = (
(9,323,l),
(235,427,l),
(222,454,l),
(-4,350,l)
);
},
{
ref = L;
}
);
width = 600;
},
{
layerId = "574EE4B9-5C1A-4E7E-9985-C08FACB65BD8";
shapes = (
{
closed = 1;
nodes = (
(10,295,l),
(318,439,l),
(282,515,l),
(-26,371,l)
);
},
{
alignment = -1;
pos = (13,0);
ref = L;
}
);
width = 600;
},
{
layerId = "58B1DC7A-69F8-4375-AD2E-AC5103CCF536";
shapes = (
{
closed = 1;
nodes = (
(14,257,l),
(404,438,l),
(358,538,l),
(-32,357,l)
);
},
{
alignment = -1;
pos = (31,0);
ref = L;
}
);
width = 600;
}
);
unicode = 321;
},
{
glyphname = M;
kernLeft = "0";
kernRight = "0";
lastChange = "2023-11-09 14:20:38 +0000";
layers = (
{
background = {
shapes = (
{
closed = 1;
nodes = (
(63,0,l),
(151,0,l),
(151,640,l),
(149,640,l),
(274,16,l),
(194,70,l),
(406,70,l),
(326,16,l),
(451,640,l),
(449,640,l),
(449,0,l),
(537,0,l),
(537,710,l),
(395,710,l),
(280,117,l),
(320,117,l),
(205,710,l),
(63,710,l)
);
}
);
};
layerId = "EE2FFE84-06F1-4AFB-BBEC-60D09A436D14";
shapes = (
{
closed = 1;
nodes = (
(71,0,l),
(103,0,l),
(103,703,l),
(94,703,l),
(300,-4,l),
(240,50,l),
(360,50,l),
(300,-3,l),
(505,701,l),
(497,701,l),
(497,0,l),
(529,0,l),
(529,710,l),
(476,710,l),
(292,64,l),
(308,64,l),
(124,710,l),
(71,710,l)
);
}
);
width = 600;
},
{
associatedMasterId = "EE2FFE84-06F1-4AFB-BBEC-60D09A436D14";
background = {
shapes = (
{
closed = 1;
nodes = (
(70,0,l),
(158,0,l),
(158,710,l),
(70,710,l)
);
},
{
closed = 1;
nodes = (
(363,0,l),
(471,0,l),
(737,710,l),
(642,710,l),
(404,62,l),
(429,62,l),
(192,710,l),
(97,710,l)
);
},
{
closed = 1;
nodes = (
(676,0,l),
(764,0,l),
(764,710,l),
(676,710,l)
);
}
);
};
layerId = "1FB2E68D-DD9B-4BCB-982F-D48DBDE51AF6";
name = "5 de feb. de 23 02:23";
shapes = (
{
closed = 1;
nodes = (
(88,0,l),
(120,0,l),
(120,656,l),
(401,0,l),
(435,0,l),
(714,678,l),
(714,0,l),
(746,0,l),
(746,710,l),
(692,710,l),
(417,34,l),
(192,710,l),
(88,710,l)
);
}
);
width = 600;
},
{
layerId = "574EE4B9-5C1A-4E7E-9985-C08FACB65BD8";
shapes = (
{
closed = 1;
nodes = (
(63,0,l),
(149,0,l),
(149,642,l),
(145,642,l),
(273,-4,l),
(196,50,l),
(404,50,l),
(327,-4,l),
(455,642,l),
(451,642,l),
(451,0,l),
(537,0,l),
(537,710,l),
(398,710,l),
(280,96,l),
(320,96,l),
(202,710,l),
(63,710,l)
);
}
);
width = 600;
},
{
layerId = "58B1DC7A-69F8-4375-AD2E-AC5103CCF536";
shapes = (
{
closed = 1;
nodes = (
(38,0,l),
(184,0,l),
(184,454,l),
(181,453,l),
(265,-4,l),
(199,50,l),
(400,50,l),
(334,-4,l),
(419,455,l),
(416,456,l),
(416,0,l),
(562,0,l),
(562,710,l),
(376,710,l),
(287,230,l),
(313,230,l),
(223,710,l),
(38,710,l)
);
}
);
width = 600;
}
);
unicode = 77;
},
{
glyphname = N;
kernLeft = "0";
kernRight = "0";
lastChange = "2023-11-09 14:20:38 +0000";
layers = (
{
anchors = (
{
name = bottom;
pos = (310,0);
},
{
name = top;
pos = (308,710);
}
);
background = {
shapes = (
{
closed = 1;
nodes = (
(-38,0,l),
(50,0,l),
(50,603,l),
(394,0,l),
(517,0,l),
(517,710,l),
(429,710,l),
(429,104,l),
(84,710,l),
(-38,710,l)
);
}
);
};
layerId = "EE2FFE84-06F1-4AFB-BBEC-60D09A436D14";
shapes = (
{
closed = 1;
nodes = (
(90,0,l),
(122,0,l),
(122,674,l),
(461,0,l),
(510,0,l),
(510,710,l),
(478,710,l),
(478,34,l),
(138,710,l),
(90,710,l)
);
}
);
width = 600;
},
{
anchors = (
{
name = bottom;
pos = (322,0);
},
{
name = top;
pos = (311,710);
}
);
layerId = "574EE4B9-5C1A-4E7E-9985-C08FACB65BD8";
shapes = (
{
closed = 1;
nodes = (
(78,0,l),
(165,0,l),
(165,580,l),
(389,0,l),
(522,0,l),
(522,710,l),
(435,710,l),
(435,108,l),
(201,710,l),
(78,710,l)
);
}
);
width = 600;
},
{
anchors = (
{
name = bottom;
pos = (312,0);
},
{
name = top;
pos = (309,710);
}
);
layerId = "58B1DC7A-69F8-4375-AD2E-AC5103CCF536";
shapes = (
{
closed = 1;
nodes = (
(54,0,l),
(200,0,l),
(200,411,l),
(385,0,l),
(546,0,l),
(546,710,l),
(400,710,l),
(400,278,l),
(210,710,l),
(54,710,l)
);
}
);
width = 600;
}
);
unicode = 78;
},
{
glyphname = Eng;
lastChange = "2023-11-09 14:20:38 +0000";
layers = (
{
layerId = "EE2FFE84-06F1-4AFB-BBEC-60D09A436D14";
shapes = (
{
alignment = -1;
ref = N;
},
{
closed = 1;
nodes = (
(478,-30,ls),
(478,-83,o),
(440,-120,o),
(386,-120,cs),
(289,-120,l),
(289,-150,l),
(386,-150,ls),
(459,-150,o),
(510,-100,o),
(510,-30,cs),
(510,33,l),
(478,33,l)
);
}
);
width = 600;
},
{
layerId = "574EE4B9-5C1A-4E7E-9985-C08FACB65BD8";
shapes = (
{
alignment = -1;
ref = N;
},
{
closed = 1;
nodes = (
(435,-8,ls),
(435,-46,o),
(414,-66,o),
(372,-66,cs),
(269,-66,l),
(269,-150,l),
(372,-150,ls),
(464,-150,o),
(522,-94,o),
(522,-7,cs),
(522,91,l),
(435,91,l)
);
}
);
width = 600;
},
{
layerId = "58B1DC7A-69F8-4375-AD2E-AC5103CCF536";
shapes = (
{
alignment = -1;
ref = N;
},
{
closed = 1;
nodes = (
(399,-2,ls),
(399,-33,o),
(380,-49,o),
(340,-49,cs),
(285,-49,l),
(285,-150,l),
(396,-150,ls),
(485,-150,o),
(546,-92,o),
(546,-6,cs),
(546,108,l),
(399,108,l)
);
}
);
width = 600;
}
);
unicode = 330;
},
{
glyphname = O;
kernLeft = "0";
kernRight = "0";
lastChange = "2023-11-09 14:20:38 +0000";
layers = (
{
anchors = (
{
name = bottom;
pos = (300,0);
},
{
name = top;
pos = (300,710);
}
);
background = {
shapes = (
{
closed = 1;
nodes = (
(513,-16,o),
(630,149,o),
(630,354,cs),
(630,560,o),
(514,726,o),
(308,726,cs),
(102,726,o),
(-14,560,o),
(-14,354,cs),
(-14,149,o),
(103,-16,o),
(308,-16,cs)
);
},
{
closed = 1;
nodes = (
(154,70,o),
(78,200,o),
(78,354,cs),
(78,509,o),
(153,640,o),
(308,640,cs),
(463,640,o),
(538,509,o),
(538,354,cs),
(538,200,o),
(462,70,o),
(308,70,cs)
);
}
);
};
layerId = "EE2FFE84-06F1-4AFB-BBEC-60D09A436D14";
shapes = (
{
closed = 1;
nodes = (
(456,-16,o),
(554,127,o),
(554,354,cs),
(554,583,o),
(456,726,o),
(300,726,cs),
(144,726,o),
(46,583,o),
(46,354,cs),
(46,127,o),
(144,-16,o),
(300,-16,cs)
);
},
{
closed = 1;
nodes = (
(165,16,o),
(80,146,o),
(80,354,cs),
(80,563,o),
(165,694,o),
(300,694,cs),
(435,694,o),
(520,563,o),
(520,354,cs),
(520,146,o),
(435,16,o),
(300,16,cs)
);
}
);
width = 600;
},
{
anchors = (
{
name = bottom;
pos = (300,0);
},
{
name = top;
pos = (300,710);
}
);
layerId = "574EE4B9-5C1A-4E7E-9985-C08FACB65BD8";
shapes = (
{
closed = 1;
nodes = (
(468,-16,o),
(562,117,o),
(562,354,cs),
(562,593,o),
(468,726,o),
(300,726,cs),
(132,726,o),
(38,593,o),
(38,354,cs),
(38,117,o),
(132,-16,o),
(300,-16,cs)
);
},
{
closed = 1;
nodes = (
(190,68,o),
(128,171,o),
(128,354,cs),
(128,538,o),
(190,642,o),
(300,642,cs),
(410,642,o),
(472,538,o),
(472,354,cs),
(472,171,o),
(410,68,o),
(300,68,cs)
);
}
);
width = 600;
},
{
anchors = (
{
name = bottom;
pos = (300,0);
},
{
name = top;
pos = (300,710);
}
);
layerId = "58B1DC7A-69F8-4375-AD2E-AC5103CCF536";
shapes = (
{
closed = 1;
nodes = (
(474,-16,o),
(572,131,o),
(572,354,cs),
(572,577,o),
(474,726,o),
(300,726,cs),
(126,726,o),
(28,577,o),
(28,354,cs),
(28,131,o),
(126,-16,o),
(300,-16,cs)
);
},
{
closed = 1;
nodes = (
(221,115,o),
(182,197,o),
(182,354,cs),
(182,512,o),
(221,595,o),
(300,595,cs),
(379,595,o),
(418,512,o),
(418,354,cs),
(418,197,o),
(379,115,o),
(300,115,cs)
);
}
);
width = 600;
}
);
unicode = 79;
},
{
glyphname = Oslash;
kernLeft = "0";
kernRight = "0";
lastChange = "2023-11-09 14:20:38 +0000";
layers = (
{
layerId = "EE2FFE84-06F1-4AFB-BBEC-60D09A436D14";
shapes = (
{
ref = O;
},
{
closed = 1;
nodes = (
(49,-16,l),
(87,-16,l),
(536,726,l),
(499,726,l)
);
}
);
width = 600;
},
{
layerId = "574EE4B9-5C1A-4E7E-9985-C08FACB65BD8";
shapes = (
{
alignment = -1;
ref = O;
},
{
closed = 1;
nodes = (
(38,-16,l),
(122,-16,l),
(558,726,l),
(476,726,l)
);
}
);
width = 600;
},
{
layerId = "58B1DC7A-69F8-4375-AD2E-AC5103CCF536";
shapes = (
{
alignment = -1;
ref = O;
},
{
closed = 1;
nodes = (
(26,-16,l),
(158,-16,l),
(572,726,l),
(442,726,l)
);
}
);
width = 600;
}
);
unicode = 216;
},
{
color = 8;
glyphname = OE;
lastChange = "2023-11-09 14:20:38 +0000";
layers = (
{
layerId = "EE2FFE84-06F1-4AFB-BBEC-60D09A436D14";
shapes = (
{
closed = 1;
nodes = (
(311,710,l),
(311,0,l),
(591,0,l),
(591,30,l),
(343,30,l),
(343,341,l),
(577,341,l),
(577,371,l),
(343,371,l),
(343,680,l),
(586,680,l),
(586,710,l)
);
},
{
closed = 1;
nodes = (
(283,-16,o),
(338,107,o),
(338,354,cs),
(338,603,o),
(283,726,o),
(173,726,cs),
(63,726,o),
(8,603,o),
(8,354,cs),
(8,107,o),
(63,-16,o),
(173,-16,cs)
);
},
{
closed = 1;
nodes = (
(85,16,o),
(42,128,o),
(42,354,cs),
(42,581,o),
(85,694,o),
(173,694,cs),
(261,694,o),
(304,581,o),
(304,354,cs),
(304,128,o),
(261,16,o),
(173,16,cs)
);
}
);
width = 600;
},
{
layerId = "574EE4B9-5C1A-4E7E-9985-C08FACB65BD8";
shapes = (
{
closed = 1;
nodes = (
(330,710,l),
(330,0,l),
(592,0,l),
(592,84,l),
(416,84,l),
(416,315,l),
(580,315,l),
(580,397,l),
(416,397,l),
(416,626,l),
(587,626,l),
(587,710,l)
);
},
{
closed = 1;
nodes = (
(341,-16,o),
(416,126,o),
(416,354,cs),
(416,584,o),
(341,726,o),
(212,726,cs),
(83,726,o),
(7,584,o),
(7,354,cs),
(7,126,o),
(83,-16,o),
(212,-16,cs)
);
},
{
closed = 1;
nodes = (
(127,68,o),
(95,178,o),
(95,354,cs),
(95,532,o),
(127,642,o),
(212,642,cs),
(297,642,o),
(328,532,o),
(328,354,cs),
(328,178,o),
(297,68,o),
(212,68,cs)
);
}
);
width = 600;
},
{
layerId = "58B1DC7A-69F8-4375-AD2E-AC5103CCF536";
shapes = (
{
closed = 1;
nodes = (
(326,710,l),
(326,0,l),
(594,0,l),
(594,128,l),
(465,128,l),
(465,293,l),
(582,293,l),
(582,419,l),
(465,419,l),
(465,582,l),
(589,582,l),
(589,710,l)
);
},
{
closed = 1;
nodes = (
(360,-16,o),
(439,120,o),
(439,354,cs),
(439,590,o),
(360,726,o),
(222,726,cs),
(84,726,o),
(6,590,o),
(6,354,cs),
(6,120,o),
(84,-16,o),
(222,-16,cs)
);
},
{
closed = 1;
nodes = (
(173,115,o),
(156,186,o),
(156,354,cs),
(156,524,o),
(173,595,o),
(222,595,cs),
(271,595,o),
(289,524,o),
(289,354,cs),
(289,186,o),
(271,115,o),
(222,115,cs)
);
}
);
width = 600;
}
);
unicode = 338;
},
{
glyphname = P;
kernLeft = "0";
kernRight = "0";
lastChange = "2023-11-09 14:20:38 +0000";
layers = (
{
background = {
shapes = (
{
pos = (-108,0);
ref = R.ss04;
}
);
};
layerId = "EE2FFE84-06F1-4AFB-BBEC-60D09A436D14";
shapes = (
{
closed = 1;
nodes = (
(103,0,l),
(135,0,l),
(135,305,l),
(300,305,l),
(447,305,o),
(540,382,o),
(540,505,cs),
(540,631,o),
(447,710,o),
(300,710,c),
(103,710,l)
);
},
{
closed = 1;
nodes = (
(135,680,l),
(300,680,l),
(432,680,o),
(506,617,o),
(506,505,cs),
(506,396,o),
(432,335,o),
(300,335,cs),
(135,335,l)
);
}
);
width = 600;
},
{
layerId = "574EE4B9-5C1A-4E7E-9985-C08FACB65BD8";
shapes = (
{
closed = 1;
nodes = (
(90,0,l),
(177,0,l),
(177,276,l),
(305,276,l),
(463,276,o),
(556,358,o),
(556,495,cs),
(556,630,o),
(463,710,o),
(305,710,c),
(90,710,l)
);
},
{
closed = 1;
nodes = (
(177,626,l),
(305,626,l),
(413,626,o),
(466,582,o),
(466,495,cs),
(466,406,o),
(413,360,o),
(305,360,cs),
(177,360,l)
);
}
);
width = 600;
},
{
layerId = "58B1DC7A-69F8-4375-AD2E-AC5103CCF536";
shapes = (
{
closed = 1;
nodes = (
(69,0,l),
(215,0,l),
(215,240,l),
(318,240,l),
(462,240,o),
(567,339,o),
(567,474,cs),
(567,611,o),
(462,710,o),
(318,710,c),
(69,710,l)
);
},
{
closed = 1;
nodes = (
(215,579,l),
(296,579,l),
(369,579,o),
(412,538,o),
(412,474,cs),
(412,411,o),
(369,371,o),
(296,371,cs),
(215,371,l)
);
}
);
width = 600;
}
);
unicode = 80;
},
{
glyphname = Thorn;
kernLeft = "0";
kernRight = "0";
lastChange = "2023-11-09 14:20:38 +0000";
layers = (
{
background = {
shapes = (
{
closed = 1;
nodes = (
(32,710,l),
(0,710,l),
(0,0,l),
(32,0,l)
);
},
{
closed = 1;
nodes = (
(-3,497,l),
(197,497,ls),
(304,497,o),
(357,454,o),
(357,368,cs),
(357,279,o),
(304,234,o),
(197,234,cs),
(-3,234,l),
(-3,148,l),
(197,148,ls),
(356,148,o),
(449,230,o),
(449,368,cs),
(449,503,o),
(356,583,o),
(197,583,cs),
(-3,583,l)
);
}
);
};
layerId = "EE2FFE84-06F1-4AFB-BBEC-60D09A436D14";
shapes = (
{
closed = 1;
nodes = (
(132,710,l),
(100,710,l),
(100,0,l),
(132,0,l)
);
},
{
closed = 1;
nodes = (
(116,533,l),
(297,533,ls),
(431,533,o),
(515,469,o),
(515,368,cs),
(515,264,o),
(431,198,o),
(297,198,cs),
(116,198,l),
(116,168,l),
(297,168,ls),
(452,168,o),
(549,245,o),
(549,368,cs),
(549,488,o),
(452,563,o),
(297,563,cs),
(116,563,l)
);
}
);
width = 600;
},
{
layerId = "574EE4B9-5C1A-4E7E-9985-C08FACB65BD8";
shapes = (
{
closed = 1;
nodes = (
(176,710,l),
(90,710,l),
(90,0,l),
(176,0,l)
);
},
{
closed = 1;
nodes = (
(115,498,l),
(314,498,ls),
(422,498,o),
(476,455,o),
(476,368,cs),
(476,279,o),
(422,233,o),
(314,233,cs),
(115,233,l),
(115,149,l),
(314,149,ls),
(473,149,o),
(566,231,o),
(566,368,cs),
(566,503,o),
(473,582,o),
(314,582,cs),
(115,582,l)
);
}
);
width = 600;
},
{
layerId = "58B1DC7A-69F8-4375-AD2E-AC5103CCF536";
shapes = (
{
closed = 1;
nodes = (
(212,710,l),
(66,710,l),
(66,0,l),
(212,0,l)
);
},
{
closed = 1;
nodes = (
(104,452,l),
(318,452,ls),
(384,452,o),
(422,421,o),
(422,366,cs),
(422,311,o),
(384,279,o),
(318,279,cs),
(104,279,l),
(104,148,l),
(325,148,ls),
(481,148,o),
(576,232,o),
(576,367,cs),
(576,500,o),
(481,583,o),
(325,583,cs),
(104,583,l)
);
}
);
width = 600;
}
);
unicode = 222;
},
{
glyphname = Q;
kernLeft = "0";
kernRight = "0";
lastChange = "2023-11-09 14:20:38 +0000";
layers = (
{
anchors = (
{
name = bottom;
pos = (364,0);
},
{
name = top;
pos = (364,710);
}
);
background = {
shapes = (
{
closed = 1;
nodes = (
(567,-16,o),
(684,149,o),
(684,354,cs),
(684,560,o),
(568,726,o),
(362,726,cs),
(156,726,o),
(40,560,o),
(40,354,cs),
(40,149,o),
(157,-16,o),
(362,-16,cs)
);
},
{
closed = 1;
nodes = (
(208,70,o),
(132,200,o),
(132,354,cs),
(132,509,o),
(207,640,o),
(362,640,cs),
(517,640,o),
(592,509,o),
(592,354,cs),
(592,200,o),
(516,70,o),
(362,70,cs)
);
},
{
closed = 1;
nodes = (
(420,208,l),
(328,208,l),
(542,-69,l),
(634,-69,l)
);
}
);
};
layerId = "EE2FFE84-06F1-4AFB-BBEC-60D09A436D14";
shapes = (
{
ref = O;
},
{
closed = 1;
nodes = (
(488,-69,l),
(526,-69,l),
(320,208,l),
(282,208,l)
);
}
);
width = 600;
},
{
associatedMasterId = "EE2FFE84-06F1-4AFB-BBEC-60D09A436D14";
background = {
shapes = (
{
closed = 1;
nodes = (
(567,-16,o),
(684,149,o),
(684,354,cs),
(684,560,o),
(568,726,o),
(362,726,cs),
(156,726,o),
(40,560,o),
(40,354,cs),
(40,149,o),
(157,-16,o),
(362,-16,cs)
);
},
{
closed = 1;
nodes = (
(208,70,o),
(132,200,o),
(132,354,cs),
(132,509,o),
(207,640,o),
(362,640,cs),
(517,640,o),
(592,509,o),
(592,354,cs),
(592,200,o),
(516,70,o),
(362,70,cs)
);
},
{
closed = 1;
nodes = (
(420,208,l),
(328,208,l),
(542,-69,l),
(634,-69,l)
);
}
);
};
layerId = "57B8AADA-883A-4D88-865F-303C17FF5ECC";
name = "24 de feb. de 23 09:24";
shapes = (
{
ref = O;
},
{
closed = 1;
nodes = (
(402,208,l),
(366,208,l),
(580,-69,l),
(616,-69,l)
);
}
);
width = 728;
},
{
associatedMasterId = "EE2FFE84-06F1-4AFB-BBEC-60D09A436D14";
background = {
shapes = (
{
closed = 1;
nodes = (
(567,-16,o),
(684,149,o),
(684,354,cs),
(684,560,o),
(568,726,o),
(362,726,cs),
(156,726,o),
(40,560,o),
(40,354,cs),
(40,149,o),
(157,-16,o),
(362,-16,cs)
);
},
{
closed = 1;
nodes = (
(208,70,o),
(132,200,o),
(132,354,cs),
(132,509,o),
(207,640,o),
(362,640,cs),
(517,640,o),
(592,509,o),
(592,354,cs),
(592,200,o),
(516,70,o),
(362,70,cs)
);
},
{
closed = 1;
nodes = (
(420,208,l),
(328,208,l),
(542,-69,l),
(634,-69,l)
);
}
);
};
layerId = "64775533-39F8-426A-91C6-DD7A69A21DE2";
name = "24 de feb. de 23 09:25";
shapes = (
{
ref = O;
},
{
closed = 1;
nodes = (
(402,208,l),
(366,208,l),
(580,-69,l),
(616,-69,l)
);
}
);
width = 728;
},
{
anchors = (
{
name = bottom;
pos = (362,0);
},
{
name = top;
pos = (362,710);
}
);
layerId = "574EE4B9-5C1A-4E7E-9985-C08FACB65BD8";
shapes = (
{
alignment = -1;
ref = O;
},
{
closed = 1;
nodes = (
(449,-69,l),
(546,-69,l),
(356,208,l),
(259,208,l)
);
}
);
width = 600;
},
{
anchors = (
{
name = bottom;
pos = (389,0);
},
{
name = top;
pos = (389,710);
}
);
layerId = "58B1DC7A-69F8-4375-AD2E-AC5103CCF536";
shapes = (
{
alignment = -1;
ref = O;
},
{
closed = 1;
nodes = (
(427,-69,l),
(540,-69,l),
(378,208,l),
(265,208,l)
);
}
);
width = 600;
}
);
unicode = 81;
},
{
glyphname = R;
kernLeft = "0";
kernRight = "0";
lastChange = "2023-11-09 14:20:38 +0000";
layers = (
{
anchors = (
{
name = bottom;
pos = (298,0);
},
{
name = top;
pos = (294,710);
}
);
background = {
shapes = (
{
closed = 1;
nodes = (
(90,0,l),
(122,0,l),
(122,311,l),
(287,311,ls),
(528,311,o),
(452,146,o),
(513,0,c),
(546,0,l),
(494,144,o),
(535,285,o),
(389,327,c),
(473,350,o),
(527,415,o),
(527,505,cs),
(527,631,o),
(434,710,o),
(287,710,cs),
(90,710,l)
);
},
{
closed = 1;
nodes = (
(122,680,l),
(287,680,ls),
(419,680,o),
(493,617,o),
(493,505,cs),
(493,400,o),
(419,341,o),
(287,341,cs),
(122,341,l)
);
}
);
};
layerId = "EE2FFE84-06F1-4AFB-BBEC-60D09A436D14";
shapes = (
{
closed = 1;
nodes = (
(92,0,l),
(124,0,l),
(124,311,l),
(289,311,ls),
(416,311,o),
(474,280,o),
(480,208,cs),
(496,0,l),
(529,0,l),
(512,209,ls),
(505,289,o),
(441,334,o),
(334,333,c),
(359,320,l),
(468,335,o),
(529,401,o),
(529,505,cs),
(529,636,o),
(443,710,o),
(289,710,cs),
(92,710,l)
);
},
{
closed = 1;
nodes = (
(122,680,l),
(287,680,ls),
(426,680,o),
(495,622,o),
(495,505,cs),
(495,395,o),
(426,341,o),
(287,341,cs),
(122,341,l)
);
}
);
width = 600;
},
{
associatedMasterId = "EE2FFE84-06F1-4AFB-BBEC-60D09A436D14";
layerId = "9EE13298-BF92-4B00-8E5D-8782EE099A36";
name = "26 de feb. de 23 23:27";
shapes = (
{
closed = 1;
nodes = (
(517,631,o),
(424,710,o),
(277,710,cs),
(70,710,l),
(70,0,l),
(102,0,l),
(102,311,l),
(277,311,ls),
(518,311,o),
(442,146,o),
(503,0,c),
(536,0,l),
(484,144,o),
(525,285,o),
(379,327,c),
(463,350,o),
(517,415,o),
(517,505,cs)
);
},
{
closed = 1;
nodes = (
(102,680,l),
(277,680,ls),
(409,680,o),
(483,617,o),
(483,505,cs),
(483,400,o),
(409,341,o),
(277,341,cs),
(102,341,l)
);
}
);
width = 606;
},
{
anchors = (
{
name = bottom;
pos = (298,0);
},
{
name = top;
pos = (294,710);
}
);
associatedMasterId = "EE2FFE84-06F1-4AFB-BBEC-60D09A436D14";
background = {
shapes = (
{
closed = 1;
nodes = (
(90,0,l),
(122,0,l),
(122,311,l),
(287,311,ls),
(528,311,o),
(452,146,o),
(513,0,c),
(546,0,l),
(494,144,o),
(535,285,o),
(389,327,c),
(473,350,o),
(527,415,o),
(527,505,cs),
(527,631,o),
(434,710,o),
(287,710,cs),
(90,710,l)
);
},
{
closed = 1;
nodes = (
(122,680,l),
(287,680,ls),
(419,680,o),
(493,617,o),
(493,505,cs),
(493,400,o),
(419,341,o),
(287,341,cs),
(122,341,l)
);
}
);
};
layerId = "2E344A71-077A-4643-ADAB-F8D51B2122C4";
name = "16 de may. de 23 14:46";
shapes = (
{
closed = 1;
nodes = (
(90,0,l),
(122,0,l),
(122,311,l),
(287,311,ls),
(528,311,o),
(452,146,o),
(513,0,c),
(546,0,l),
(494,144,o),
(535,285,o),
(389,327,c),
(473,350,o),
(527,415,o),
(527,505,cs),
(527,631,o),
(434,710,o),
(287,710,cs),
(90,710,l)
);
},
{
closed = 1;
nodes = (
(122,680,l),
(287,680,ls),
(419,680,o),
(493,617,o),
(493,505,cs),
(493,400,o),
(419,341,o),
(287,341,cs),
(122,341,l)
);
}
);
width = 600;
},
{
anchors = (
{
name = bottom;
pos = (315,0);
},
{
name = top;
pos = (288,710);
}
);
layerId = "574EE4B9-5C1A-4E7E-9985-C08FACB65BD8";
shapes = (
{
closed = 1;
nodes = (
(74,0,l),
(160,0,l),
(160,286,l),
(289,286,ls),
(393,286,o),
(435,265,o),
(441,200,cs),
(459,0,l),
(546,0,l),
(527,209,ls),
(518,302,o),
(473,335,o),
(360,335,c),
(391,323,l),
(464,327,o),
(540,399,o),
(540,495,cs),
(540,627,o),
(447,710,o),
(298,710,cs),
(74,710,l)
);
},
{
closed = 1;
nodes = (
(160,626,l),
(298,626,ls),
(395,626,o),
(450,579,o),
(450,497,cs),
(450,415,o),
(395,370,o),
(298,370,cs),
(160,370,l)
);
}
);
width = 600;
},
{
anchors = (
{
name = bottom;
pos = (324,0);
},
{
name = top;
pos = (289,710);
}
);
layerId = "58B1DC7A-69F8-4375-AD2E-AC5103CCF536";
shapes = (
{
closed = 1;
nodes = (
(57,0,l),
(203,0,l),
(203,254,l),
(292,254,ls),
(357,254,o),
(387,234,o),
(392,181,cs),
(408,0,l),
(557,0,l),
(541,195,ls),
(532,291,o),
(477,328,o),
(350,328,c),
(382,319,l),
(476,323,o),
(544,393,o),
(544,493,cs),
(544,626,o),
(448,710,o),
(295,710,cs),
(57,710,l)
);
},
{
closed = 1;
nodes = (
(203,579,l),
(289,579,ls),
(351,579,o),
(390,540,o),
(390,481,cs),
(390,423,o),
(351,385,o),
(289,385,cs),
(203,385,l)
);
}
);
width = 600;
}
);
unicode = 82;
},
{
glyphname = S;
kernLeft = "0";
kernRight = "0";
lastChange = "2023-11-09 14:20:38 +0000";
layers = (
{
anchors = (
{
name = bottom;
pos = (299,0);
},
{
name = top;
pos = (299,710);
}
);
background = {
shapes = (
{
closed = 1;
nodes = (
(-41,109,o),
(71,-12,o),
(240,-12,cs),
(374,-12,o),
(495,52,o),
(495,184,cs),
(495,311,o),
(391,357,o),
(248,398,cs),
(114,436,o),
(77,466,o),
(77,527,cs),
(77,593,o),
(136,640,o),
(222,640,cs),
(314,640,o),
(394,562,o),
(399,458,c),
(349,491,l),
(532,503,l),
(489,469,l),
(485,632,o),
(340,726,o),
(234,726,cs),
(81,726,o),
(-15,649,o),
(-15,527,cs),
(-15,419,o),
(54,364,o),
(220,321,cs),
(341,290,o),
(403,240,o),
(403,184,cs),
(403,116,o),
(343,74,o),
(245,74,cs),
(108,74,o),
(61,144,o),
(51,269,c),
(100,236,l),
(-83,224,l),
(-39,256,l)
);
}
);
};
layerId = "EE2FFE84-06F1-4AFB-BBEC-60D09A436D14";
shapes = (
{
closed = 1;
nodes = (
(57,90,o),
(171,-12,o),
(305,-12,cs),
(436,-12,o),
(540,70,o),
(540,174,cs),
(540,267,o),
(467,325,o),
(313,375,cs),
(159,425,o),
(104,464,o),
(104,540,cs),
(104,635,o),
(178,694,o),
(287,694,cs),
(400,694,o),
(487,616,o),
(487,505,c),
(521,508,l),
(521,630,o),
(416,726,o),
(297,726,cs),
(161,726,o),
(70,654,o),
(70,540,cs),
(70,450,o),
(139,396,o),
(285,352,cs),
(435,307,o),
(506,255,o),
(506,174,cs),
(506,88,o),
(415,20,o),
(310,20,cs),
(191,20,o),
(90,109,o),
(90,222,c),
(57,219,l)
);
}
);
width = 600;
},
{
anchors = (
{
name = bottom;
pos = (300,0);
},
{
name = top;
pos = (299,710);
}
);
layerId = "574EE4B9-5C1A-4E7E-9985-C08FACB65BD8";
shapes = (
{
closed = 1;
nodes = (
(58,83,o),
(172,-12,o),
(318,-12,cs),
(436,-12,o),
(556,56,o),
(556,188,cs),
(556,296,o),
(453,360,o),
(334,396,cs),
(245,421,o),
(151,445,o),
(151,531,cs),
(151,599,o),
(211,642,o),
(282,642,cs),
(370,642,o),
(439,583,o),
(451,494,c),
(541,500,l),
(527,631,o),
(426,726,o),
(283,726,cs),
(157,726,o),
(61,651,o),
(61,531,cs),
(61,433,o),
(125,372,o),
(272,331,cs),
(404,294,o),
(466,251,o),
(466,179,cs),
(466,108,o),
(405,72,o),
(325,72,cs),
(222,72,o),
(155,137,o),
(136,233,c),
(46,227,l)
);
}
);
width = 600;
},
{
anchors = (
{
name = bottom;
pos = (307,0);
},
{
name = top;
pos = (307,710);
}
);
layerId = "58B1DC7A-69F8-4375-AD2E-AC5103CCF536";
shapes = (
{
closed = 1;
nodes = (
(49,85,o),
(156,-12,o),
(317,-12,cs),
(460,-12,o),
(558,70,o),
(558,207,cs),
(558,316,o),
(467,394,o),
(327,421,cs),
(254,435,o),
(207,456,o),
(202,502,cs),
(196,558,o),
(234,595,o),
(297,595,cs),
(359,595,o),
(400,551,o),
(407,483,c),
(555,490,l),
(538,632,o),
(442,726,o),
(302,726,cs),
(151,726,o),
(55,641,o),
(55,506,cs),
(55,402,o),
(125,331,o),
(282,299,cs),
(371,279,o),
(409,250,o),
(411,204,cs),
(414,152,o),
(378,119,o),
(319,119,cs),
(243,119,o),
(198,167,o),
(185,247,c),
(40,238,l)
);
}
);
width = 600;
}
);
unicode = 83;
},
{
glyphname = Saltillo;
kernLeft = "0";
kernRight = "0";
lastChange = "2023-11-09 14:20:38 +0000";
layers = (
{
layerId = "EE2FFE84-06F1-4AFB-BBEC-60D09A436D14";
shapes = (
{
closed = 1;
nodes = (
(280,580,l),
(286,397,l),
(314,397,l),
(320,580,l),
(320,710,l),
(280,710,l)
);
}
);
width = 600;
},
{
layerId = "574EE4B9-5C1A-4E7E-9985-C08FACB65BD8";
shapes = (
{
closed = 1;
nodes = (
(256,574,l),
(270,378,l),
(330,378,l),
(344,574,l),
(344,710,l),
(256,710,l)
);
}
);
width = 600;
},
{
layerId = "58B1DC7A-69F8-4375-AD2E-AC5103CCF536";
shapes = (
{
closed = 1;
nodes = (
(240,561,l),
(253,356,l),
(348,356,l),
(360,561,l),
(360,710,l),
(240,710,l)
);
}
);
width = 600;
}
);
unicode = 42891;
},
{
glyphname = Germandbls;
kernLeft = "0";
kernRight = "0";
lastChange = "2023-11-09 14:20:38 +0000";
layers = (
{
background = {
shapes = (
{
closed = 1;
nodes = (
(127,82,l),
(127,0,l),
(231,0,ls),
(386,0,o),
(483,82,o),
(483,213,cs),
(483,351,o),
(371,428,o),
(192,414,c),
(192,387,l),
(470,657,l),
(435,583,l),
(435,710,l),
(-27,710,l),
(-27,0,l),
(60,0,l),
(60,628,l),
(380,628,l),
(368,667,l),
(90,397,l),
(137,461,l),
(137,356,l),
(211,357,ls),
(321,359,o),
(393,303,o),
(393,213,cs),
(393,127,o),
(317,82,o),
(231,82,cs)
);
}
);
};
layerId = "EE2FFE84-06F1-4AFB-BBEC-60D09A436D14";
shapes = (
{
closed = 1;
nodes = (
(184,30,l),
(184,0,l),
(318,0,ls),
(460,0,o),
(560,85,o),
(560,206,cs),
(560,340,o),
(452,408,o),
(234,408,c),
(522,662,l),
(522,710,l),
(233,710,ls),
(111,710,o),
(57,655,o),
(57,530,cs),
(57,0,l),
(89,0,l),
(89,531,ls),
(89,639,o),
(129,680,o),
(234,680,cs),
(497,680,l),
(194,411,l),
(194,378,l),
(229,378,ls),
(428,378,o),
(526,324,o),
(526,206,cs),
(526,103,o),
(440,30,o),
(318,30,cs)
);
}
);
width = 600;
},
{
layerId = "574EE4B9-5C1A-4E7E-9985-C08FACB65BD8";
shapes = (
{
closed = 1;
nodes = (
(189,84,l),
(189,0,l),
(323,0,ls),
(477,0,o),
(575,90,o),
(575,221,cs),
(575,345,o),
(467,427,o),
(307,424,c),
(527,618,l),
(527,710,l),
(236,710,ls),
(113,710,o),
(36,630,o),
(36,501,cs),
(36,0,l),
(122,0,l),
(122,501,ls),
(122,582,o),
(163,626,o),
(236,626,cs),
(414,626,l),
(199,437,l),
(199,352,l),
(301,353,ls),
(415,354,o),
(486,303,o),
(486,217,cs),
(486,136,o),
(424,84,o),
(323,84,cs)
);
}
);
width = 600;
},
{
layerId = "58B1DC7A-69F8-4375-AD2E-AC5103CCF536";
shapes = (
{
closed = 1;
nodes = (
(223,131,l),
(223,0,l),
(314,0,ls),
(481,0,o),
(587,85,o),
(587,217,cs),
(587,320,o),
(518,391,o),
(406,413,c),
(560,557,l),
(560,710,l),
(258,710,ls),
(100,710,o),
(17,629,o),
(17,475,cs),
(17,0,l),
(163,0,l),
(163,475,ls),
(163,546,o),
(194,579,o),
(258,579,cs),
(392,579,l),
(233,430,l),
(233,308,l),
(307,309,ls),
(386,310,o),
(433,276,o),
(433,219,cs),
(433,165,o),
(389,131,o),
(314,131,cs)
);
}
);
width = 600;
}
);
unicode = 7838;
},
{
glyphname = T;
kernLeft = "0";
kernRight = "0";
lastChange = "2023-11-09 14:20:38 +0000";
layers = (
{
anchors = (
{
name = bottom;
pos = (300,0);
},
{
name = top;
pos = (300,710);
}
);
background = {
shapes = (
{
closed = 1;
nodes = (
(214,0,l),
(302,0,l),
(302,710,l),
(214,710,l)
);
},
{
closed = 1;
nodes = (
(14,624,l),
(502,624,l),
(502,710,l),
(14,710,l)
);
}
);
};
layerId = "EE2FFE84-06F1-4AFB-BBEC-60D09A436D14";
shapes = (
{
closed = 1;
nodes = (
(41,710,l),
(41,680,l),
(284,680,l),
(284,0,l),
(316,0,l),
(316,680,l),
(559,680,l),
(559,710,l)
);
}
);
width = 600;
},
{
anchors = (
{
name = bottom;
pos = (300,0);
},
{
name = top;
pos = (300,710);
}
);
layerId = "574EE4B9-5C1A-4E7E-9985-C08FACB65BD8";
shapes = (
{
closed = 1;
nodes = (
(41,710,l),
(41,626,l),
(257,626,l),
(257,0,l),
(343,0,l),
(343,626,l),
(559,626,l),
(559,710,l)
);
}
);
width = 600;
},
{
anchors = (
{
name = bottom;
pos = (300,0);
},
{
name = top;
pos = (300,710);
}
);
layerId = "58B1DC7A-69F8-4375-AD2E-AC5103CCF536";
shapes = (
{
closed = 1;
nodes = (
(38,710,l),
(38,579,l),
(227,579,l),
(227,0,l),
(373,0,l),
(373,579,l),
(562,579,l),
(562,710,l)
);
}
);
width = 600;
}
);
unicode = 84;
},
{
glyphname = Tbar;
lastChange = "2023-11-09 14:20:38 +0000";
layers = (
{
layerId = "EE2FFE84-06F1-4AFB-BBEC-60D09A436D14";
shapes = (
{
ref = T;
},
{
closed = 1;
nodes = (
(124,333,l),
(477,333,l),
(477,363,l),
(124,363,l)
);
}
);
width = 600;
},
{
layerId = "574EE4B9-5C1A-4E7E-9985-C08FACB65BD8";
shapes = (
{
alignment = -1;
ref = T;
},
{
closed = 1;
nodes = (
(123,311,l),
(476,311,l),
(476,385,l),
(123,385,l)
);
}
);
width = 600;
},
{
layerId = "58B1DC7A-69F8-4375-AD2E-AC5103CCF536";
shapes = (
{
alignment = -1;
ref = T;
},
{
closed = 1;
nodes = (
(99,267,l),
(500,267,l),
(500,357,l),
(99,357,l)
);
}
);
width = 600;
}
);
unicode = 358;
},
{
glyphname = U;
kernLeft = "0";
kernRight = "0";
lastChange = "2023-11-09 14:20:38 +0000";
layers = (
{
anchors = (
{
name = bottom;
pos = (300,0);
},
{
name = ogonek;
pos = (386,0);
},
{
name = top;
pos = (300,710);
}
);
background = {
shapes = (
{
closed = 1;
nodes = (
(463,711,l),
(375,711,l),
(375,248,ls),
(375,134,o),
(314,70,o),
(205,70,cs),
(96,70,o),
(35,134,o),
(35,248,cs),
(35,711,l),
(-53,711,l),
(-53,248,ls),
(-53,86,o),
(47,-16,o),
(205,-16,cs),
(363,-16,o),
(463,86,o),
(463,248,cs)
);
}
);
};
layerId = "EE2FFE84-06F1-4AFB-BBEC-60D09A436D14";
shapes = (
{
closed = 1;
nodes = (
(520,711,l),
(488,711,l),
(488,248,ls),
(488,99,o),
(421,16,o),
(300,16,cs),
(179,16,o),
(112,99,o),
(112,248,cs),
(112,711,l),
(80,711,l),
(80,248,ls),
(80,79,o),
(159,-16,o),
(300,-16,cs),
(441,-16,o),
(520,79,o),
(520,248,cs)
);
}
);
width = 600;
},
{
anchors = (
{
name = bottom;
pos = (300,0);
},
{
name = ogonek;
pos = (394,0);
},
{
name = top;
pos = (300,710);
}
);
layerId = "574EE4B9-5C1A-4E7E-9985-C08FACB65BD8";
shapes = (
{
closed = 1;
nodes = (
(537,711,l),
(451,711,l),
(451,248,ls),
(451,133,o),
(401,68,o),
(300,68,cs),
(199,68,o),
(149,133,o),
(149,248,cs),
(149,711,l),
(63,711,l),
(63,248,ls),
(63,86,o),
(150,-16,o),
(300,-16,cs),
(450,-16,o),
(537,86,o),
(537,248,cs)
);
}
);
width = 600;
},
{
anchors = (
{
name = bottom;
pos = (300,0);
},
{
name = ogonek;
pos = (396,0);
},
{
name = top;
pos = (300,710);
}
);
layerId = "58B1DC7A-69F8-4375-AD2E-AC5103CCF536";
shapes = (
{
closed = 1;
nodes = (
(551,711,l),
(405,711,l),
(405,237,ls),
(405,161,o),
(370,115,o),
(300,115,cs),
(230,115,o),
(195,161,o),
(195,237,cs),
(195,711,l),
(49,711,l),
(49,255,ls),
(49,83,o),
(137,-16,o),
(300,-16,cs),
(463,-16,o),
(551,83,o),
(551,255,cs)
);
}
);
width = 600;
}
);
unicode = 85;
},
{
glyphname = V;
kernLeft = "0";
kernRight = "0";
lastChange = "2023-11-09 14:20:38 +0000";
layers = (
{
background = {
shapes = (
{
closed = 1;
nodes = (
(260,0,l),
(368,0,l),
(624,710,l),
(529,710,l),
(301,62,l),
(326,62,l),
(98,710,l),
(4,710,l)
);
}
);
};
layerId = "EE2FFE84-06F1-4AFB-BBEC-60D09A436D14";
shapes = (
{
closed = 1;
nodes = (
(282,0,l),
(318,0,l),
(567,710,l),
(532,710,l),
(286,-7,l),
(314,-7,l),
(68,710,l),
(33,710,l)
);
}
);
width = 600;
},
{
layerId = "574EE4B9-5C1A-4E7E-9985-C08FACB65BD8";
shapes = (
{
closed = 1;
nodes = (
(243,0,l),
(357,0,l),
(576,710,l),
(483,710,l),
(288,53,l),
(312,53,l),
(117,710,l),
(24,710,l)
);
}
);
width = 600;
},
{
layerId = "58B1DC7A-69F8-4375-AD2E-AC5103CCF536";
shapes = (
{
closed = 1;
nodes = (
(229,0,l),
(371,0,l),
(585,710,l),
(429,710,l),
(287,197,l),
(313,197,l),
(171,710,l),
(15,710,l)
);
}
);
width = 600;
}
);
unicode = 86;
},
{
glyphname = W;
kernLeft = "0";
kernRight = "0";
lastChange = "2023-11-09 14:20:38 +0000";
layers = (
{
anchors = (
{
name = bottom;
pos = (300,0);
},
{
name = top;
pos = (300,710);
}
);
background = {
shapes = (
{
closed = 1;
nodes = (
(242,0,l),
(314,591,l),
(286,591,l),
(358,0,l),
(497,0,l),
(567,710,l),
(477,710,l),
(413,50,l),
(422,50,l),
(337,684,l),
(406,630,l),
(194,630,l),
(263,684,l),
(178,50,l),
(187,50,l),
(123,710,l),
(33,710,l),
(103,0,l)
);
}
);
};
layerId = "EE2FFE84-06F1-4AFB-BBEC-60D09A436D14";
shapes = (
{
closed = 1;
nodes = (
(196,0,l),
(309,639,l),
(291,639,l),
(404,0,l),
(450,0,l),
(547,710,l),
(513,710,l),
(421,15,l),
(428,15,l),
(310,694,l),
(367,650,l),
(233,650,l),
(290,694,l),
(172,15,l),
(179,15,l),
(87,710,l),
(53,710,l),
(150,0,l)
);
}
);
width = 600;
},
{
anchors = (
{
name = bottom;
pos = (300,0);
},
{
name = top;
pos = (300,710);
}
);
layerId = "574EE4B9-5C1A-4E7E-9985-C08FACB65BD8";
shapes = (
{
closed = 1;
nodes = (
(240,0,l),
(314,612,l),
(286,612,l),
(360,0,l),
(495,0,l),
(566,710,l),
(478,710,l),
(413,49,l),
(422,49,l),
(336,704,l),
(405,650,l),
(195,650,l),
(264,704,l),
(178,49,l),
(187,49,l),
(122,710,l),
(34,710,l),
(105,0,l)
);
}
);
width = 600;
},
{
anchors = (
{
name = bottom;
pos = (300,0);
},
{
name = top;
pos = (300,710);
}
);
layerId = "58B1DC7A-69F8-4375-AD2E-AC5103CCF536";
shapes = (
{
closed = 1;
nodes = (
(241,0,l),
(310,473,l),
(290,473,l),
(358,0,l),
(500,0,l),
(585,710,l),
(438,710,l),
(392,275,l),
(398,276,l),
(338,704,l),
(401,650,l),
(199,650,l),
(261,704,l),
(202,278,l),
(208,277,l),
(162,710,l),
(15,710,l),
(100,0,l)
);
}
);
width = 600;
}
);
unicode = 87;
},
{
glyphname = X;
kernLeft = "0";
kernRight = "0";
lastChange = "2023-11-09 14:20:38 +0000";
layers = (
{
background = {
shapes = (
{
closed = 1;
nodes = (
(209,368,l),
(193,359,l),
(-41,0,l),
(59,0,l),
(279,337,l),
(296,348,l),
(532,710,l),
(432,710,l)
);
},
{
closed = 1;
nodes = (
(-39,710,l),
(206,335,l),
(221,324,l),
(432,0,l),
(534,0,l),
(280,389,l),
(266,399,l),
(63,710,l)
);
}
);
};
guides = (
{
angle = -90;
pos = (529,0);
}
);
layerId = "EE2FFE84-06F1-4AFB-BBEC-60D09A436D14";
shapes = (
{
closed = 1;
nodes = (
(300,381,l),
(108,710,l),
(69,710,l),
(277,357,l),
(62,0,l),
(101,0,l),
(300,334,l),
(499,0,l),
(538,0,l),
(323,357,l),
(531,710,l),
(492,710,l)
);
}
);
width = 600;
},
{
associatedMasterId = "EE2FFE84-06F1-4AFB-BBEC-60D09A436D14";
background = {
shapes = (
{
closed = 1;
nodes = (
(280,368,l),
(264,359,l),
(30,0,l),
(130,0,l),
(350,337,l),
(367,348,l),
(603,710,l),
(503,710,l)
);
},
{
closed = 1;
nodes = (
(32,710,l),
(277,335,l),
(292,324,l),
(503,0,l),
(605,0,l),
(351,389,l),
(337,399,l),
(134,710,l)
);
}
);
};
layerId = "C47B0997-5802-47AD-AE45-D8AD767F0936";
name = "5 de feb. de 23 12:24";
shapes = (
{
closed = 1;
nodes = (
(322,368,l),
(284,359,l),
(50,0,l),
(88,0,l),
(308,337,l),
(347,348,l),
(583,710,l),
(545,710,l)
);
},
{
closed = 1;
nodes = (
(52,710,l),
(297,335,l),
(336,324,l),
(547,0,l),
(585,0,l),
(331,389,l),
(293,399,l),
(90,710,l)
);
}
);
width = 600;
},
{
layerId = "574EE4B9-5C1A-4E7E-9985-C08FACB65BD8";
shapes = (
{
closed = 1;
nodes = (
(301,423,l),
(156,710,l),
(55,710,l),
(246,357,l),
(53,0,l),
(152,0,l),
(299,291,l),
(446,0,l),
(547,0,l),
(354,356,l),
(545,710,l),
(446,710,l)
);
}
);
width = 600;
},
{
layerId = "58B1DC7A-69F8-4375-AD2E-AC5103CCF536";
shapes = (
{
closed = 1;
nodes = (
(300,476,l),
(200,710,l),
(32,710,l),
(205,357,l),
(30,0,l),
(198,0,l),
(300,239,l),
(401,0,l),
(570,0,l),
(395,357,l),
(568,710,l),
(401,710,l)
);
}
);
width = 600;
}
);
unicode = 88;
},
{
glyphname = Y;
kernLeft = "0";
kernRight = "0";
lastChange = "2023-11-09 14:20:38 +0000";
layers = (
{
anchors = (
{
name = bottom;
pos = (300,0);
},
{
name = top;
pos = (299,710);
}
);
background = {
shapes = (
{
closed = 1;
nodes = (
(325,287,l),
(583,710,l),
(485,710,l),
(293,389,l),
(100,710,l),
(2,710,l),
(261,287,l)
);
},
{
closed = 1;
nodes = (
(249,0,l),
(337,0,l),
(337,360,l),
(249,360,l)
);
}
);
};
layerId = "EE2FFE84-06F1-4AFB-BBEC-60D09A436D14";
shapes = (
{
closed = 1;
nodes = (
(284,290,l),
(284,0,l),
(316,0,l),
(316,290,l),
(542,710,l),
(505,710,l),
(300,326,l),
(95,710,l),
(57,710,l)
);
}
);
width = 600;
},
{
anchors = (
{
name = bottom;
pos = (301,0);
},
{
name = top;
pos = (301,710);
}
);
layerId = "574EE4B9-5C1A-4E7E-9985-C08FACB65BD8";
shapes = (
{
closed = 1;
nodes = (
(258,290,l),
(258,0,l),
(344,0,l),
(344,290,l),
(555,710,l),
(457,710,l),
(301,390,l),
(144,710,l),
(46,710,l)
);
}
);
width = 600;
},
{
anchors = (
{
name = bottom;
pos = (301,0);
},
{
name = top;
pos = (301,710);
}
);
layerId = "58B1DC7A-69F8-4375-AD2E-AC5103CCF536";
shapes = (
{
closed = 1;
nodes = (
(228,285,l),
(228,0,l),
(374,0,l),
(374,285,l),
(569,710,l),
(406,710,l),
(301,448,l),
(195,710,l),
(32,710,l)
);
}
);
width = 600;
}
);
unicode = 89;
},
{
glyphname = Z;
kernLeft = "0";
kernRight = "0";
lastChange = "2023-11-09 14:20:38 +0000";
layers = (
{
anchors = (
{
name = bottom;
pos = (300,0);
},
{
name = top;
pos = (300,710);
}
);
background = {
shapes = (
{
closed = 1;
nodes = (
(420,710,l),
(-28,710,l),
(-28,624,l),
(324,624,l),
(-45,97,l),
(-45,0,l),
(428,0,l),
(428,86,l),
(50,86,l),
(420,614,l)
);
}
);
};
layerId = "EE2FFE84-06F1-4AFB-BBEC-60D09A436D14";
shapes = (
{
closed = 1;
nodes = (
(529,710,l),
(81,710,l),
(81,680,l),
(494,680,l),
(64,30,l),
(64,0,l),
(537,0,l),
(537,30,l),
(99,30,l),
(529,680,l)
);
}
);
width = 600;
},
{
anchors = (
{
name = bottom;
pos = (300,0);
},
{
name = top;
pos = (300,710);
}
);
layerId = "574EE4B9-5C1A-4E7E-9985-C08FACB65BD8";
shapes = (
{
closed = 1;
nodes = (
(541,710,l),
(67,710,l),
(67,626,l),
(441,626,l),
(50,89,l),
(50,0,l),
(549,0,l),
(549,84,l),
(152,84,l),
(541,617,l)
);
}
);
width = 600;
},
{
anchors = (
{
name = bottom;
pos = (300,0);
},
{
name = top;
pos = (300,710);
}
);
layerId = "58B1DC7A-69F8-4375-AD2E-AC5103CCF536";
shapes = (
{
closed = 1;
nodes = (
(555,710,l),
(58,710,l),
(58,579,l),
(370,579,l),
(36,138,l),
(36,0,l),
(563,0,l),
(563,131,l),
(211,131,l),
(555,581,l)
);
}
);
width = 600;
}
);
unicode = 90;
},
{
glyphname = R.ss04;
kernLeft = "0";
kernRight = "0";
lastChange = "2023-11-09 14:20:38 +0000";
layers = (
{
anchors = (
{
name = bottom;
pos = (287,0);
},
{
name = top;
pos = (287,710);
}
);
background = {
shapes = (
{
closed = 1;
nodes = (
(90,0,l),
(122,0,l),
(122,311,l),
(287,311,ls),
(528,311,o),
(452,146,o),
(513,0,c),
(546,0,l),
(494,144,o),
(535,285,o),
(389,327,c),
(473,350,o),
(527,415,o),
(527,505,cs),
(527,631,o),
(434,710,o),
(287,710,cs),
(90,710,l)
);
},
{
closed = 1;
nodes = (
(122,680,l),
(287,680,ls),
(419,680,o),
(493,617,o),
(493,505,cs),
(493,400,o),
(419,341,o),
(287,341,cs),
(122,341,l)
);
}
);
};
layerId = "EE2FFE84-06F1-4AFB-BBEC-60D09A436D14";
shapes = (
{
closed = 1;
nodes = (
(90,0,l),
(122,0,l),
(122,311,l),
(287,311,ls),
(296,311,o),
(306,311,o),
(314,312,c),
(493,0,l),
(527,0,l),
(346,315,l),
(459,333,o),
(527,403,o),
(527,505,cs),
(527,631,o),
(434,710,o),
(287,710,cs),
(90,710,l)
);
},
{
closed = 1;
nodes = (
(122,680,l),
(287,680,ls),
(419,680,o),
(493,617,o),
(493,505,cs),
(493,400,o),
(419,341,o),
(287,341,cs),
(122,341,l)
);
}
);
width = 600;
},
{
anchors = (
{
name = bottom;
pos = (267,0);
},
{
name = top;
pos = (267,710);
}
);
associatedMasterId = "EE2FFE84-06F1-4AFB-BBEC-60D09A436D14";
background = {
shapes = (
{
closed = 1;
nodes = (
(52,0,l),
(140,0,l),
(140,285,l),
(277,285,l),
(432,285,o),
(529,366,o),
(529,495,cs),
(529,630,o),
(436,710,o),
(277,710,c),
(52,710,l)
);
},
{
closed = 1;
nodes = (
(140,624,l),
(277,624,l),
(380,624,o),
(437,578,o),
(437,497,cs),
(437,416,o),
(380,371,o),
(277,371,cs),
(140,371,l)
);
},
{
closed = 1;
nodes = (
(451,0,l),
(544,0,l),
(367,312,l),
(274,312,l)
);
}
);
};
layerId = "E52F05DD-F8BB-41FB-A85A-A270D0A939B3";
name = "24 de feb. de 23 09:29";
shapes = (
{
closed = 1;
nodes = (
(483,0,l),
(517,0,l),
(335,318,l),
(301,318,l)
);
},
{
closed = 1;
nodes = (
(70,0,l),
(102,0,l),
(102,311,l),
(277,311,l),
(424,311,o),
(517,386,o),
(517,505,cs),
(517,631,o),
(424,710,o),
(277,710,c),
(70,710,l)
);
},
{
closed = 1;
nodes = (
(102,680,l),
(277,680,l),
(409,680,o),
(483,617,o),
(483,505,cs),
(483,400,o),
(409,341,o),
(277,341,cs),
(102,341,l)
);
}
);
width = 587;
},
{
anchors = (
{
name = bottom;
pos = (290,0);
},
{
name = top;
pos = (290,710);
}
);
layerId = "574EE4B9-5C1A-4E7E-9985-C08FACB65BD8";
shapes = (
{
closed = 1;
nodes = (
(71,0,l),
(157,0,l),
(157,286,l),
(285,286,ls),
(289,286,o),
(292,286,o),
(297,286,c),
(459,0,l),
(554,0,l),
(385,299,l),
(482,325,o),
(537,396,o),
(537,495,cs),
(537,630,o),
(444,710,o),
(285,710,cs),
(71,710,l)
);
},
{
closed = 1;
nodes = (
(157,626,l),
(285,626,ls),
(389,626,o),
(447,579,o),
(447,497,cs),
(447,415,o),
(389,370,o),
(285,370,cs),
(157,370,l)
);
}
);
width = 600;
},
{
anchors = (
{
name = bottom;
pos = (287,0);
},
{
name = top;
pos = (287,710);
}
);
layerId = "58B1DC7A-69F8-4375-AD2E-AC5103CCF536";
shapes = (
{
closed = 1;
nodes = (
(56,0,l),
(202,0,l),
(202,254,l),
(269,254,ls),
(274,254,o),
(278,254,o),
(283,254,c),
(418,0,l),
(577,0,l),
(420,292,l),
(496,317,o),
(543,389,o),
(543,481,cs),
(543,618,o),
(446,710,o),
(300,710,cs),
(56,710,l)
);
},
{
closed = 1;
nodes = (
(202,579,l),
(286,579,ls),
(348,579,o),
(389,539,o),
(389,481,cs),
(389,424,o),
(348,385,o),
(286,385,cs),
(202,385,l)
);
}
);
width = 600;
}
);
},
{
glyphname = G.ss06;
kernLeft = "0";
kernRight = "0";
lastChange = "2023-11-09 14:20:38 +0000";
layers = (
{
anchors = (
{
name = bottom;
pos = (304,0);
},
{
name = top;
pos = (304,710);
}
);
background = {
shapes = (
{
closed = 1;
nodes = (
(540,330,l),
(304,330,l),
(304,300,l),
(504,300,l),
(496,133,o),
(419,16,o),
(304,16,cs),
(178,16,o),
(74,146,o),
(74,354,cs),
(74,563,o),
(178,694,o),
(304,694,cs),
(397,694,o),
(470,618,o),
(503,497,c),
(536,501,l),
(502,639,o),
(417,726,o),
(304,726,cs),
(157,726,o),
(40,583,o),
(40,354,cs),
(40,127,o),
(157,-16,o),
(304,-16,cs),
(412,-16,o),
(484,58,o),
(512,177,c),
(501,195,l),
(508,0,l),
(540,0,l)
);
}
);
};
layerId = "EE2FFE84-06F1-4AFB-BBEC-60D09A436D14";
shapes = (
{
closed = 1;
nodes = (
(304,300,l),
(506,300,l),
(506,126,o),
(417,16,o),
(304,16,cs),
(163,16,o),
(74,146,o),
(74,354,cs),
(74,563,o),
(163,694,o),
(304,694,cs),
(393,694,o),
(470,618,o),
(503,497,c),
(536,501,l),
(503,639,o),
(413,726,o),
(304,726,cs),
(142,726,o),
(40,583,o),
(40,354,cs),
(40,127,o),
(142,-16,o),
(304,-16,cs),
(449,-16,o),
(540,108,o),
(540,306,cs),
(540,330,l),
(304,330,l)
);
}
);
width = 600;
},
{
anchors = (
{
name = bottom;
pos = (301,0);
},
{
name = top;
pos = (301,710);
}
);
layerId = "574EE4B9-5C1A-4E7E-9985-C08FACB65BD8";
shapes = (
{
closed = 1;
nodes = (
(301,275,l),
(476,275,l),
(477,148,o),
(409,68,o),
(301,68,cs),
(179,68,o),
(110,201,o),
(110,354,cs),
(110,508,o),
(178,642,o),
(301,642,cs),
(383,642,o),
(448,582,o),
(471,496,c),
(561,502,l),
(530,632,o),
(431,726,o),
(301,726,cs),
(135,726,o),
(20,561,o),
(20,354,cs),
(20,148,o),
(136,-16,o),
(301,-16,cs),
(464,-16,o),
(567,112,o),
(567,315,cs),
(567,359,l),
(301,359,l)
);
}
);
width = 600;
},
{
anchors = (
{
name = bottom;
pos = (303,0);
},
{
name = top;
pos = (302,710);
}
);
layerId = "58B1DC7A-69F8-4375-AD2E-AC5103CCF536";
shapes = (
{
closed = 1;
nodes = (
(295,253,l),
(414,253,l),
(411,169,o),
(375,115,o),
(303,115,cs),
(220,115,o),
(175,214,o),
(175,354,cs),
(175,495,o),
(220,595,o),
(303,595,cs),
(357,595,o),
(399,549,o),
(415,467,c),
(570,477,l),
(534,638,o),
(443,726,o),
(301,726,cs),
(131,726,o),
(21,577,o),
(21,354,cs),
(21,133,o),
(132,-16,o),
(303,-16,cs),
(476,-16,o),
(568,105,o),
(568,333,cs),
(568,370,l),
(295,370,l)
);
}
);
width = 600;
}
);
note = "<svg xmlns=\"http://www.w3.org/2000/svg\" viewBox=\"0 0 606 742\"><path d=\"M606,726v-360h-284v86h199c-7,115-76,204-199,204c-161,0-230-133-230-284c0-152,68-286,230-286c102,0,166,59,189,144l92-6c-31-130-130-224-281-224c-206,0-322,166-322,372c0,205,117,370,322,370c93,0,181-54,212-131l8,115Z\"></path></svg>";
},
{
glyphname = a;
kernLeft = "0";
kernRight = "0";
lastChange = "2023-11-09 14:20:38 +0000";
layers = (
{
anchors = (
{
name = bottom;
pos = (282,0);
},
{
name = ogonek;
pos = (540,0);
},
{
name = top;
pos = (282,530);
}
);
background = {
shapes = (
{
closed = 1;
nodes = (
(288,-12,o),
(352,48,o),
(361,102,c),
(352,110,l),
(351,49,o),
(390,0,o),
(467,0,cs),
(494,0,l),
(494,76,l),
(472,76,ls),
(450,76,o),
(440,86,o),
(440,108,cs),
(440,320,ls),
(440,468,o),
(354,542,o),
(226,542,cs),
(116,542,o),
(29,474,o),
(9,374,c),
(101,367,l),
(114,421,o),
(161,460,o),
(226,460,cs),
(314,460,o),
(367,404,o),
(351,287,c),
(398,338,l),
(200,299,ls),
(82,276,o),
(0,249,o),
(0,139,cs),
(0,44,o),
(86,-12,o),
(191,-12,cs)
);
},
{
closed = 1;
nodes = (
(90,213,o),
(154,216,o),
(232,230,cs),
(400,261,l),
(356,267,l),
(356,228,ls),
(356,124,o),
(288,64,o),
(202,64,cs),
(125,64,o),
(90,98,o),
(90,139,cs)
);
}
);
};
layerId = "EE2FFE84-06F1-4AFB-BBEC-60D09A436D14";
shapes = (
{
closed = 1;
nodes = (
(119,370,l),
(131,459,o),
(191,512,o),
(282,512,cs),
(385,512,o),
(446,449,o),
(446,315,c),
(256,280,ls),
(163,263,o),
(74,226,o),
(74,131,cs),
(74,48,o),
(140,-10,o),
(247,-12,cs),
(336,-10,o),
(412,34,o),
(448,115,c),
(443,25,o),
(475,0,o),
(522,0,cs),
(540,0,l),
(540,30,l),
(522,30,ls),
(491,30,o),
(478,48,o),
(478,90,cs),
(478,320,ls),
(478,468,o),
(410,542,o),
(282,542,cs),
(172,542,o),
(100,474,o),
(83,373,c)
);
},
{
closed = 1;
nodes = (
(106,219,o),
(201,241,o),
(288,257,cs),
(448,287,l),
(449,219,ls),
(451,108,o),
(371,23,o),
(258,18,cs),
(165,13,o),
(106,60,o),
(106,131,cs)
);
}
);
width = 600;
},
{
anchors = (
{
name = bottom;
pos = (243,0);
},
{
name = ogonek;
pos = (386,0);
},
{
name = top;
pos = (243,530);
}
);
associatedMasterId = "EE2FFE84-06F1-4AFB-BBEC-60D09A436D14";
background = {
shapes = (
{
closed = 1;
nodes = (
(323,-12,o),
(387,48,o),
(396,102,c),
(387,110,l),
(386,49,o),
(425,0,o),
(502,0,cs),
(529,0,l),
(529,76,l),
(507,76,ls),
(485,76,o),
(475,86,o),
(475,108,cs),
(475,320,ls),
(475,468,o),
(389,542,o),
(261,542,cs),
(151,542,o),
(64,474,o),
(44,374,c),
(136,367,l),
(149,421,o),
(196,460,o),
(261,460,cs),
(349,460,o),
(402,404,o),
(386,287,c),
(433,338,l),
(235,299,ls),
(117,276,o),
(35,249,o),
(35,139,cs),
(35,44,o),
(121,-12,o),
(226,-12,cs)
);
},
{
closed = 1;
nodes = (
(125,213,o),
(189,216,o),
(267,230,cs),
(435,261,l),
(391,267,l),
(391,228,ls),
(391,124,o),
(323,64,o),
(237,64,cs),
(160,64,o),
(125,98,o),
(125,139,cs)
);
}
);
};
layerId = "456932B6-354B-4A2F-81B9-CE7212349174";
name = "30 de mar. de 23 15:28";
shapes = (
{
closed = 1;
nodes = (
(217,280,ls),
(124,263,o),
(35,226,o),
(35,131,cs),
(35,48,o),
(101,-10,o),
(208,-12,cs),
(322,-10,o),
(414,62,o),
(430,192,c),
(411,192,l),
(410,155,o),
(409,127,o),
(409,90,cs),
(409,38,o),
(442,-2,o),
(483,0,cs),
(488,0,o),
(492,0,o),
(496,0,c),
(496,30,l),
(491,30,o),
(488,30,o),
(483,30,cs),
(457,31,o),
(439,56,o),
(439,90,cs),
(439,320,ls),
(439,468,o),
(371,542,o),
(243,542,cs),
(121,542,o),
(46,459,o),
(40,339,c),
(-6,376,l),
(134,366,l),
(77,338,l),
(79,446,o),
(142,512,o),
(243,512,cs),
(346,512,o),
(407,442,o),
(407,327,cs),
(407,303,l),
(430,319,l)
);
},
{
closed = 1;
nodes = (
(67,219,o),
(162,241,o),
(249,257,cs),
(425,290,l),
(409,295,l),
(410,219,ls),
(411,108,o),
(332,23,o),
(219,18,cs),
(126,13,o),
(67,60,o),
(67,131,cs)
);
}
);
width = 526;
},
{
anchors = (
{
name = bottom;
pos = (289,0);
},
{
name = ogonek;
pos = (558,3);
},
{
name = top;
pos = (291,530);
}
);
layerId = "574EE4B9-5C1A-4E7E-9985-C08FACB65BD8";
shapes = (
{
closed = 1;
nodes = (
(164,367,l),
(177,422,o),
(225,462,o),
(291,462,cs),
(369,462,o),
(419,419,o),
(420,329,c),
(265,298,ls),
(148,276,o),
(65,248,o),
(65,139,cs),
(65,44,o),
(151,-12,o),
(256,-12,cs),
(340,-12,o),
(400,33,o),
(421,82,c),
(430,34,o),
(468,0,o),
(532,0,cs),
(558,0,l),
(558,74,l),
(537,74,ls),
(514,74,o),
(504,85,o),
(504,107,cs),
(504,320,ls),
(504,468,o),
(419,542,o),
(291,542,cs),
(181,542,o),
(94,474,o),
(74,374,c)
);
},
{
closed = 1;
nodes = (
(153,213,o),
(218,218,o),
(297,232,cs),
(422,254,l),
(422,228,ls),
(422,123,o),
(354,63,o),
(267,62,cs),
(189,62,o),
(153,97,o),
(153,139,cs)
);
}
);
width = 600;
},
{
anchors = (
{
name = bottom;
pos = (295,0);
},
{
name = ogonek;
pos = (567,1);
},
{
name = top;
pos = (296,530);
}
);
layerId = "58B1DC7A-69F8-4375-AD2E-AC5103CCF536";
shapes = (
{
closed = 1;
nodes = (
(211,359,l),
(218,395,o),
(249,419,o),
(290,419,cs),
(336,419,o),
(366,390,o),
(368,338,c),
(270,320,ls),
(132,296,o),
(56,247,o),
(56,139,cs),
(56,45,o),
(143,-12,o),
(254,-12,cs),
(334,-12,o),
(403,28,o),
(425,81,c),
(435,34,o),
(473,0,o),
(537,0,cs),
(567,0,l),
(567,125,l),
(542,125,ls),
(520,125,o),
(510,136,o),
(510,165,cs),
(510,320,ls),
(510,464,o),
(430,542,o),
(296,542,cs),
(176,542,o),
(86,480,o),
(65,366,c)
);
},
{
closed = 1;
nodes = (
(204,188,o),
(237,202,o),
(295,211,cs),
(369,224,l),
(369,210,ls),
(369,147,o),
(330,109,o),
(274,109,cs),
(231,109,o),
(209,126,o),
(207,151,cs)
);
}
);
width = 600;
}
);
unicode = 97;
},
{
color = 8;
glyphname = ae;
kernLeft = "0";
kernRight = "0";
lastChange = "2023-11-09 14:20:38 +0000";
layers = (
{
anchors = (
{
name = bottom;
pos = (427,0);
},
{
name = ogonek;
pos = (473,0);
},
{
name = top;
pos = (427,530);
}
);
background = {
shapes = (
{
closed = 1;
nodes = (
(215,301,ls),
(98,280,o),
(15,253,o),
(15,141,cs),
(15,46,o),
(101,-10,o),
(206,-12,cs),
(312,-10,o),
(381,43,o),
(400,136,c),
(455,320,l),
(455,468,o),
(369,542,o),
(241,542,cs),
(119,542,o),
(26,459,o),
(20,339,c),
(-8,376,l),
(132,366,l),
(113,338,l),
(114,407,o),
(166,460,o),
(241,460,cs),
(319,460,o),
(369,416,o),
(369,327,cs),
(369,303,l),
(390,333,l)
);
},
{
closed = 1;
nodes = (
(105,217,o),
(169,216,o),
(247,231,cs),
(385,257,l),
(371,274,l),
(371,219,ls),
(371,121,o),
(303,64,o),
(217,60,cs),
(140,56,o),
(105,100,o),
(105,141,cs)
);
},
{
closed = 1;
nodes = (
(716,-12,o),
(806,50,o),
(837,150,c),
(745,157,l),
(721,102,o),
(670,70,o),
(614,70,cs),
(524,70,o),
(470,132,o),
(462,238,c),
(845,238,l),
(845,275,l),
(844,277,l),
(835,467,o),
(730,542,o),
(614,542,cs),
(467,542,o),
(371,434,o),
(371,265,cs),
(371,96,o),
(467,-12,o),
(614,-12,cs)
);
},
{
closed = 1;
nodes = (
(478,406,o),
(531,460,o),
(614,460,cs),
(677,460,o),
(736,424,o),
(751,314,c),
(464,314,l)
);
}
);
};
layerId = "EE2FFE84-06F1-4AFB-BBEC-60D09A436D14";
shapes = (
{
closed = 1;
nodes = (
(59,370,l),
(68,461,o),
(104,512,o),
(160,512,cs),
(231,512,o),
(266,447,o),
(266,315,c),
(152,282,ls),
(68,258,o),
(21,204,o),
(21,131,cs),
(21,41,o),
(62,-10,o),
(135,-12,cs),
(228,-14,o),
(289,65,o),
(293,192,c),
(298,320,l),
(298,468,o),
(252,542,o),
(160,542,cs),
(85,542,o),
(41,486,o),
(27,373,c)
);
},
{
closed = 1;
nodes = (
(53,192,o),
(90,234,o),
(164,255,cs),
(265,284,l),
(265,219,ls),
(265,100,o),
(218,23,o),
(143,18,cs),
(85,14,o),
(53,55,o),
(53,131,cs)
);
},
{
closed = 1;
nodes = (
(266,80,o),
(319,-12,o),
(427,-12,cs),
(504,-12,o),
(554,39,o),
(578,143,c),
(546,145,l),
(522,57,o),
(486,18,o),
(427,18,cs),
(339,18,o),
(300,91,o),
(298,258,c),
(579,258,l),
(579,265,l),
(579,443,o),
(524,542,o),
(427,542,cs),
(324,542,o),
(266,443,o),
(266,265,cs)
);
},
{
closed = 1;
nodes = (
(303,426,o),
(348,512,o),
(427,512,cs),
(504,512,o),
(542,432,o),
(547,288,c),
(298,288,l)
);
}
);
width = 600;
},
{
associatedMasterId = "EE2FFE84-06F1-4AFB-BBEC-60D09A436D14";
background = {
shapes = (
{
closed = 1;
nodes = (
(250,301,ls),
(133,280,o),
(50,253,o),
(50,141,cs),
(50,46,o),
(136,-10,o),
(241,-12,cs),
(347,-10,o),
(416,43,o),
(435,136,c),
(490,320,l),
(490,468,o),
(404,542,o),
(276,542,cs),
(154,542,o),
(61,459,o),
(55,339,c),
(27,376,l),
(167,366,l),
(148,338,l),
(149,407,o),
(201,460,o),
(276,460,cs),
(354,460,o),
(404,416,o),
(404,327,cs),
(404,303,l),
(425,333,l)
);
},
{
closed = 1;
nodes = (
(140,217,o),
(204,216,o),
(282,231,cs),
(420,257,l),
(406,274,l),
(406,219,ls),
(406,121,o),
(338,64,o),
(252,60,cs),
(175,56,o),
(140,100,o),
(140,141,cs)
);
},
{
closed = 1;
nodes = (
(751,-12,o),
(841,50,o),
(872,150,c),
(780,157,l),
(756,102,o),
(705,70,o),
(649,70,cs),
(559,70,o),
(505,132,o),
(497,238,c),
(880,238,l),
(880,275,l),
(879,277,l),
(870,467,o),
(765,542,o),
(649,542,cs),
(502,542,o),
(406,434,o),
(406,265,cs),
(406,96,o),
(502,-12,o),
(649,-12,cs)
);
},
{
closed = 1;
nodes = (
(513,406,o),
(566,460,o),
(649,460,cs),
(712,460,o),
(771,424,o),
(786,314,c),
(499,314,l)
);
}
);
};
layerId = "E6022EAD-E776-496E-ABC3-4A5031DA1E76";
name = "30 de mar. de 23 10:45";
shapes = (
{
closed = 1;
nodes = (
(80,370,l),
(92,459,o),
(152,512,o),
(243,512,cs),
(348,512,o),
(407,446,o),
(407,327,cs),
(407,315,l),
(217,280,ls),
(124,263,o),
(35,226,o),
(35,131,cs),
(35,48,o),
(101,-10,o),
(208,-12,cs),
(322,-10,o),
(420,62,o),
(429,192,cs),
(435,320,l),
(435,468,o),
(371,542,o),
(243,542,cs),
(133,542,o),
(61,474,o),
(44,373,c)
);
},
{
closed = 1;
nodes = (
(67,219,o),
(162,241,o),
(249,257,cs),
(409,287,l),
(409,219,ls),
(409,108,o),
(332,23,o),
(219,18,cs),
(126,13,o),
(67,60,o),
(67,131,cs)
);
},
{
alignment = -1;
pos = (369,0);
ref = e;
}
);
width = 894;
},
{
anchors = (
{
name = bottom;
pos = (425,0);
},
{
name = ogonek;
pos = (479,0);
},
{
name = top;
pos = (425,528);
}
);
layerId = "574EE4B9-5C1A-4E7E-9985-C08FACB65BD8";
shapes = (
{
closed = 1;
nodes = (
(103,367,l),
(112,422,o),
(126,462,o),
(172,462,cs),
(219,462,o),
(238,423,o),
(238,322,c),
(153,300,ls),
(67,279,o),
(13,218,o),
(13,141,cs),
(13,46,o),
(74,-10,o),
(147,-12,cs),
(222,-10,o),
(272,44,o),
(284,138,c),
(321,320,l),
(321,468,o),
(271,542,o),
(172,542,cs),
(87,542,o),
(37,486,o),
(20,374,c)
);
},
{
closed = 1;
nodes = (
(97,180,o),
(124,217,o),
(178,230,cs),
(239,245,l),
(239,219,ls),
(239,118,o),
(213,72,o),
(155,68,cs),
(121,65,o),
(97,95,o),
(97,141,cs)
);
},
{
closed = 1;
nodes = (
(254,87,o),
(315,-12,o),
(425,-12,cs),
(514,-12,o),
(557,33,o),
(582,150,c),
(497,157,l),
(484,93,o),
(464,68,o),
(425,68,cs),
(375,68,o),
(344,129,o),
(339,239,c),
(588,239,l),
(587,277,l),
(581,454,o),
(528,542,o),
(425,542,cs),
(315,542,o),
(254,443,o),
(254,265,cs)
);
},
{
closed = 1;
nodes = (
(350,420,o),
(375,462,o),
(425,462,cs),
(469,462,o),
(491,420,o),
(501,313,c),
(340,313,l)
);
}
);
width = 600;
},
{
anchors = (
{
name = bottom;
pos = (251,0);
},
{
name = ogonek;
pos = (375,0);
},
{
name = top;
pos = (251,529);
}
);
layerId = "58B1DC7A-69F8-4375-AD2E-AC5103CCF536";
shapes = (
{
closed = 1;
nodes = (
(131,359,l),
(136,395,o),
(145,419,o),
(174,419,cs),
(203,419,o),
(213,392,o),
(214,336,c),
(159,321,ls),
(63,293,o),
(8,238,o),
(8,140,cs),
(8,46,o),
(70,-11,o),
(148,-12,cs),
(203,-11,o),
(244,24,o),
(264,82,c),
(330,320,l),
(330,464,o),
(275,542,o),
(178,542,cs),
(91,542,o),
(31,483,o),
(15,366,c)
);
},
{
closed = 1;
nodes = (
(127,178,o),
(146,203,o),
(178,211,cs),
(223,221,l),
(223,208,ls),
(223,146,o),
(204,112,o),
(170,111,cs),
(146,110,o),
(129,127,o),
(128,152,cs)
);
},
{
closed = 1;
nodes = (
(232,93,o),
(301,-12,o),
(414,-12,cs),
(502,-12,o),
(565,54,o),
(586,166,c),
(468,181,l),
(458,129,o),
(439,111,o),
(414,111,cs),
(379,111,o),
(353,153,o),
(352,233,c),
(592,233,l),
(592,263,l),
(590,453,o),
(512,542,o),
(414,542,cs),
(301,542,o),
(232,437,o),
(232,265,cs)
);
},
{
closed = 1;
nodes = (
(360,387,o),
(380,419,o),
(414,419,cs),
(446,419,o),
(465,387,o),
(470,321,c),
(355,321,l)
);
}
);
width = 600;
}
);
unicode = 230;
},
{
glyphname = b;
kernLeft = "0";
kernRight = "0";
lastChange = "2023-11-09 14:20:38 +0000";
layers = (
{
background = {
shapes = (
{
closed = 1;
nodes = (
(-30,0,l),
(48,0,l),
(52,108,l),
(43,91,l),
(69,26,o),
(128,-12,o),
(218,-12,cs),
(372,-12,o),
(442,120,o),
(442,265,cs),
(442,410,o),
(372,542,o),
(218,542,cs),
(128,542,o),
(69,504,o),
(44,436,c),
(56,422,l),
(56,710,l),
(-30,710,l)
);
},
{
closed = 1;
nodes = (
(48,367,o),
(91,464,o),
(200,464,cs),
(310,464,o),
(352,368,o),
(352,265,cs),
(352,166,o),
(310,70,o),
(200,70,cs),
(91,70,o),
(48,167,o),
(48,265,cs)
);
}
);
};
layerId = "EE2FFE84-06F1-4AFB-BBEC-60D09A436D14";
shapes = (
{
closed = 1;
nodes = (
(100,0,l),
(122,0,l),
(125,130,l),
(161,43,o),
(234,-12,o),
(314,-12,cs),
(450,-12,o),
(535,95,o),
(535,265,cs),
(535,433,o),
(450,539,o),
(314,539,cs),
(234,539,o),
(158,482,o),
(130,402,c),
(130,710,l),
(100,710,l)
);
},
{
closed = 1;
nodes = (
(127,402,o),
(209,509,o),
(314,509,cs),
(430,509,o),
(503,415,o),
(503,265,cs),
(503,113,o),
(430,17,o),
(314,17,cs),
(209,17,o),
(127,126,o),
(127,265,cs)
);
}
);
width = 600;
},
{
layerId = "574EE4B9-5C1A-4E7E-9985-C08FACB65BD8";
shapes = (
{
closed = 1;
nodes = (
(81,0,l),
(157,0,l),
(160,76,l),
(189,21,o),
(246,-12,o),
(328,-12,cs),
(481,-12,o),
(551,119,o),
(551,265,cs),
(551,411,o),
(481,542,o),
(328,542,cs),
(249,542,o),
(195,513,o),
(165,460,c),
(165,710,l),
(81,710,l)
);
},
{
closed = 1;
nodes = (
(157,368,o),
(201,466,o),
(310,466,cs),
(420,466,o),
(463,370,o),
(463,265,cs),
(463,164,o),
(420,68,o),
(310,68,cs),
(201,68,o),
(157,166,o),
(157,265,cs)
);
}
);
width = 600;
},
{
layerId = "58B1DC7A-69F8-4375-AD2E-AC5103CCF536";
shapes = (
{
closed = 1;
nodes = (
(67,0,l),
(203,0,l),
(206,77,l),
(235,20,o),
(282,-12,o),
(354,-12,cs),
(480,-12,o),
(556,102,o),
(556,265,cs),
(556,428,o),
(480,542,o),
(354,542,cs),
(287,542,o),
(241,511,o),
(208,454,c),
(208,710,l),
(67,710,l)
);
},
{
closed = 1;
nodes = (
(198,354,o),
(234,420,o),
(302,420,cs),
(371,420,o),
(407,355,o),
(407,265,cs),
(407,176,o),
(371,111,o),
(302,111,cs),
(234,111,o),
(198,177,o),
(198,265,cs)
);
}
);
width = 600;
}
);
unicode = 98;
},
{
glyphname = c;
kernLeft = "0";
kernRight = "0";
lastChange = "2023-11-09 14:20:38 +0000";
layers = (
{
anchors = (
{
name = bottom;
pos = (314,0);
},
{
name = top;
pos = (314,530);
}
);
background = {
shapes = (
{
closed = 1;
nodes = (
(492,360,l),
(466,340,l),
(460,464,o),
(357,542,o),
(243,542,cs),
(96,542,o),
(0,434,o),
(0,265,cs),
(0,96,o),
(96,-12,o),
(243,-12,cs),
(369,-12,o),
(476,82,o),
(471,228,c),
(495,180,l),
(356,190,l),
(380,228,l),
(385,129,o),
(320,70,o),
(243,70,cs),
(146,70,o),
(90,143,o),
(90,265,cs),
(90,387,o),
(146,460,o),
(243,460,cs),
(311,460,o),
(373,413,o),
(376,333,c),
(353,350,l)
);
}
);
};
layerId = "EE2FFE84-06F1-4AFB-BBEC-60D09A436D14";
shapes = (
{
closed = 1;
nodes = (
(527,365,l),
(501,471,o),
(430,542,o),
(314,542,cs),
(164,542,o),
(89,415,o),
(89,265,cs),
(89,115,o),
(164,-12,o),
(314,-12,cs),
(435,-12,o),
(506,66,o),
(530,175,c),
(497,178,l),
(473,80,o),
(406,18,o),
(314,18,cs),
(196,18,o),
(121,113,o),
(121,265,cs),
(121,417,o),
(196,512,o),
(314,512,cs),
(403,512,o),
(468,455,o),
(494,363,c)
);
}
);
width = 600;
},
{
anchors = (
{
name = bottom;
pos = (313,0);
},
{
name = top;
pos = (313,530);
}
);
layerId = "574EE4B9-5C1A-4E7E-9985-C08FACB65BD8";
shapes = (
{
closed = 1;
nodes = (
(534,358,l),
(519,472,o),
(421,542,o),
(313,542,cs),
(166,542,o),
(71,433,o),
(71,265,cs),
(71,97,o),
(166,-12,o),
(313,-12,cs),
(425,-12,o),
(521,62,o),
(539,182,c),
(450,188,l),
(437,112,o),
(380,68,o),
(313,68,cs),
(215,68,o),
(159,142,o),
(159,265,cs),
(159,388,o),
(215,462,o),
(313,462,cs),
(377,462,o),
(434,421,o),
(446,352,c)
);
}
);
width = 600;
},
{
anchors = (
{
name = bottom;
pos = (312,0);
},
{
name = top;
pos = (312,530);
}
);
layerId = "58B1DC7A-69F8-4375-AD2E-AC5103CCF536";
shapes = (
{
closed = 1;
nodes = (
(561,325,l),
(548,454,o),
(442,542,o),
(312,542,cs),
(154,542,o),
(55,434,o),
(55,265,cs),
(55,96,o),
(154,-12,o),
(312,-12,cs),
(446,-12,o),
(550,77,o),
(563,208,c),
(414,214,l),
(406,153,o),
(366,111,o),
(312,111,cs),
(244,111,o),
(204,170,o),
(204,265,cs),
(204,360,o),
(244,419,o),
(312,419,cs),
(363,419,o),
(403,377,o),
(412,317,c)
);
}
);
width = 600;
}
);
unicode = 99;
},
{
glyphname = eth;
kernLeft = "0";
kernRight = "0";
lastChange = "2023-11-09 14:20:38 +0000";
layers = (
{
layerId = "EE2FFE84-06F1-4AFB-BBEC-60D09A436D14";
shapes = (
{
ref = partialdiff;
},
{
closed = 1;
nodes = (
(560,649,l),
(550,677,l),
(252,570,l),
(262,541,l)
);
}
);
width = 600;
},
{
layerId = "574EE4B9-5C1A-4E7E-9985-C08FACB65BD8";
shapes = (
{
alignment = -1;
ref = partialdiff;
},
{
closed = 1;
nodes = (
(544,634,l),
(521,696,l),
(223,589,l),
(246,526,l)
);
}
);
width = 600;
},
{
layerId = "58B1DC7A-69F8-4375-AD2E-AC5103CCF536";
shapes = (
{
alignment = -1;
ref = partialdiff;
},
{
closed = 1;
nodes = (
(538,638,l),
(508,708,l),
(179,562,l),
(210,492,l)
);
}
);
width = 600;
}
);
unicode = 240;
},
{
glyphname = dcroat;
kernLeft = "0";
kernRight = "0";
lastChange = "2023-11-09 14:20:38 +0000";
layers = (
{
layerId = "EE2FFE84-06F1-4AFB-BBEC-60D09A436D14";
shapes = (
{
ref = d;
},
{
closed = 1;
nodes = (
(311,606,l),
(555,606,l),
(555,636,l),
(311,636,l)
);
}
);
width = 600;
},
{
layerId = "574EE4B9-5C1A-4E7E-9985-C08FACB65BD8";
shapes = (
{
alignment = -1;
ref = d;
},
{
closed = 1;
nodes = (
(328,584,l),
(581,584,l),
(581,658,l),
(328,658,l)
);
}
);
width = 600;
},
{
layerId = "58B1DC7A-69F8-4375-AD2E-AC5103CCF536";
shapes = (
{
alignment = -1;
pos = (9,0);
ref = d;
},
{
closed = 1;
nodes = (
(278,569,l),
(644,569,l),
(644,659,l),
(278,659,l)
);
}
);
width = 600;
}
);
unicode = 273;
},
{
glyphname = e;
kernLeft = "0";
kernRight = "0";
lastChange = "2023-11-15 20:54:37 +0000";
layers = (
{
anchors = (
{
name = bottom;
pos = (305,0);
},
{
name = ogonek;
pos = (368,0);
},
{
name = top;
pos = (305,530);
}
);
background = {
shapes = (
{
closed = 1;
nodes = (
(355,-12,o),
(453,63,o),
(474,181,c),
(493,148,l),
(354,158,l),
(382,180,l),
(363,111,o),
(307,70,o),
(243,70,cs),
(146,70,o),
(90,143,o),
(90,265,cs),
(90,387,o),
(146,460,o),
(243,460,cs),
(315,460,o),
(381,413,o),
(384,265,c),
(474,265,l),
(468,464,o),
(361,542,o),
(243,542,cs),
(96,542,o),
(0,434,o),
(0,265,cs),
(0,96,o),
(96,-12,o),
(243,-12,cs)
);
},
{
closed = 1;
nodes = (
(474,238,l),
(474,275,l),
(469,297,l),
(423,297,l),
(423,314,l),
(44,314,l),
(44,238,l)
);
}
);
};
layerId = "EE2FFE84-06F1-4AFB-BBEC-60D09A436D14";
shapes = (
{
closed = 1;
nodes = (
(80,115,o),
(155,-12,o),
(305,-12,cs),
(403,-12,o),
(484,48,o),
(515,143,c),
(482,145,l),
(453,67,o),
(385,18,o),
(305,18,cs),
(189,18,o),
(114,110,o),
(112,258,c),
(530,258,l),
(530,265,l),
(530,415,o),
(455,542,o),
(305,542,cs),
(155,542,o),
(80,415,o),
(80,265,cs)
);
},
{
closed = 1;
nodes = (
(120,427,o),
(193,512,o),
(305,512,cs),
(417,512,o),
(490,427,o),
(497,288,c),
(113,288,l)
);
}
);
width = 600;
},
{
anchors = (
{
name = bottom;
pos = (265,0);
},
{
name = ogonek;
pos = (328,0);
},
{
name = top;
pos = (265,530);
}
);
associatedMasterId = "EE2FFE84-06F1-4AFB-BBEC-60D09A436D14";
background = {
shapes = (
{
closed = 1;
nodes = (
(395,-12,o),
(493,63,o),
(514,181,c),
(533,148,l),
(394,158,l),
(422,180,l),
(403,111,o),
(347,70,o),
(283,70,cs),
(186,70,o),
(130,143,o),
(130,265,cs),
(130,387,o),
(186,460,o),
(283,460,cs),
(355,460,o),
(421,413,o),
(424,265,c),
(514,265,l),
(508,464,o),
(401,542,o),
(283,542,cs),
(136,542,o),
(40,434,o),
(40,265,cs),
(40,96,o),
(136,-12,o),
(283,-12,cs)
);
},
{
closed = 1;
nodes = (
(514,238,l),
(514,275,l),
(509,297,l),
(463,297,l),
(463,314,l),
(84,314,l),
(84,238,l)
);
}
);
};
layerId = "E9BBF2E6-3E46-4BD2-A166-D8A1CCFF5D66";
name = "24 de feb. de 23 10:25";
shapes = (
{
closed = 1;
nodes = (
(56,258,l),
(490,258,l),
(488,288,l),
(56,288,l)
);
},
{
closed = 1;
nodes = (
(490,259,l),
(490,261,o),
(490,263,o),
(490,265,cs),
(490,415,o),
(415,542,o),
(265,542,cs),
(115,542,o),
(40,415,o),
(40,265,cs),
(40,115,o),
(115,-12,o),
(265,-12,cs),
(363,-12,o),
(444,48,o),
(475,143,c),
(442,145,l),
(413,67,o),
(345,18,o),
(265,18,cs),
(147,18,o),
(72,113,o),
(72,265,cs),
(72,417,o),
(147,512,o),
(265,512,cs),
(383,512,o),
(458,417,o),
(458,265,cs),
(458,263,o),
(458,261,o),
(458,259,c)
);
}
);
width = 525;
},
{
anchors = (
{
name = bottom;
pos = (309,0);
},
{
name = ogonek;
pos = (384,0);
},
{
name = top;
pos = (306,528);
}
);
layerId = "574EE4B9-5C1A-4E7E-9985-C08FACB65BD8";
shapes = (
{
closed = 1;
nodes = (
(66,97,o),
(162,-12,o),
(309,-12,cs),
(411,-12,o),
(500,50,o),
(531,150,c),
(441,157,l),
(417,101,o),
(366,68,o),
(309,68,cs),
(218,68,o),
(163,131,o),
(156,239,c),
(540,239,l),
(539,277,l),
(530,465,o),
(426,542,o),
(309,542,cs),
(162,542,o),
(66,433,o),
(66,265,cs)
);
},
{
closed = 1;
nodes = (
(171,407,o),
(225,462,o),
(309,462,cs),
(374,462,o),
(433,424,o),
(448,313,c),
(157,313,l)
);
}
);
width = 600;
},
{
anchors = (
{
name = bottom;
pos = (305,0);
},
{
name = ogonek;
pos = (380,0);
},
{
name = top;
pos = (305,529);
}
);
layerId = "58B1DC7A-69F8-4375-AD2E-AC5103CCF536";
shapes = (
{
closed = 1;
nodes = (
(47,96,o),
(147,-12,o),
(305,-12,cs),
(424,-12,o),
(520,59,o),
(549,166,c),
(400,181,l),
(383,137,o),
(347,111,o),
(305,111,cs),
(245,111,o),
(207,157,o),
(199,233,c),
(557,233,l),
(557,263,l),
(554,456,o),
(435,542,o),
(305,542,cs),
(147,542,o),
(47,434,o),
(47,265,cs)
);
},
{
closed = 1;
nodes = (
(215,383,o),
(251,419,o),
(305,419,cs),
(353,419,o),
(391,385,o),
(404,321,c),
(203,321,l)
);
}
);
width = 600;
}
);
unicode = 101;
},
{
glyphname = f;
kernLeft = "0";
kernRight = "0";
lastChange = "2023-11-09 14:20:38 +0000";
layers = (
{
background = {
shapes = (
{
closed = 1;
nodes = (
(297,0,l),
(297,563,ls),
(297,607,o),
(321,634,o),
(355,634,c),
(507,634,l),
(507,710,l),
(355,710,l),
(256,710,o),
(211,652,o),
(211,563,c),
(211,0,l)
);
},
{
closed = 1;
nodes = (
(500,424,l),
(500,500,l),
(70,500,l),
(70,424,l)
);
}
);
};
layerId = "EE2FFE84-06F1-4AFB-BBEC-60D09A436D14";
shapes = (
{
closed = 1;
nodes = (
(271,0,l),
(271,603,ls),
(271,653,o),
(301,683,o),
(349,683,cs),
(494,683,l),
(494,710,l),
(353,710,ls),
(284,710,o),
(241,667,o),
(241,598,cs),
(241,0,l)
);
},
{
closed = 1;
nodes = (
(494,470,l),
(494,500,l),
(80,500,l),
(80,470,l)
);
}
);
width = 600;
},
{
layerId = "574EE4B9-5C1A-4E7E-9985-C08FACB65BD8";
shapes = (
{
closed = 1;
nodes = (
(296,0,l),
(296,564,ls),
(296,609,o),
(320,636,o),
(355,636,cs),
(507,636,l),
(507,710,l),
(355,710,ls),
(257,710,o),
(212,653,o),
(212,564,cs),
(212,0,l)
);
},
{
closed = 1;
nodes = (
(500,426,l),
(500,500,l),
(70,500,l),
(70,426,l)
);
}
);
width = 600;
},
{
layerId = "58B1DC7A-69F8-4375-AD2E-AC5103CCF536";
shapes = (
{
closed = 1;
nodes = (
(334,0,l),
(334,525,ls),
(334,562,o),
(355,585,o),
(388,585,cs),
(523,585,l),
(523,710,l),
(402,710,ls),
(257,710,o),
(193,647,o),
(193,514,cs),
(193,0,l)
);
},
{
closed = 1;
nodes = (
(515,354,l),
(515,479,l),
(59,479,l),
(59,354,l)
);
}
);
width = 600;
}
);
unicode = 102;
},
{
color = 4;
glyphname = g;
kernLeft = "0";
kernRight = "0";
lastChange = "2023-11-09 14:20:38 +0000";
layers = (
{
anchors = (
{
name = top;
pos = (291,530);
}
);
background = {
shapes = (
{
closed = 1;
nodes = (
(291,28,o),
(361,70,o),
(386,154,c),
(372,154,l),
(372,32,ls),
(372,-41,o),
(316,-80,o),
(223,-80,cs),
(142,-80,o),
(93,-35,o),
(79,38,c),
(115,0,l),
(-25,-10,l),
(-7,37,l),
(1,-80,o),
(92,-162,o),
(223,-162,cs),
(362,-162,o),
(458,-88,o),
(458,52,cs),
(458,530,l),
(376,530,l),
(376,406,l),
(386,406,l),
(379,485,o),
(312,542,o),
(226,542,cs),
(83,542,o),
(-13,434,o),
(-13,285,cs),
(-13,136,o),
(80,28,o),
(226,28,cs)
);
},
{
closed = 1;
nodes = (
(77,387,o),
(133,460,o),
(226,460,cs),
(319,460,o),
(375,387,o),
(373,285,cs),
(372,183,o),
(316,110,o),
(226,110,cs),
(133,110,o),
(77,183,o),
(77,285,cs)
);
}
);
};
layerId = "EE2FFE84-06F1-4AFB-BBEC-60D09A436D14";
shapes = (
{
closed = 1;
nodes = (
(369,25,o),
(441,78,o),
(475,159,c),
(475,57,ls),
(475,-59,o),
(405,-133,o),
(296,-133,cs),
(202,-133,o),
(133,-80,o),
(128,-4,c),
(96,-6,l),
(96,-94,o),
(184,-163,o),
(296,-163,cs),
(424,-163,o),
(505,-78,o),
(505,57,cs),
(505,530,l),
(475,530,l),
(475,402,l),
(447,482,o),
(371,539,o),
(291,539,cs),
(155,539,o),
(70,433,o),
(70,285,cs),
(70,132,o),
(155,25,o),
(291,25,cs)
);
},
{
closed = 1;
nodes = (
(102,415,o),
(175,509,o),
(291,509,cs),
(396,509,o),
(478,402,o),
(478,285,cs),
(478,163,o),
(396,55,o),
(291,55,cs),
(175,55,o),
(102,150,o),
(102,285,cs)
);
}
);
width = 600;
},
{
anchors = (
{
name = top;
pos = (298,530);
}
);
layerId = "574EE4B9-5C1A-4E7E-9985-C08FACB65BD8";
shapes = (
{
closed = 1;
nodes = (
(353,28,o),
(417,66,o),
(445,120,c),
(445,33,ls),
(445,-42,o),
(389,-82,o),
(295,-82,cs),
(229,-82,o),
(183,-52,o),
(162,-2,c),
(74,-8,l),
(98,-101,o),
(182,-162,o),
(295,-162,cs),
(434,-162,o),
(529,-88,o),
(529,52,cs),
(529,530,l),
(449,530,l),
(449,446,l),
(426,502,o),
(359,542,o),
(288,542,cs),
(154,542,o),
(59,436,o),
(59,285,cs),
(59,134,o),
(154,28,o),
(288,28,cs)
);
},
{
closed = 1;
nodes = (
(147,388,o),
(204,462,o),
(298,462,cs),
(391,462,o),
(448,388,o),
(446,285,cs),
(445,182,o),
(388,108,o),
(298,108,cs),
(204,108,o),
(147,182,o),
(147,285,cs)
);
}
);
width = 600;
},
{
anchors = (
{
name = top;
pos = (311,530);
}
);
layerId = "58B1DC7A-69F8-4375-AD2E-AC5103CCF536";
shapes = (
{
closed = 1;
nodes = (
(324,28,o),
(384,59,o),
(408,104,c),
(408,58,ls),
(406,-16,o),
(372,-56,o),
(314,-56,cs),
(272,-56,o),
(242,-36,o),
(228,-1,c),
(80,-11,l),
(104,-103,o),
(186,-162,o),
(314,-162,cs),
(468,-162,o),
(546,-84,o),
(550,84,cs),
(550,530,l),
(413,530,l),
(410,450,l),
(382,508,o),
(333,542,o),
(264,542,cs),
(143,542,o),
(60,435,o),
(60,271,cs),
(60,128,o),
(145,28,o),
(264,28,cs)
);
},
{
closed = 1;
nodes = (
(210,363,o),
(250,422,o),
(314,422,cs),
(377,422,o),
(417,363,o),
(416,274,cs),
(416,184,o),
(377,125,o),
(314,125,cs),
(250,125,o),
(210,184,o),
(210,274,cs)
);
}
);
width = 600;
}
);
unicode = 103;
},
{
glyphname = gstroke;
lastChange = "2023-11-09 14:20:38 +0000";
layers = (
{
layerId = "EE2FFE84-06F1-4AFB-BBEC-60D09A436D14";
shapes = (
{
ref = g;
},
{
closed = 1;
nodes = (
(295,267,l),
(572,267,l),
(572,297,l),
(295,297,l)
);
}
);
width = 600;
},
{
layerId = "574EE4B9-5C1A-4E7E-9985-C08FACB65BD8";
shapes = (
{
alignment = -1;
ref = g;
},
{
closed = 1;
nodes = (
(295,245,l),
(582,245,l),
(582,319,l),
(295,319,l)
);
}
);
width = 600;
},
{
layerId = "58B1DC7A-69F8-4375-AD2E-AC5103CCF536";
shapes = (
{
alignment = -1;
pos = (-7,0);
ref = g;
},
{
closed = 1;
nodes = (
(295,223,l),
(589,223,l),
(589,313,l),
(295,313,l)
);
}
);
width = 600;
}
);
unicode = 485;
},
{
glyphname = h;
kernLeft = "0";
kernRight = "0";
lastChange = "2023-11-09 14:20:38 +0000";
layers = (
{
anchors = (
{
name = top;
pos = (135,710);
}
);
background = {
shapes = (
{
closed = 1;
nodes = (
(-18,0,l),
(68,0,l),
(68,317,ls),
(68,414,o),
(123,466,o),
(207,466,cs),
(286,466,o),
(318,414,o),
(318,317,cs),
(318,0,l),
(404,0,l),
(404,341,ls),
(404,453,o),
(346,542,o),
(225,542,cs),
(142,542,o),
(73,500,o),
(53,407,c),
(64,395,l),
(60,530,l),
(-18,530,l)
);
}
);
};
layerId = "EE2FFE84-06F1-4AFB-BBEC-60D09A436D14";
shapes = (
{
closed = 1;
nodes = (
(120,0,l),
(150,0,l),
(150,317,ls),
(150,431,o),
(213,512,o),
(324,512,cs),
(433,512,o),
(476,432,o),
(476,317,cs),
(476,0,l),
(506,0,l),
(506,341,ls),
(506,453,o),
(447,542,o),
(332,542,cs),
(236,542,o),
(153,494,o),
(146,385,c),
(150,385,l),
(150,710,l),
(120,710,l)
);
}
);
width = 600;
},
{
anchors = (
{
name = top;
pos = (143,710);
}
);
layerId = "574EE4B9-5C1A-4E7E-9985-C08FACB65BD8";
shapes = (
{
closed = 1;
nodes = (
(101,0,l),
(185,0,l),
(185,311,ls),
(185,409,o),
(240,462,o),
(325,462,cs),
(405,462,o),
(437,409,o),
(437,311,cs),
(437,0,l),
(521,0,l),
(521,341,ls),
(521,453,o),
(463,542,o),
(343,542,cs),
(267,542,o),
(196,507,o),
(172,428,c),
(185,413,l),
(185,710,l),
(101,710,l)
);
}
);
width = 600;
},
{
anchors = (
{
name = top;
pos = (164,710);
}
);
layerId = "58B1DC7A-69F8-4375-AD2E-AC5103CCF536";
shapes = (
{
closed = 1;
nodes = (
(93,0,l),
(234,0,l),
(234,312,ls),
(234,392,o),
(264,432,o),
(315,432,cs),
(366,432,o),
(389,392,o),
(389,312,cs),
(389,0,l),
(533,0,l),
(533,341,ls),
(533,465,o),
(477,542,o),
(370,542,cs),
(300,542,o),
(245,506,o),
(221,434,c),
(234,419,l),
(234,710,l),
(93,710,l)
);
}
);
width = 600;
}
);
unicode = 104;
},
{
glyphname = hbar;
kernLeft = "0";
kernRight = "0";
lastChange = "2023-11-15 19:39:50 +0000";
layers = (
{
layerId = "EE2FFE84-06F1-4AFB-BBEC-60D09A436D14";
shapes = (
{
ref = h;
},
{
closed = 1;
nodes = (
(25,606,l),
(269,606,l),
(269,636,l),
(25,636,l)
);
}
);
width = 600;
},
{
layerId = "574EE4B9-5C1A-4E7E-9985-C08FACB65BD8";
shapes = (
{
alignment = -1;
ref = h;
},
{
closed = 1;
nodes = (
(25,584,l),
(279,584,l),
(279,658,l),
(25,658,l)
);
}
);
width = 600;
},
{
layerId = "58B1DC7A-69F8-4375-AD2E-AC5103CCF536";
shapes = (
{
alignment = -1;
pos = (16,0);
ref = h;
},
{
closed = 1;
nodes = (
(7,569,l),
(373,569,l),
(373,661,l),
(7,661,l)
);
}
);
width = 600;
}
);
unicode = 295;
},
{
glyphname = idotless;
kernLeft = "0";
kernRight = "0";
lastChange = "2023-11-09 14:20:38 +0000";
layers = (
{
anchors = (
{
name = ogonek;
pos = (539,0);
},
{
name = top;
pos = (335,530);
}
);
layerId = "EE2FFE84-06F1-4AFB-BBEC-60D09A436D14";
shapes = (
{
closed = 1;
nodes = (
(319,0,l),
(351,0,l),
(351,530,l),
(319,530,l)
);
},
{
closed = 1;
nodes = (
(122,500,l),
(351,500,l),
(351,530,l),
(122,530,l)
);
},
{
closed = 1;
nodes = (
(102,0,l),
(539,0,l),
(539,30,l),
(102,30,l)
);
}
);
width = 600;
},
{
anchors = (
{
name = ogonek;
pos = (558,0);
},
{
name = top;
pos = (330,530);
}
);
layerId = "574EE4B9-5C1A-4E7E-9985-C08FACB65BD8";
shapes = (
{
closed = 1;
nodes = (
(293,0,l),
(377,0,l),
(377,530,l),
(293,530,l)
);
},
{
closed = 1;
nodes = (
(103,456,l),
(377,456,l),
(377,530,l),
(103,530,l)
);
},
{
closed = 1;
nodes = (
(83,0,l),
(558,0,l),
(558,74,l),
(83,74,l)
);
}
);
width = 600;
},
{
anchors = (
{
name = ogonek;
pos = (566,0);
},
{
name = top;
pos = (334,530);
}
);
layerId = "58B1DC7A-69F8-4375-AD2E-AC5103CCF536";
shapes = (
{
closed = 1;
nodes = (
(264,0,l),
(406,0,l),
(406,530,l),
(264,530,l)
);
},
{
closed = 1;
nodes = (
(88,405,l),
(378,405,l),
(378,530,l),
(88,530,l)
);
},
{
closed = 1;
nodes = (
(75,0,l),
(566,0,l),
(566,125,l),
(75,125,l)
);
}
);
width = 600;
}
);
unicode = 305;
},
{
glyphname = jdotless;
kernLeft = "0";
kernRight = "0";
lastChange = "2023-11-09 14:20:38 +0000";
layers = (
{
anchors = (
{
name = top;
pos = (395,530);
}
);
background = {
anchors = (
{
name = top;
pos = (427,500);
}
);
shapes = (
{
closed = 1;
nodes = (
(384,500,l),
(384,0,ls),
(384,-43,o),
(361,-74,o),
(326,-74,cs),
(144,-74,l),
(144,-150,l),
(336,-150,ls),
(425,-150,o),
(470,-89,o),
(470,0,cs),
(470,500,l)
);
},
{
closed = 1;
nodes = (
(145,424,l),
(433,424,l),
(433,500,l),
(145,500,l)
);
}
);
};
layerId = "EE2FFE84-06F1-4AFB-BBEC-60D09A436D14";
shapes = (
{
closed = 1;
nodes = (
(380,530,l),
(380,0,ls),
(380,-77,o),
(346,-120,o),
(286,-120,cs),
(140,-120,l),
(140,-150,l),
(286,-150,ls),
(366,-150,o),
(410,-96,o),
(410,0,cs),
(410,530,l)
);
},
{
closed = 1;
nodes = (
(140,500,l),
(403,500,l),
(403,530,l),
(140,530,l)
);
}
);
width = 600;
},
{
anchors = (
{
name = top;
pos = (392,530);
}
);
layerId = "574EE4B9-5C1A-4E7E-9985-C08FACB65BD8";
shapes = (
{
closed = 1;
nodes = (
(355,530,l),
(355,0,ls),
(355,-44,o),
(332,-76,o),
(296,-76,cs),
(115,-76,l),
(115,-150,l),
(305,-150,ls),
(394,-150,o),
(439,-89,o),
(439,0,cs),
(439,530,l)
);
},
{
closed = 1;
nodes = (
(116,456,l),
(403,456,l),
(403,530,l),
(116,530,l)
);
}
);
width = 600;
},
{
anchors = (
{
name = top;
pos = (403,530);
}
);
layerId = "58B1DC7A-69F8-4375-AD2E-AC5103CCF536";
shapes = (
{
closed = 1;
nodes = (
(330,530,l),
(330,64,ls),
(330,9,o),
(303,-25,o),
(257,-25,cs),
(100,-25,l),
(100,-150,l),
(280,-150,ls),
(399,-150,o),
(471,-66,o),
(471,64,cs),
(471,530,l)
);
},
{
closed = 1;
nodes = (
(101,405,l),
(410,405,l),
(410,530,l),
(101,530,l)
);
}
);
width = 600;
}
);
unicode = 567;
},
{
glyphname = k;
kernLeft = "0";
kernRight = "0";
lastChange = "2023-11-09 14:20:38 +0000";
layers = (
{
anchors = (
{
name = bottom;
pos = (328,0);
},
{
name = top;
pos = (129,710);
}
);
background = {
shapes = (
{
closed = 1;
nodes = (
(-18,0,l),
(68,0,l),
(68,710,l),
(-18,710,l)
);
},
{
closed = 1;
nodes = (
(446,0,l),
(223,314,l),
(204,278,l),
(436,530,l),
(319,530,l),
(14,186,l),
(14,59,l),
(190,265,l),
(158,265,l),
(340,0,l)
);
}
);
};
layerId = "EE2FFE84-06F1-4AFB-BBEC-60D09A436D14";
shapes = (
{
closed = 1;
nodes = (
(114,0,l),
(144,0,l),
(144,156,l),
(274,283,l),
(513,0,l),
(550,0,l),
(294,301,l),
(530,530,l),
(488,530,l),
(144,195,l),
(144,710,l),
(114,710,l)
);
}
);
width = 600;
},
{
anchors = (
{
name = bottom;
pos = (274,0);
},
{
name = top;
pos = (274,530);
}
);
associatedMasterId = "EE2FFE84-06F1-4AFB-BBEC-60D09A436D14";
background = {
shapes = (
{
closed = 1;
nodes = (
(42,0,l),
(128,0,l),
(128,710,l),
(42,710,l)
);
},
{
closed = 1;
nodes = (
(506,0,l),
(283,314,l),
(264,278,l),
(496,530,l),
(379,530,l),
(74,186,l),
(74,59,l),
(250,265,l),
(218,265,l),
(400,0,l)
);
}
);
};
layerId = "057BC141-43A0-44B5-9F16-EF09775895DB";
name = "24 de feb. de 23 10:41";
shapes = (
{
closed = 1;
nodes = (
(60,0,l),
(90,0,l),
(90,710,l),
(60,710,l)
);
},
{
closed = 1;
nodes = (
(476,530,l),
(434,530,l),
(74,179,l),
(74,141,l)
);
},
{
closed = 1;
nodes = (
(211,294,l),
(459,0,l),
(496,0,l),
(229,314,l)
);
}
);
width = 536;
},
{
anchors = (
{
name = bottom;
pos = (309,0);
},
{
name = top;
pos = (133,710);
}
);
layerId = "574EE4B9-5C1A-4E7E-9985-C08FACB65BD8";
shapes = (
{
closed = 1;
nodes = (
(91,0,l),
(175,0,l),
(175,123,l),
(280,245,l),
(450,0,l),
(554,0,l),
(336,305,l),
(544,530,l),
(429,530,l),
(175,245,l),
(175,710,l),
(91,710,l)
);
}
);
width = 600;
},
{
anchors = (
{
name = bottom;
pos = (298,0);
},
{
name = top;
pos = (129,710);
}
);
layerId = "58B1DC7A-69F8-4375-AD2E-AC5103CCF536";
shapes = (
{
closed = 1;
nodes = (
(58,0,l),
(199,0,l),
(199,134,l),
(259,204,l),
(400,0,l),
(572,0,l),
(354,306,l),
(560,530,l),
(371,530,l),
(199,336,l),
(199,710,l),
(58,710,l)
);
}
);
width = 600;
}
);
unicode = 107;
},
{
glyphname = l;
kernLeft = "0";
kernRight = "0";
lastChange = "2023-11-09 14:20:38 +0000";
layers = (
{
anchors = (
{
name = bottom;
pos = (336,0);
},
{
name = top;
pos = (335,710);
}
);
associatedMasterId = "EE2FFE84-06F1-4AFB-BBEC-60D09A436D14";
background = {
shapes = (
{
closed = 1;
nodes = (
(-26,104,l),
(-26,42,o),
(16,0,o),
(78,0,c),
(138,0,l),
(138,76,l),
(92,76,l),
(70,76,o),
(60,86,o),
(60,108,cs),
(60,710,l),
(-26,710,l)
);
}
);
};
layerId = "EEC4434F-1B6B-4D75-BA9C-C3744B1E8359";
name = "10 de may. de 23 10:57";
shapes = (
{
closed = 1;
nodes = (
(321,0,l),
(351,0,l),
(351,710,l),
(321,710,l)
);
},
{
closed = 1;
nodes = (
(122,0,l),
(519,0,l),
(519,30,l),
(122,30,l)
);
},
{
closed = 1;
nodes = (
(122,680,l),
(339,680,l),
(339,710,l),
(122,710,l)
);
}
);
width = 600;
},
{
anchors = (
{
name = bottom;
pos = (326,0);
},
{
name = top;
pos = (326,710);
}
);
background = {
shapes = (
{
ref = i;
}
);
};
layerId = "EE2FFE84-06F1-4AFB-BBEC-60D09A436D14";
name = Thin;
shapes = (
{
closed = 1;
nodes = (
(102,0,l),
(539,0,l),
(539,30,l),
(102,30,l)
);
},
{
closed = 1;
nodes = (
(341,613,ls),
(341,680,o),
(311,710,o),
(243,710,cs),
(131,710,l),
(131,683,l),
(243,683,ls),
(292,683,o),
(311,664,o),
(311,613,cs),
(311,0,l),
(341,0,l)
);
}
);
width = 600;
},
{
anchors = (
{
name = bottom;
pos = (330,0);
},
{
name = top;
pos = (330,710);
}
);
layerId = "574EE4B9-5C1A-4E7E-9985-C08FACB65BD8";
name = Thin;
shapes = (
{
closed = 1;
nodes = (
(83,0,l),
(558,0,l),
(558,74,l),
(83,74,l)
);
},
{
closed = 1;
nodes = (
(372,574,ls),
(372,662,o),
(321,710,o),
(229,710,cs),
(103,710,l),
(103,636,l),
(229,636,ls),
(270,636,o),
(288,617,o),
(288,574,cs),
(288,0,l),
(372,0,l)
);
}
);
width = 600;
},
{
anchors = (
{
name = bottom;
pos = (326,0);
},
{
name = top;
pos = (326,710);
}
);
layerId = "58B1DC7A-69F8-4375-AD2E-AC5103CCF536";
name = Thin;
shapes = (
{
closed = 1;
nodes = (
(75,0,l),
(559,0,l),
(559,125,l),
(75,125,l)
);
},
{
closed = 1;
nodes = (
(398,528,ls),
(398,649,o),
(332,710,o),
(203,710,cs),
(82,710,l),
(82,585,l),
(203,585,ls),
(240,585,o),
(257,566,o),
(257,528,cs),
(257,0,l),
(398,0,l)
);
}
);
width = 600;
}
);
unicode = 108;
},
{
glyphname = lcaron;
kernLeft = "0";
kernRight = "0";
lastChange = "2023-11-09 14:20:38 +0000";
layers = (
{
background = {
shapes = (
{
closed = 1;
nodes = (
(33,710,l),
(33,402,l),
(5,482,o),
(-71,539,o),
(-151,539,cs),
(-287,539,o),
(-372,433,o),
(-372,265,cs),
(-372,95,o),
(-287,-12,o),
(-151,-12,cs),
(-71,-12,o),
(2,43,o),
(38,130,c),
(41,0,l),
(63,0,l),
(63,710,l)
);
},
{
closed = 1;
nodes = (
(36,126,o),
(-46,17,o),
(-151,17,cs),
(-267,17,o),
(-340,113,o),
(-340,265,cs),
(-340,415,o),
(-267,509,o),
(-151,509,cs),
(-46,509,o),
(36,402,o),
(36,265,cs)
);
},
{
pos = (82,0);
ref = caroncomb.alt;
}
);
};
layerId = "EE2FFE84-06F1-4AFB-BBEC-60D09A436D14";
shapes = (
{
alignment = -1;
ref = l;
},
{
alignment = 1;
pos = (154,0);
ref = quoteright;
}
);
width = 600;
},
{
layerId = "574EE4B9-5C1A-4E7E-9985-C08FACB65BD8";
shapes = (
{
alignment = -1;
ref = l;
},
{
alignment = -1;
pos = (197,0);
ref = quoteright;
}
);
width = 600;
},
{
layerId = "58B1DC7A-69F8-4375-AD2E-AC5103CCF536";
shapes = (
{
alignment = -1;
pos = (-14,0);
ref = l;
},
{
alignment = -1;
pos = (197,0);
ref = quoteright;
}
);
width = 600;
}
);
unicode = 318;
},
{
glyphname = lslash;
kernLeft = "0";
kernRight = "0";
lastChange = "2023-11-09 14:20:38 +0000";
layers = (
{
layerId = "EE2FFE84-06F1-4AFB-BBEC-60D09A436D14";
shapes = (
{
pos = (64,0);
ref = l;
},
{
closed = 1;
nodes = (
(293,323,l),
(519,427,l),
(506,454,l),
(280,350,l)
);
}
);
width = 600;
},
{
layerId = "574EE4B9-5C1A-4E7E-9985-C08FACB65BD8";
shapes = (
{
alignment = -1;
pos = (20,0);
ref = l;
},
{
closed = 1;
nodes = (
(258,304,l),
(484,408,l),
(453,475,l),
(227,371,l)
);
}
);
width = 600;
},
{
layerId = "58B1DC7A-69F8-4375-AD2E-AC5103CCF536";
shapes = (
{
alignment = -1;
pos = (6,0);
ref = l;
},
{
closed = 1;
nodes = (
(185,302,l),
(518,403,l),
(491,488,l),
(158,387,l)
);
}
);
width = 600;
}
);
unicode = 322;
},
{
glyphname = m;
kernLeft = "0";
kernRight = "0";
lastChange = "2023-11-09 14:20:38 +0000";
layers = (
{
anchors = (
{
name = bottom;
pos = (303,0);
},
{
name = top;
pos = (309,530);
}
);
background = {
shapes = (
{
closed = 1;
nodes = (
(47,0,l),
(133,0,l),
(133,317,ls),
(133,417,o),
(155,466,o),
(198,466,cs),
(245,466,o),
(260,429,o),
(260,317,cs),
(260,0,l),
(346,0,l),
(346,317,ls),
(346,417,o),
(370,466,o),
(418,466,cs),
(459,466,o),
(473,429,o),
(473,317,cs),
(473,0,l),
(559,0,l),
(559,341,ls),
(559,470,o),
(513,542,o),
(433,542,cs),
(382,542,o),
(348,515,o),
(327,444,c),
(311,507,o),
(274,542,o),
(227,542,cs),
(181,542,o),
(150,518,o),
(128,458,c),
(125,530,l),
(47,530,l)
);
}
);
};
layerId = "EE2FFE84-06F1-4AFB-BBEC-60D09A436D14";
shapes = (
{
closed = 1;
nodes = (
(58,0,l),
(88,0,l),
(88,333,ls),
(88,433,o),
(138,512,o),
(202,512,cs),
(260,512,o),
(288,437,o),
(288,333,cs),
(288,0,l),
(318,0,l),
(318,333,ls),
(318,433,o),
(368,512,o),
(432,512,cs),
(494,512,o),
(518,462,o),
(518,333,cs),
(518,0,l),
(548,0,l),
(548,333,ls),
(548,478,o),
(513,542,o),
(434,542,cs),
(373,542,o),
(331,497,o),
(309,409,c),
(295,497,o),
(262,542,o),
(207,542,cs),
(149,542,o),
(110,505,o),
(88,430,c),
(86,530,l),
(58,530,l)
);
}
);
width = 600;
},
{
associatedMasterId = "EE2FFE84-06F1-4AFB-BBEC-60D09A436D14";
background = {
shapes = (
{
closed = 1;
nodes = (
(11,0,l),
(97,0,l),
(97,317,ls),
(97,410,o),
(145,466,o),
(226,466,cs),
(289,466,o),
(327,410,o),
(327,317,cs),
(327,0,l),
(413,0,l),
(413,317,ls),
(413,412,o),
(460,466,o),
(542,466,cs),
(606,466,o),
(643,412,o),
(643,317,cs),
(643,0,l),
(729,0,l),
(729,341,ls),
(729,469,o),
(667,542,o),
(560,542,cs),
(465,542,o),
(407,491,o),
(391,400,c),
(407,399,l),
(392,489,o),
(332,542,o),
(244,542,cs),
(159,542,o),
(100,494,o),
(83,410,c),
(94,397,l),
(89,530,l),
(11,530,l)
);
}
);
};
layerId = "09ED80C9-A39B-4FA7-92C4-302824AFB0B4";
name = "8 de feb. de 23 15:09";
shapes = (
{
closed = 1;
nodes = (
(40,0,l),
(70,0,l),
(70,317,ls),
(70,426,o),
(142,512,o),
(235,512,cs),
(314,512,o),
(360,437,o),
(360,317,cs),
(360,0,l),
(390,0,l),
(390,341,ls),
(390,459,o),
(327,542,o),
(238,542,cs),
(154,542,o),
(88,488,o),
(70,415,c),
(68,530,l),
(40,530,l)
);
},
{
closed = 1;
nodes = (
(390,308,l),
(390,422,o),
(462,512,o),
(554,512,cs),
(635,512,o),
(686,436,o),
(686,314,cs),
(686,0,l),
(716,0,l),
(716,338,ls),
(716,458,o),
(651,542,o),
(558,542,cs),
(473,542,o),
(406,486,o),
(384,397,c)
);
}
);
width = 756;
},
{
anchors = (
{
name = bottom;
pos = (303,0);
},
{
name = top;
pos = (303,530);
}
);
associatedMasterId = "EE2FFE84-06F1-4AFB-BBEC-60D09A436D14";
background = {
shapes = (
{
closed = 1;
nodes = (
(47,0,l),
(133,0,l),
(133,317,ls),
(133,417,o),
(155,466,o),
(198,466,cs),
(245,466,o),
(260,429,o),
(260,317,cs),
(260,0,l),
(346,0,l),
(346,317,ls),
(346,417,o),
(370,466,o),
(418,466,cs),
(459,466,o),
(473,429,o),
(473,317,cs),
(473,0,l),
(559,0,l),
(559,341,ls),
(559,470,o),
(513,542,o),
(433,542,cs),
(382,542,o),
(348,515,o),
(327,444,c),
(311,507,o),
(274,542,o),
(227,542,cs),
(181,542,o),
(150,518,o),
(128,458,c),
(125,530,l),
(47,530,l)
);
}
);
};
layerId = "1104E8F9-B2E6-49B0-9F47-FFD2C3FAC9ED";
name = "2 de jul. de 23 17:28";
shapes = (
{
closed = 1;
nodes = (
(58,0,l),
(88,0,l),
(88,317,ls),
(88,426,o),
(136,512,o),
(195,512,cs),
(253,512,o),
(288,437,o),
(288,317,cs),
(288,0,l),
(318,0,l),
(318,308,ls),
(318,428,o),
(364,512,o),
(425,512,cs),
(492,512,o),
(518,452,o),
(518,314,cs),
(518,0,l),
(548,0,l),
(548,338,ls),
(548,474,o),
(508,542,o),
(426,542,cs),
(370,542,o),
(331,497,o),
(309,407,c),
(289,497,o),
(252,542,o),
(199,542,cs),
(145,542,o),
(111,506,o),
(88,425,c),
(86,530,l),
(58,530,l)
);
}
);
width = 600;
},
{
anchors = (
{
name = bottom;
pos = (303,0);
},
{
name = top;
pos = (326,530);
}
);
layerId = "574EE4B9-5C1A-4E7E-9985-C08FACB65BD8";
shapes = (
{
closed = 1;
nodes = (
(47,0,l),
(132,0,l),
(132,318,ls),
(132,414,o),
(157,468,o),
(198,468,cs),
(244,468,o),
(261,425,o),
(261,318,cs),
(261,0,l),
(345,0,l),
(345,318,ls),
(345,414,o),
(372,468,o),
(418,468,cs),
(459,468,o),
(475,426,o),
(475,318,cs),
(475,0,l),
(559,0,l),
(559,318,ls),
(559,474,o),
(524,542,o),
(443,542,cs),
(388,542,o),
(345,504,o),
(326,443,c),
(310,512,o),
(282,542,o),
(236,542,cs),
(183,542,o),
(147,512,o),
(127,457,c),
(124,530,l),
(47,530,l)
);
}
);
width = 600;
},
{
anchors = (
{
name = bottom;
pos = (301,0);
},
{
name = top;
pos = (325,530);
}
);
layerId = "58B1DC7A-69F8-4375-AD2E-AC5103CCF536";
shapes = (
{
closed = 1;
nodes = (
(24,0,l),
(161,0,l),
(161,346,ls),
(161,408,o),
(173,434,o),
(198,434,cs),
(223,434,o),
(232,411,o),
(232,346,cs),
(232,0,l),
(369,0,l),
(369,346,ls),
(369,408,o),
(382,434,o),
(409,434,cs),
(433,434,o),
(441,411,o),
(441,346,cs),
(441,0,l),
(578,0,l),
(578,346,ls),
(578,471,o),
(535,542,o),
(455,542,cs),
(403,542,o),
(371,511,o),
(352,452,c),
(334,513,o),
(301,542,o),
(251,542,cs),
(204,542,o),
(168,513,o),
(147,456,c),
(143,530,l),
(24,530,l)
);
}
);
width = 600;
}
);
unicode = 109;
},
{
glyphname = n;
kernLeft = "0";
kernRight = "0";
lastChange = "2023-11-09 14:20:38 +0000";
layers = (
{
anchors = (
{
name = bottom;
pos = (303,0);
},
{
name = top;
pos = (303,530);
}
);
background = {
shapes = (
{
closed = 1;
nodes = (
(109,0,l),
(195,0,l),
(195,317,ls),
(195,414,o),
(250,466,o),
(334,466,cs),
(413,466,o),
(445,414,o),
(445,317,cs),
(445,0,l),
(531,0,l),
(531,341,ls),
(531,453,o),
(473,542,o),
(352,542,cs),
(269,542,o),
(200,500,o),
(180,407,c),
(191,395,l),
(187,530,l),
(109,530,l)
);
}
);
};
layerId = "EE2FFE84-06F1-4AFB-BBEC-60D09A436D14";
shapes = (
{
closed = 1;
nodes = (
(110,0,l),
(140,0,l),
(140,317,ls),
(140,431,o),
(203,512,o),
(314,512,cs),
(423,512,o),
(466,432,o),
(466,317,cs),
(466,0,l),
(496,0,l),
(496,341,ls),
(496,453,o),
(437,542,o),
(322,542,cs),
(226,542,o),
(143,494,o),
(136,385,c),
(141,385,l),
(138,530,l),
(110,530,l)
);
}
);
width = 600;
},
{
anchors = (
{
name = bottom;
pos = (306,0);
},
{
name = top;
pos = (306,530);
}
);
layerId = "574EE4B9-5C1A-4E7E-9985-C08FACB65BD8";
shapes = (
{
closed = 1;
nodes = (
(96,0,l),
(180,0,l),
(180,317,ls),
(180,415,o),
(235,468,o),
(320,468,cs),
(400,468,o),
(432,415,o),
(432,317,cs),
(432,0,l),
(516,0,l),
(516,341,ls),
(516,453,o),
(458,542,o),
(337,542,cs),
(254,542,o),
(185,500,o),
(165,406,c),
(176,395,l),
(172,530,l),
(96,530,l)
);
}
);
width = 600;
},
{
anchors = (
{
name = bottom;
pos = (308,0);
},
{
name = top;
pos = (308,530);
}
);
layerId = "58B1DC7A-69F8-4375-AD2E-AC5103CCF536";
shapes = (
{
closed = 1;
nodes = (
(92,0,l),
(233,0,l),
(233,314,ls),
(233,394,o),
(264,434,o),
(316,434,cs),
(366,434,o),
(391,394,o),
(391,314,cs),
(391,0,l),
(532,0,l),
(532,341,ls),
(532,465,o),
(475,542,o),
(368,542,cs),
(278,542,o),
(218,480,o),
(206,364,c),
(232,361,l),
(222,530,l),
(92,530,l)
);
}
);
width = 600;
}
);
unicode = 110;
},
{
glyphname = eng;
lastChange = "2023-11-09 14:20:38 +0000";
layers = (
{
layerId = "EE2FFE84-06F1-4AFB-BBEC-60D09A436D14";
shapes = (
{
ref = n;
},
{
closed = 1;
nodes = (
(466,-30,ls),
(466,-83,o),
(428,-120,o),
(374,-120,cs),
(296,-120,l),
(296,-150,l),
(372,-150,ls),
(445,-150,o),
(496,-100,o),
(496,-30,cs),
(496,33,l),
(466,33,l)
);
}
);
width = 600;
},
{
layerId = "574EE4B9-5C1A-4E7E-9985-C08FACB65BD8";
shapes = (
{
alignment = -1;
ref = n;
},
{
closed = 1;
nodes = (
(432,-8,ls),
(432,-49,o),
(408,-76,o),
(368,-76,cs),
(285,-76,l),
(285,-150,l),
(366,-150,ls),
(459,-150,o),
(516,-94,o),
(516,-7,cs),
(516,91,l),
(432,91,l)
);
}
);
width = 600;
},
{
layerId = "58B1DC7A-69F8-4375-AD2E-AC5103CCF536";
shapes = (
{
alignment = -1;
ref = n;
},
{
closed = 1;
nodes = (
(391,-2,ls),
(391,-34,o),
(370,-52,o),
(331,-52,cs),
(282,-52,l),
(282,-150,l),
(380,-150,ls),
(470,-150,o),
(532,-92,o),
(532,-6,cs),
(532,108,l),
(391,108,l)
);
}
);
width = 600;
}
);
unicode = 331;
},
{
glyphname = o;
kernLeft = "0";
kernRight = "0";
lastChange = "2023-11-09 14:20:38 +0000";
layers = (
{
anchors = (
{
name = bottom;
pos = (300,0);
},
{
name = top;
pos = (300,530);
}
);
background = {
shapes = (
{
closed = 1;
nodes = (
(372,-12,o),
(468,96,o),
(468,265,cs),
(468,434,o),
(372,542,o),
(225,542,cs),
(78,542,o),
(-18,434,o),
(-18,265,cs),
(-18,96,o),
(78,-12,o),
(225,-12,cs)
);
},
{
closed = 1;
nodes = (
(128,70,o),
(72,143,o),
(72,265,cs),
(72,387,o),
(128,460,o),
(225,460,cs),
(322,460,o),
(378,387,o),
(378,265,cs),
(378,143,o),
(322,70,o),
(225,70,cs)
);
}
);
};
layerId = "EE2FFE84-06F1-4AFB-BBEC-60D09A436D14";
shapes = (
{
closed = 1;
nodes = (
(450,-12,o),
(525,115,o),
(525,265,cs),
(525,415,o),
(450,542,o),
(300,542,cs),
(150,542,o),
(75,415,o),
(75,265,cs),
(75,115,o),
(150,-12,o),
(300,-12,cs)
);
},
{
closed = 1;
nodes = (
(182,18,o),
(107,113,o),
(107,265,cs),
(107,417,o),
(182,512,o),
(300,512,cs),
(418,512,o),
(493,417,o),
(493,265,cs),
(493,113,o),
(418,18,o),
(300,18,cs)
);
}
);
width = 600;
},
{
anchors = (
{
name = bottom;
pos = (300,0);
},
{
name = top;
pos = (300,530);
}
);
layerId = "574EE4B9-5C1A-4E7E-9985-C08FACB65BD8";
shapes = (
{
closed = 1;
nodes = (
(447,-12,o),
(542,97,o),
(542,265,cs),
(542,433,o),
(447,542,o),
(300,542,cs),
(153,542,o),
(58,433,o),
(58,265,cs),
(58,97,o),
(153,-12,o),
(300,-12,cs)
);
},
{
closed = 1;
nodes = (
(202,68,o),
(146,142,o),
(146,265,cs),
(146,388,o),
(202,462,o),
(300,462,cs),
(398,462,o),
(454,388,o),
(454,265,cs),
(454,142,o),
(398,68,o),
(300,68,cs)
);
}
);
width = 600;
},
{
anchors = (
{
name = bottom;
pos = (300,0);
},
{
name = top;
pos = (300,530);
}
);
layerId = "58B1DC7A-69F8-4375-AD2E-AC5103CCF536";
shapes = (
{
closed = 1;
nodes = (
(448,-12,o),
(557,101,o),
(557,265,cs),
(557,429,o),
(448,542,o),
(300,542,cs),
(152,542,o),
(43,429,o),
(43,265,cs),
(43,101,o),
(152,-12,o),
(300,-12,cs)
);
},
{
closed = 1;
nodes = (
(234,111,o),
(192,170,o),
(192,265,cs),
(192,360,o),
(234,419,o),
(300,419,cs),
(366,419,o),
(408,360,o),
(408,265,cs),
(408,170,o),
(366,111,o),
(300,111,cs)
);
}
);
width = 600;
}
);
unicode = 111;
},
{
glyphname = oslash;
kernLeft = "0";
kernRight = "0";
lastChange = "2023-11-09 14:20:38 +0000";
layers = (
{
layerId = "EE2FFE84-06F1-4AFB-BBEC-60D09A436D14";
shapes = (
{
ref = o;
},
{
closed = 1;
nodes = (
(13,-12,l),
(52,-12,l),
(517,542,l),
(478,542,l)
);
}
);
width = 600;
},
{
layerId = "574EE4B9-5C1A-4E7E-9985-C08FACB65BD8";
shapes = (
{
alignment = -1;
ref = o;
},
{
closed = 1;
nodes = (
(12,-12,l),
(99,-12,l),
(564,542,l),
(477,542,l)
);
}
);
width = 600;
},
{
layerId = "58B1DC7A-69F8-4375-AD2E-AC5103CCF536";
shapes = (
{
alignment = -1;
ref = o;
},
{
closed = 1;
nodes = (
(46,-12,l),
(160,-12,l),
(594,542,l),
(480,542,l)
);
}
);
width = 600;
}
);
unicode = 248;
},
{
color = 8;
glyphname = oe;
kernLeft = "0";
kernRight = "0";
lastChange = "2023-11-09 14:20:38 +0000";
layers = (
{
layerId = "EE2FFE84-06F1-4AFB-BBEC-60D09A436D14";
shapes = (
{
closed = 1;
nodes = (
(250,-12,o),
(301,87,o),
(301,265,cs),
(301,443,o),
(250,542,o),
(160,542,cs),
(69,542,o),
(18,443,o),
(18,265,cs),
(18,87,o),
(69,-12,o),
(160,-12,cs)
);
},
{
closed = 1;
nodes = (
(89,18,o),
(50,107,o),
(50,265,cs),
(50,423,o),
(89,512,o),
(160,512,cs),
(230,512,o),
(269,423,o),
(269,265,cs),
(269,107,o),
(230,18,o),
(160,18,cs)
);
},
{
closed = 1;
nodes = (
(270,80,o),
(323,-12,o),
(431,-12,cs),
(508,-12,o),
(558,39,o),
(582,143,c),
(550,145,l),
(526,57,o),
(490,18,o),
(431,18,cs),
(343,18,o),
(304,91,o),
(302,258,c),
(583,258,l),
(583,265,l),
(583,443,o),
(528,542,o),
(431,542,cs),
(328,542,o),
(270,443,o),
(270,265,cs)
);
},
{
closed = 1;
nodes = (
(307,426,o),
(352,512,o),
(431,512,cs),
(508,512,o),
(546,432,o),
(551,288,c),
(302,288,l)
);
}
);
width = 600;
},
{
layerId = "574EE4B9-5C1A-4E7E-9985-C08FACB65BD8";
shapes = (
{
closed = 1;
nodes = (
(278,-12,o),
(342,95,o),
(342,265,cs),
(342,435,o),
(278,542,o),
(175,542,cs),
(74,542,o),
(10,435,o),
(10,265,cs),
(10,95,o),
(74,-12,o),
(175,-12,cs)
);
},
{
closed = 1;
nodes = (
(126,68,o),
(94,144,o),
(94,265,cs),
(94,386,o),
(126,462,o),
(175,462,cs),
(226,462,o),
(257,386,o),
(257,265,cs),
(257,144,o),
(226,68,o),
(175,68,cs)
);
},
{
closed = 1;
nodes = (
(257,87,o),
(318,-12,o),
(428,-12,cs),
(517,-12,o),
(560,33,o),
(585,150,c),
(500,157,l),
(487,93,o),
(467,68,o),
(428,68,cs),
(378,68,o),
(347,129,o),
(342,239,c),
(591,239,l),
(590,277,l),
(584,454,o),
(531,542,o),
(428,542,cs),
(318,542,o),
(257,443,o),
(257,265,cs)
);
},
{
closed = 1;
nodes = (
(351,412,o),
(377,462,o),
(423,462,cs),
(470,462,o),
(497,413,o),
(504,313,c),
(343,313,l)
);
}
);
width = 600;
},
{
layerId = "58B1DC7A-69F8-4375-AD2E-AC5103CCF536";
shapes = (
{
closed = 1;
nodes = (
(285,-12,o),
(351,95,o),
(351,265,cs),
(351,435,o),
(285,542,o),
(179,542,cs),
(74,542,o),
(8,435,o),
(8,265,cs),
(8,95,o),
(74,-12,o),
(179,-12,cs)
);
},
{
closed = 1;
nodes = (
(145,111,o),
(125,165,o),
(125,265,cs),
(125,365,o),
(145,419,o),
(179,419,cs),
(212,419,o),
(231,365,o),
(231,265,cs),
(231,165,o),
(212,111,o),
(179,111,cs)
);
},
{
closed = 1;
nodes = (
(233,93,o),
(302,-12,o),
(414,-12,cs),
(503,-12,o),
(566,54,o),
(587,166,c),
(469,181,l),
(458,129,o),
(440,111,o),
(414,111,cs),
(380,111,o),
(354,153,o),
(353,233,c),
(593,233,l),
(593,263,l),
(591,453,o),
(512,542,o),
(414,542,cs),
(302,542,o),
(233,437,o),
(233,265,cs)
);
},
{
closed = 1;
nodes = (
(360,385,o),
(381,419,o),
(413,419,cs),
(446,419,o),
(467,385,o),
(471,321,c),
(356,321,l)
);
}
);
width = 600;
}
);
unicode = 339;
},
{
color = 4;
glyphname = p;
kernLeft = "0";
kernRight = "0";
lastChange = "2023-11-09 14:20:38 +0000";
layers = (
{
background = {
shapes = (
{
closed = 1;
nodes = (
(66,-150,l),
(66,112,l),
(54,98,l),
(79,26,o),
(138,-12,o),
(223,-12,cs),
(382,-12,o),
(452,120,o),
(452,265,cs),
(452,410,o),
(382,542,o),
(223,542,cs),
(138,542,o),
(79,504,o),
(53,435,c),
(62,418,l),
(58,530,l),
(-20,530,l),
(-20,-150,l)
);
},
{
closed = 1;
nodes = (
(56,363,o),
(100,460,o),
(208,460,cs),
(317,460,o),
(360,364,o),
(360,265,cs),
(360,166,o),
(317,70,o),
(208,70,cs),
(100,70,o),
(56,167,o),
(56,265,cs)
);
}
);
};
layerId = "EE2FFE84-06F1-4AFB-BBEC-60D09A436D14";
shapes = (
{
closed = 1;
nodes = (
(120,-150,l),
(120,173,l),
(112,158,l),
(129,63,o),
(214,-9,o),
(304,-9,cs),
(440,-9,o),
(525,97,o),
(525,265,cs),
(525,435,o),
(440,542,o),
(304,542,cs),
(214,542,o),
(134,473,o),
(104,367,c),
(116,355,l),
(112,530,l),
(90,530,l),
(90,-150,l)
);
},
{
closed = 1;
nodes = (
(117,404,o),
(199,513,o),
(304,513,cs),
(420,513,o),
(493,417,o),
(493,265,cs),
(493,115,o),
(420,21,o),
(304,21,cs),
(199,21,o),
(117,128,o),
(117,265,cs)
);
}
);
width = 600;
},
{
layerId = "574EE4B9-5C1A-4E7E-9985-C08FACB65BD8";
shapes = (
{
closed = 1;
nodes = (
(164,-150,l),
(164,114,l),
(153,100,l),
(177,27,o),
(237,-12,o),
(322,-12,cs),
(481,-12,o),
(551,119,o),
(551,265,cs),
(551,411,o),
(481,542,o),
(322,542,cs),
(237,542,o),
(178,503,o),
(151,433,c),
(160,416,l),
(156,530,l),
(80,530,l),
(80,-150,l)
);
},
{
closed = 1;
nodes = (
(155,364,o),
(200,462,o),
(308,462,cs),
(417,462,o),
(461,366,o),
(461,265,cs),
(461,164,o),
(417,68,o),
(308,68,cs),
(200,68,o),
(155,166,o),
(155,265,cs)
);
}
);
width = 600;
},
{
layerId = "58B1DC7A-69F8-4375-AD2E-AC5103CCF536";
shapes = (
{
closed = 1;
nodes = (
(208,-150,l),
(208,121,l),
(192,108,l),
(226,31,o),
(276,-12,o),
(353,-12,cs),
(480,-12,o),
(556,102,o),
(556,265,cs),
(556,428,o),
(480,542,o),
(353,542,cs),
(271,542,o),
(222,499,o),
(193,424,c),
(207,410,l),
(202,530,l),
(66,530,l),
(66,-150,l)
);
},
{
closed = 1;
nodes = (
(198,353,o),
(234,419,o),
(302,419,cs),
(370,419,o),
(406,354,o),
(406,265,cs),
(406,176,o),
(370,111,o),
(302,111,cs),
(234,111,o),
(198,177,o),
(198,265,cs)
);
}
);
width = 600;
}
);
unicode = 112;
},
{
glyphname = thorn;
kernLeft = "0";
kernRight = "0";
lastChange = "2023-11-09 14:20:38 +0000";
layers = (
{
layerId = "EE2FFE84-06F1-4AFB-BBEC-60D09A436D14";
shapes = (
{
closed = 1;
nodes = (
(0,-150,l),
(32,-150,l),
(32,114,l),
(70,36,o),
(139,-12,o),
(215,-12,cs),
(351,-12,o),
(437,95,o),
(437,265,cs),
(437,433,o),
(351,539,o),
(215,539,cs),
(136,539,o),
(61,485,o),
(32,407,c),
(32,710,l),
(0,710,l)
);
},
{
closed = 1;
nodes = (
(32,402,o),
(114,509,o),
(219,509,cs),
(335,509,o),
(408,415,o),
(408,265,cs),
(408,113,o),
(335,17,o),
(219,17,cs),
(114,17,o),
(32,126,o),
(32,265,cs)
);
}
);
width = 600;
},
{
layerId = "574EE4B9-5C1A-4E7E-9985-C08FACB65BD8";
shapes = (
{
closed = 1;
nodes = (
(0,-150,l),
(86,-150,l),
(86,64,l),
(117,16,o),
(171,-12,o),
(247,-12,cs),
(400,-12,o),
(471,119,o),
(471,265,cs),
(471,411,o),
(400,542,o),
(247,542,cs),
(171,542,o),
(116,514,o),
(86,463,c),
(86,710,l),
(0,710,l)
);
},
{
closed = 1;
nodes = (
(76,368,o),
(121,466,o),
(230,466,cs),
(340,466,o),
(383,370,o),
(383,265,cs),
(383,164,o),
(340,68,o),
(230,68,cs),
(121,68,o),
(76,166,o),
(76,265,cs)
);
}
);
width = 600;
},
{
layerId = "58B1DC7A-69F8-4375-AD2E-AC5103CCF536";
shapes = (
{
closed = 1;
nodes = (
(0,-150,l),
(196,-150,l),
(196,33,l),
(223,5,o),
(264,-12,o),
(311,-12,cs),
(465,-12,o),
(555,102,o),
(555,265,cs),
(555,428,o),
(465,542,o),
(311,542,cs),
(255,542,o),
(219,525,o),
(196,500,c),
(196,710,l),
(0,710,l)
);
},
{
closed = 1;
nodes = (
(186,334,o),
(215,387,o),
(271,387,cs),
(329,387,o),
(357,335,o),
(357,265,cs),
(357,196,o),
(329,144,o),
(271,144,cs),
(215,144,o),
(186,197,o),
(186,265,cs)
);
}
);
width = 600;
}
);
unicode = 254;
},
{
glyphname = r;
kernLeft = "0";
kernRight = "0";
lastChange = "2023-11-09 14:20:38 +0000";
layers = (
{
anchors = (
{
name = bottom;
pos = (268,0);
},
{
name = top;
pos = (319,530);
}
);
background = {
shapes = (
{
closed = 1;
nodes = (
(226,0,l),
(312,0,l),
(312,316,ls),
(312,407,o),
(349,454,o),
(430,454,cs),
(542,454,l),
(542,530,l),
(430,530,ls),
(350,530,o),
(305,490,o),
(293,400,c),
(302,392,l),
(292,530,l),
(226,530,l)
);
},
{
closed = 1;
nodes = (
(88,454,l),
(274,454,l),
(274,530,l),
(88,530,l)
);
},
{
closed = 1;
nodes = (
(88,0,l),
(485,0,l),
(485,76,l),
(88,76,l)
);
}
);
};
layerId = "EE2FFE84-06F1-4AFB-BBEC-60D09A436D14";
shapes = (
{
closed = 1;
nodes = (
(253,0,l),
(283,0,l),
(283,316,ls),
(283,421,o),
(341,503,o),
(427,503,cs),
(521,503,l),
(521,530,l),
(427,530,ls),
(344,530,o),
(293,472,o),
(268,370,c),
(280,360,l),
(275,530,l),
(253,530,l)
);
},
{
closed = 1;
nodes = (
(109,500,l),
(268,500,l),
(268,530,l),
(109,530,l)
);
},
{
closed = 1;
nodes = (
(109,0,l),
(466,0,l),
(466,30,l),
(109,30,l)
);
}
);
width = 600;
},
{
anchors = (
{
name = bottom;
pos = (269,0);
},
{
name = top;
pos = (339,530);
}
);
layerId = "574EE4B9-5C1A-4E7E-9985-C08FACB65BD8";
shapes = (
{
closed = 1;
nodes = (
(227,0,l),
(311,0,l),
(311,316,ls),
(311,407,o),
(349,456,o),
(430,456,cs),
(536,456,l),
(536,530,l),
(430,530,ls),
(350,530,o),
(305,489,o),
(292,399,c),
(301,391,l),
(291,530,l),
(227,530,l)
);
},
{
closed = 1;
nodes = (
(89,456,l),
(274,456,l),
(274,530,l),
(89,530,l)
);
},
{
closed = 1;
nodes = (
(89,0,l),
(484,0,l),
(484,74,l),
(89,74,l)
);
}
);
width = 600;
},
{
anchors = (
{
name = bottom;
pos = (276,0);
},
{
name = top;
pos = (340,530);
}
);
layerId = "58B1DC7A-69F8-4375-AD2E-AC5103CCF536";
shapes = (
{
closed = 1;
nodes = (
(203,0,l),
(345,0,l),
(345,302,ls),
(345,375,o),
(373,405,o),
(447,405,cs),
(544,405,l),
(544,530,l),
(430,530,ls),
(350,530,o),
(305,490,o),
(293,400,c),
(302,392,l),
(290,530,l),
(203,530,l)
);
},
{
closed = 1;
nodes = (
(74,405,l),
(274,405,l),
(274,530,l),
(74,530,l)
);
},
{
closed = 1;
nodes = (
(74,0,l),
(499,0,l),
(499,125,l),
(74,125,l)
);
}
);
width = 600;
}
);
unicode = 114;
},
{
glyphname = s;
kernLeft = "0";
kernRight = "0";
lastChange = "2023-11-09 14:20:38 +0000";
layers = (
{
anchors = (
{
name = bottom;
pos = (308,0);
},
{
name = top;
pos = (298,530);
}
);
background = {
shapes = (
{
closed = 1;
nodes = (
(418,458,o),
(327,542,o),
(202,542,cs),
(94,542,o),
(-2,482,o),
(-2,374,cs),
(-2,276,o),
(102,242,o),
(198,219,cs),
(254,206,o),
(328,198,o),
(328,140,cs),
(328,84,o),
(267,70,o),
(211,70,cs),
(122,70,o),
(57,129,o),
(70,217,c),
(134,178,l),
(-58,164,l),
(-17,217,l),
(-39,79,o),
(71,-12,o),
(211,-12,cs),
(315,-12,o),
(418,31,o),
(418,135,cs),
(418,237,o),
(312,269,o),
(213,294,cs),
(157,309,o),
(88,321,o),
(88,379,cs),
(88,433,o),
(139,460,o),
(193,460,cs),
(272,460,o),
(336,412,o),
(332,333,c),
(300,364,l),
(438,374,l),
(418,333,l)
);
}
);
};
layerId = "EE2FFE84-06F1-4AFB-BBEC-60D09A436D14";
shapes = (
{
closed = 1;
nodes = (
(474,477,o),
(395,542,o),
(298,542,cs),
(186,542,o),
(110,480,o),
(114,392,cs),
(117,321,o),
(171,283,o),
(294,246,cs),
(364,225,o),
(472,208,o),
(472,130,cs),
(472,55,o),
(408,18,o),
(307,18,cs),
(206,18,o),
(127,80,o),
(127,159,c),
(96,155,l),
(97,61,o),
(190,-12,o),
(307,-12,cs),
(428,-12,o),
(504,40,o),
(504,130,cs),
(504,204,o),
(439,239,o),
(309,272,cs),
(191,304,o),
(149,338,o),
(146,392,cs),
(142,462,o),
(201,512,o),
(289,512,cs),
(379,512,o),
(444,461,o),
(458,379,c),
(489,385,l)
);
}
);
width = 600;
},
{
anchors = (
{
name = bottom;
pos = (302,0);
},
{
name = top;
pos = (302,530);
}
);
layerId = "574EE4B9-5C1A-4E7E-9985-C08FACB65BD8";
shapes = (
{
closed = 1;
nodes = (
(497,475,o),
(412,542,o),
(302,542,cs),
(194,542,o),
(98,482,o),
(99,375,cs),
(99,278,o),
(201,243,o),
(298,220,cs),
(354,207,o),
(429,198,o),
(429,140,cs),
(429,83,o),
(368,68,o),
(311,68,cs),
(237,68,o),
(179,109,o),
(169,173,c),
(82,167,l),
(89,57,o),
(189,-12,o),
(311,-12,cs),
(415,-12,o),
(518,31,o),
(518,135,cs),
(518,236,o),
(413,268,o),
(313,293,cs),
(255,309,o),
(187,322,o),
(187,379,cs),
(186,434,o),
(238,462,o),
(293,462,cs),
(361,462,o),
(418,426,o),
(430,366,c),
(514,372,l)
);
}
);
width = 600;
},
{
anchors = (
{
name = bottom;
pos = (302,0);
},
{
name = top;
pos = (302,530);
}
);
layerId = "58B1DC7A-69F8-4375-AD2E-AC5103CCF536";
shapes = (
{
closed = 1;
nodes = (
(513,473,o),
(419,542,o),
(302,542,cs),
(173,542,o),
(77,476,o),
(77,374,cs),
(77,288,o),
(157,236,o),
(274,208,cs),
(343,191,o),
(383,179,o),
(383,150,cs),
(383,122,o),
(354,111,o),
(311,111,cs),
(261,111,o),
(224,135,o),
(220,179,c),
(67,173,l),
(75,61,o),
(177,-12,o),
(311,-12,cs),
(445,-12,o),
(532,42,o),
(532,146,cs),
(532,233,o),
(452,290,o),
(344,313,cs),
(269,330,o),
(229,340,o),
(226,373,cs),
(223,403,o),
(253,419,o),
(293,419,cs),
(337,419,o),
(367,400,o),
(374,358,c),
(529,364,l)
);
}
);
width = 600;
}
);
unicode = 115;
},
{
glyphname = germandbls;
kernLeft = "0";
kernRight = "0";
lastChange = "2023-11-09 14:20:38 +0000";
layers = (
{
background = {
shapes = (
{
closed = 1;
nodes = (
(127,30,l),
(127,0,l),
(231,0,ls),
(373,0,o),
(473,85,o),
(473,206,cs),
(473,334,o),
(351,415,o),
(176,409,c),
(435,660,l),
(435,710,l),
(0,710,l),
(0,0,l),
(32,0,l),
(32,680,l),
(413,680,l),
(137,412,l),
(137,378,l),
(185,379,ls),
(334,382,o),
(439,311,o),
(439,206,cs),
(439,103,o),
(353,30,o),
(231,30,cs)
);
}
);
};
layerId = "EE2FFE84-06F1-4AFB-BBEC-60D09A436D14";
shapes = (
{
closed = 1;
nodes = (
(397,30,o),
(489,99,o),
(489,194,cs),
(489,294,o),
(399,362,o),
(271,359,cs),
(227,358,l),
(227,389,l),
(271,388,ls),
(374,386,o),
(447,449,o),
(447,541,cs),
(447,628,o),
(380,690,o),
(284,690,cs),
(189,690,o),
(122,612,o),
(122,502,cs),
(122,0,l),
(90,0,l),
(90,502,ls),
(90,631,o),
(170,722,o),
(284,722,cs),
(400,722,o),
(481,647,o),
(481,541,cs),
(481,445,o),
(408,373,o),
(303,367,c),
(302,384,l),
(432,376,o),
(523,297,o),
(523,194,cs),
(523,83,o),
(417,0,o),
(281,0,cs),
(217,0,l),
(217,30,l),
(281,30,ls)
);
}
);
width = 600;
},
{
layerId = "574EE4B9-5C1A-4E7E-9985-C08FACB65BD8";
shapes = (
{
closed = 1;
nodes = (
(378,80,o),
(456,121,o),
(456,206,cs),
(456,298,o),
(376,340,o),
(283,338,cs),
(239,337,l),
(239,418,l),
(283,417,ls),
(360,415,o),
(414,464,o),
(414,533,cs),
(414,597,o),
(363,642,o),
(290,642,cs),
(214,642,o),
(161,595,o),
(161,502,cs),
(161,0,l),
(76,0,l),
(76,502,ls),
(76,642,o),
(168,722,o),
(290,722,cs),
(414,722,o),
(500,650,o),
(500,541,cs),
(500,454,o),
(444,382,o),
(344,376,c),
(343,393,l),
(456,386,o),
(544,312,o),
(544,199,cs),
(544,68,o),
(425,0,o),
(293,0,cs),
(229,0,l),
(229,80,l),
(293,80,ls)
);
}
);
width = 600;
},
{
layerId = "58B1DC7A-69F8-4375-AD2E-AC5103CCF536";
shapes = (
{
closed = 1;
nodes = (
(368,130,o),
(415,158,o),
(415,212,cs),
(415,268,o),
(367,296,o),
(296,295,cs),
(259,294,l),
(259,422,l),
(296,421,ls),
(340,420,o),
(373,457,o),
(373,507,cs),
(373,556,o),
(338,592,o),
(288,592,cs),
(228,592,o),
(189,540,o),
(189,445,cs),
(189,0,l),
(43,0,l),
(43,438,ls),
(43,620,o),
(139,722,o),
(298,722,cs),
(426,722,o),
(524,635,o),
(524,520,cs),
(524,435,o),
(467,371,o),
(372,359,c),
(371,376,l),
(489,372,o),
(568,302,o),
(568,194,cs),
(568,69,o),
(469,0,o),
(313,0,cs),
(249,0,l),
(249,130,l),
(299,130,ls)
);
}
);
width = 600;
}
);
unicode = 223;
},
{
glyphname = t;
kernLeft = "0";
kernRight = "0";
lastChange = "2023-11-09 14:29:47 +0000";
layers = (
{
anchors = (
{
name = bottom;
pos = (322,0);
}
);
background = {
shapes = (
{
closed = 1;
nodes = (
(219,147,l),
(219,58,o),
(264,0,o),
(373,0,c),
(505,0,l),
(505,76,l),
(373,76,l),
(329,76,o),
(305,103,o),
(305,147,cs),
(305,650,l),
(219,650,l)
);
},
{
closed = 1;
nodes = (
(77,424,l),
(507,424,l),
(507,500,l),
(77,500,l)
);
}
);
};
layerId = "EE2FFE84-06F1-4AFB-BBEC-60D09A436D14";
shapes = (
{
closed = 1;
nodes = (
(246,112,ls),
(246,43,o),
(289,0,o),
(358,0,cs),
(495,0,l),
(495,27,l),
(354,27,ls),
(306,27,o),
(276,57,o),
(276,107,cs),
(276,670,l),
(246,670,l)
);
},
{
closed = 1;
nodes = (
(88,500,l),
(495,500,l),
(495,530,l),
(88,530,l)
);
}
);
width = 600;
},
{
anchors = (
{
name = bottom;
pos = (318,0);
}
);
layerId = "574EE4B9-5C1A-4E7E-9985-C08FACB65BD8";
shapes = (
{
closed = 1;
nodes = (
(215,146,ls),
(215,58,o),
(260,0,o),
(368,0,cs),
(510,0,l),
(510,74,l),
(368,74,ls),
(323,74,o),
(299,101,o),
(299,146,cs),
(299,670,l),
(215,670,l)
);
},
{
closed = 1;
nodes = (
(63,456,l),
(511,456,l),
(511,530,l),
(63,530,l)
);
}
);
width = 600;
},
{
anchors = (
{
name = bottom;
pos = (314,0);
}
);
layerId = "58B1DC7A-69F8-4375-AD2E-AC5103CCF536";
shapes = (
{
closed = 1;
nodes = (
(198,175,ls),
(198,61,o),
(256,0,o),
(380,0,cs),
(528,0,l),
(528,125,l),
(407,125,ls),
(363,125,o),
(339,152,o),
(339,197,cs),
(339,670,l),
(198,670,l)
);
},
{
closed = 1;
nodes = (
(52,405,l),
(530,405,l),
(530,530,l),
(52,530,l)
);
}
);
width = 600;
}
);
unicode = 116;
},
{
glyphname = tbar;
lastChange = "2023-11-09 14:20:38 +0000";
layers = (
{
layerId = "EE2FFE84-06F1-4AFB-BBEC-60D09A436D14";
shapes = (
{
ref = t;
},
{
closed = 1;
nodes = (
(88,267,l),
(495,267,l),
(495,297,l),
(88,297,l)
);
}
);
width = 600;
},
{
layerId = "574EE4B9-5C1A-4E7E-9985-C08FACB65BD8";
shapes = (
{
alignment = -1;
ref = t;
},
{
closed = 1;
nodes = (
(66,245,l),
(511,245,l),
(511,319,l),
(66,319,l)
);
}
);
width = 600;
},
{
layerId = "58B1DC7A-69F8-4375-AD2E-AC5103CCF536";
shapes = (
{
alignment = -1;
ref = t;
},
{
closed = 1;
nodes = (
(52,225,l),
(530,225,l),
(530,315,l),
(52,315,l)
);
}
);
width = 600;
}
);
unicode = 359;
},
{
glyphname = u;
kernLeft = "0";
kernRight = "0";
lastChange = "2023-11-09 14:20:38 +0000";
layers = (
{
anchors = (
{
name = bottom;
pos = (293,0);
},
{
name = ogonek;
pos = (486,0);
},
{
name = top;
pos = (293,530);
}
);
layerId = "EE2FFE84-06F1-4AFB-BBEC-60D09A436D14";
shapes = (
{
closed = 1;
nodes = (
(486,530,l),
(456,530,l),
(456,213,ls),
(456,99,o),
(393,18,o),
(282,18,cs),
(173,18,o),
(130,98,o),
(130,213,cs),
(130,530,l),
(100,530,l),
(100,189,ls),
(100,77,o),
(159,-12,o),
(274,-12,cs),
(370,-12,o),
(453,36,o),
(460,145,c),
(455,145,l),
(458,0,l),
(486,0,l)
);
}
);
width = 600;
},
{
anchors = (
{
name = bottom;
pos = (293,0);
},
{
name = ogonek;
pos = (504,0);
},
{
name = top;
pos = (293,530);
}
);
layerId = "574EE4B9-5C1A-4E7E-9985-C08FACB65BD8";
shapes = (
{
closed = 1;
nodes = (
(504,530,l),
(420,530,l),
(420,214,ls),
(420,115,o),
(365,62,o),
(283,62,cs),
(206,62,o),
(174,115,o),
(174,214,cs),
(174,530,l),
(89,530,l),
(89,189,ls),
(89,77,o),
(147,-12,o),
(265,-12,cs),
(345,-12,o),
(414,29,o),
(434,120,c),
(424,131,l),
(424,0,l),
(504,0,l)
);
}
);
width = 600;
},
{
anchors = (
{
name = bottom;
pos = (297,0);
},
{
name = ogonek;
pos = (515,0);
},
{
name = top;
pos = (297,530);
}
);
layerId = "58B1DC7A-69F8-4375-AD2E-AC5103CCF536";
shapes = (
{
closed = 1;
nodes = (
(515,530,l),
(374,530,l),
(374,216,ls),
(374,136,o),
(345,96,o),
(294,96,cs),
(245,96,o),
(221,136,o),
(221,216,cs),
(221,530,l),
(77,530,l),
(77,189,ls),
(77,65,o),
(133,-12,o),
(239,-12,cs),
(329,-12,o),
(389,50,o),
(400,165,c),
(375,168,l),
(384,0,l),
(515,0,l)
);
}
);
width = 600;
}
);
unicode = 117;
},
{
glyphname = v;
kernLeft = "0";
kernRight = "0";
lastChange = "2023-11-09 14:20:38 +0000";
layers = (
{
background = {
shapes = (
{
pos = (-141,0);
ref = V;
}
);
};
layerId = "EE2FFE84-06F1-4AFB-BBEC-60D09A436D14";
shapes = (
{
closed = 1;
nodes = (
(485,530,l),
(300,31,l),
(115,530,l),
(84,530,l),
(282,0,l),
(318,0,l),
(516,530,l)
);
}
);
width = 600;
},
{
layerId = "574EE4B9-5C1A-4E7E-9985-C08FACB65BD8";
shapes = (
{
closed = 1;
nodes = (
(456,530,l),
(300,88,l),
(144,530,l),
(54,530,l),
(247,0,l),
(353,0,l),
(546,530,l)
);
}
);
width = 600;
},
{
layerId = "58B1DC7A-69F8-4375-AD2E-AC5103CCF536";
shapes = (
{
closed = 1;
nodes = (
(418,530,l),
(300,160,l),
(181,530,l),
(30,530,l),
(219,0,l),
(381,0,l),
(570,530,l)
);
}
);
width = 600;
}
);
unicode = 118;
},
{
glyphname = w;
kernLeft = "0";
kernRight = "0";
lastChange = "2023-11-09 14:20:38 +0000";
layers = (
{
anchors = (
{
name = bottom;
pos = (300,0);
},
{
name = top;
pos = (300,530);
}
);
background = {
shapes = (
{
closed = 1;
nodes = (
(252,420,l),
(176,115,l),
(105,530,l),
(15,530,l),
(123,0,l),
(227,0,l),
(319,364,l),
(277,364,l),
(369,0,l),
(473,0,l),
(581,530,l),
(491,530,l),
(420,115,l),
(344,420,l)
);
}
);
};
layerId = "EE2FFE84-06F1-4AFB-BBEC-60D09A436D14";
shapes = (
{
closed = 1;
nodes = (
(283,460,l),
(182,45,l),
(71,530,l),
(38,530,l),
(164,0,l),
(200,0,l),
(300,417,l),
(400,0,l),
(436,0,l),
(562,530,l),
(529,530,l),
(418,45,l),
(317,460,l)
);
}
);
width = 600;
},
{
anchors = (
{
name = bottom;
pos = (300,0);
},
{
name = top;
pos = (300,530);
}
);
layerId = "574EE4B9-5C1A-4E7E-9985-C08FACB65BD8";
shapes = (
{
closed = 1;
nodes = (
(255,460,l),
(178,113,l),
(106,530,l),
(18,530,l),
(126,0,l),
(228,0,l),
(300,324,l),
(372,0,l),
(474,0,l),
(582,530,l),
(494,530,l),
(422,113,l),
(345,460,l)
);
}
);
width = 600;
},
{
anchors = (
{
name = bottom;
pos = (300,0);
},
{
name = top;
pos = (300,530);
}
);
layerId = "58B1DC7A-69F8-4375-AD2E-AC5103CCF536";
shapes = (
{
closed = 1;
nodes = (
(247,460,l),
(202,241,l),
(156,530,l),
(11,530,l),
(113,0,l),
(243,0,l),
(300,265,l),
(357,0,l),
(487,0,l),
(589,530,l),
(444,530,l),
(398,242,l),
(353,460,l)
);
}
);
width = 600;
}
);
unicode = 119;
},
{
glyphname = x;
kernLeft = "0";
kernRight = "0";
lastChange = "2023-11-09 14:20:38 +0000";
layers = (
{
background = {
shapes = (
{
closed = 1;
nodes = (
(466,0,l),
(261,289,l),
(253,242,l),
(457,530,l),
(351,530,l),
(205,316,l),
(239,311,l),
(88,530,l),
(-17,530,l),
(185,247,l),
(184,296,l),
(-27,0,l),
(78,0,l),
(227,215,l),
(204,228,l),
(361,0,l)
);
}
);
};
layerId = "EE2FFE84-06F1-4AFB-BBEC-60D09A436D14";
shapes = (
{
closed = 1;
nodes = (
(300,285,l),
(125,530,l),
(88,530,l),
(278,266,l),
(81,0,l),
(118,0,l),
(300,248,l),
(482,0,l),
(519,0,l),
(322,266,l),
(512,530,l),
(475,530,l)
);
}
);
width = 600;
},
{
layerId = "574EE4B9-5C1A-4E7E-9985-C08FACB65BD8";
shapes = (
{
closed = 1;
nodes = (
(300,336,l),
(167,530,l),
(64,530,l),
(248,272,l),
(54,0,l),
(157,0,l),
(300,206,l),
(442,0,l),
(545,0,l),
(353,271,l),
(536,530,l),
(432,530,l)
);
}
);
width = 600;
},
{
layerId = "58B1DC7A-69F8-4375-AD2E-AC5103CCF536";
shapes = (
{
closed = 1;
nodes = (
(300,387,l),
(206,530,l),
(35,530,l),
(219,272,l),
(25,0,l),
(196,0,l),
(300,156,l),
(403,0,l),
(574,0,l),
(382,271,l),
(565,530,l),
(393,530,l)
);
}
);
width = 600;
}
);
unicode = 120;
},
{
color = 4;
glyphname = y;
kernLeft = "0";
kernRight = "0";
lastChange = "2023-11-09 14:20:38 +0000";
layers = (
{
anchors = (
{
name = top;
pos = (310,530);
}
);
background = {
shapes = (
{
closed = 1;
nodes = (
(176,-39,ls),
(167,-64,o),
(151,-74,o),
(126,-74,cs),
(70,-74,l),
(70,-150,l),
(135,-150,ls),
(195,-150,o),
(233,-124,o),
(253,-67,cs),
(467,530,l),
(376,530,l),
(211,57,l),
(236,57,l),
(65,530,l),
(-27,530,l),
(166,10,l),
(237,10,l),
(207,42,l)
);
}
);
};
layerId = "EE2FFE84-06F1-4AFB-BBEC-60D09A436D14";
shapes = (
{
closed = 1;
nodes = (
(287,10,l),
(303,10,l),
(284,-39,ls),
(258,-105,o),
(239,-123,o),
(186,-123,cs),
(146,-123,l),
(146,-150,l),
(185,-150,ls),
(247,-150,o),
(283,-125,o),
(305,-67,cs),
(529,530,l),
(495,530,l),
(310,31,l),
(110,530,l),
(78,530,l)
);
}
);
width = 600;
},
{
anchors = (
{
name = top;
pos = (303,530);
}
);
layerId = "574EE4B9-5C1A-4E7E-9985-C08FACB65BD8";
shapes = (
{
closed = 1;
nodes = (
(250,10,l),
(279,10,l),
(260,-39,ls),
(250,-65,o),
(234,-76,o),
(208,-76,cs),
(153,-76,l),
(153,-150,l),
(217,-150,ls),
(277,-150,o),
(315,-124,o),
(335,-67,cs),
(549,530,l),
(460,530,l),
(306,90,l),
(147,530,l),
(57,530,l)
);
}
);
width = 600;
},
{
anchors = (
{
name = top;
pos = (304,530);
}
);
layerId = "58B1DC7A-69F8-4375-AD2E-AC5103CCF536";
shapes = (
{
closed = 1;
nodes = (
(219,39,l),
(254,39,l),
(242,10,ls),
(230,-19,o),
(213,-29,o),
(180,-29,cs),
(111,-29,l),
(111,-150,l),
(201,-150,ls),
(288,-150,o),
(340,-116,o),
(367,-40,cs),
(572,530,l),
(421,530,l),
(305,182,l),
(184,530,l),
(32,530,l)
);
}
);
width = 600;
}
);
unicode = 121;
},
{
glyphname = z;
kernLeft = "0";
kernRight = "0";
lastChange = "2023-11-09 14:20:38 +0000";
layers = (
{
anchors = (
{
name = bottom;
pos = (301,0);
},
{
name = top;
pos = (301,530);
}
);
background = {
shapes = (
{
closed = 1;
nodes = (
(428,530,l),
(10,530,l),
(10,448,l),
(387,448,l),
(367,494,l),
(-32,65,l),
(0,180,l),
(0,0,l),
(436,0,l),
(436,82,l),
(43,82,l),
(64,44,l),
(459,468,l),
(428,409,l)
);
}
);
};
layerId = "EE2FFE84-06F1-4AFB-BBEC-60D09A436D14";
shapes = (
{
closed = 1;
nodes = (
(501,530,l),
(101,530,l),
(101,500,l),
(465,500,l),
(91,30,l),
(91,0,l),
(509,0,l),
(509,30,l),
(127,30,l),
(501,500,l)
);
}
);
width = 600;
},
{
anchors = (
{
name = bottom;
pos = (301,0);
},
{
name = top;
pos = (301,530);
}
);
layerId = "574EE4B9-5C1A-4E7E-9985-C08FACB65BD8";
shapes = (
{
closed = 1;
nodes = (
(510,530,l),
(92,530,l),
(92,456,l),
(420,456,l),
(82,91,l),
(82,0,l),
(518,0,l),
(518,74,l),
(173,74,l),
(510,437,l)
);
}
);
width = 600;
},
{
anchors = (
{
name = bottom;
pos = (302,0);
},
{
name = top;
pos = (302,530);
}
);
layerId = "58B1DC7A-69F8-4375-AD2E-AC5103CCF536";
shapes = (
{
closed = 1;
nodes = (
(534,530,l),
(67,530,l),
(67,402,l),
(341,402,l),
(55,131,l),
(55,0,l),
(545,0,l),
(545,128,l),
(254,128,l),
(534,393,l)
);
}
);
width = 600;
}
);
unicode = 122;
},
{
glyphname = a.ss01;
kernLeft = "0";
kernRight = "0";
lastChange = "2023-11-09 14:20:38 +0000";
layers = (
{
anchors = (
{
name = bottom;
pos = (304,0);
},
{
name = ogonek;
pos = (500,0);
},
{
name = top;
pos = (304,530);
}
);
background = {
shapes = (
{
closed = 1;
nodes = (
(182,301,ls),
(65,280,o),
(-18,253,o),
(-18,141,cs),
(-18,46,o),
(68,-10,o),
(173,-12,cs),
(273,-10,o),
(344,53,o),
(350,112,c),
(340,112,l),
(344,0,l),
(422,0,l),
(422,320,ls),
(422,468,o),
(336,542,o),
(208,542,cs),
(86,542,o),
(-7,459,o),
(-13,339,c),
(-41,376,l),
(99,366,l),
(80,338,l),
(81,407,o),
(133,460,o),
(208,460,cs),
(286,460,o),
(336,416,o),
(336,327,cs),
(336,303,l),
(357,333,l)
);
},
{
closed = 1;
nodes = (
(72,217,o),
(136,216,o),
(214,231,cs),
(352,257,l),
(338,274,l),
(338,219,ls),
(338,121,o),
(270,64,o),
(184,60,cs),
(107,56,o),
(72,100,o),
(72,141,cs)
);
}
);
};
layerId = "EE2FFE84-06F1-4AFB-BBEC-60D09A436D14";
shapes = (
{
closed = 1;
nodes = (
(141,370,l),
(153,459,o),
(213,512,o),
(304,512,cs),
(407,512,o),
(468,449,o),
(468,315,c),
(278,280,ls),
(185,263,o),
(96,226,o),
(96,131,cs),
(96,48,o),
(162,-10,o),
(269,-12,cs),
(358,-10,o),
(434,34,o),
(470,115,c),
(474,0,l),
(500,0,l),
(500,320,ls),
(500,468,o),
(432,542,o),
(304,542,cs),
(194,542,o),
(122,474,o),
(105,373,c)
);
},
{
closed = 1;
nodes = (
(128,219,o),
(223,241,o),
(310,257,cs),
(470,287,l),
(471,219,ls),
(473,108,o),
(393,23,o),
(280,18,cs),
(187,13,o),
(128,60,o),
(128,131,cs)
);
}
);
width = 600;
},
{
anchors = (
{
name = bottom;
pos = (301,0);
},
{
name = ogonek;
pos = (516,0);
},
{
name = top;
pos = (303,530);
}
);
layerId = "574EE4B9-5C1A-4E7E-9985-C08FACB65BD8";
shapes = (
{
closed = 1;
nodes = (
(177,367,l),
(190,422,o),
(237,462,o),
(303,462,cs),
(381,462,o),
(431,419,o),
(432,329,c),
(277,298,ls),
(160,276,o),
(78,248,o),
(78,139,cs),
(78,44,o),
(163,-12,o),
(268,-12,cs),
(352,-12,o),
(413,33,o),
(439,82,c),
(447,0,l),
(516,0,l),
(516,320,ls),
(516,468,o),
(431,542,o),
(303,542,cs),
(193,542,o),
(107,474,o),
(87,374,c)
);
},
{
closed = 1;
nodes = (
(166,213,o),
(231,218,o),
(309,232,cs),
(434,254,l),
(434,228,ls),
(434,123,o),
(366,63,o),
(279,62,cs),
(202,62,o),
(166,97,o),
(166,139,cs)
);
}
);
width = 600;
},
{
anchors = (
{
name = bottom;
pos = (310,0);
},
{
name = ogonek;
pos = (524,0);
},
{
name = top;
pos = (310,530);
}
);
layerId = "58B1DC7A-69F8-4375-AD2E-AC5103CCF536";
shapes = (
{
closed = 1;
nodes = (
(226,359,l),
(233,395,o),
(263,419,o),
(304,419,cs),
(350,419,o),
(380,390,o),
(382,338,c),
(284,320,ls),
(146,296,o),
(70,247,o),
(70,139,cs),
(70,45,o),
(157,-12,o),
(268,-12,cs),
(338,-12,o),
(395,21,o),
(425,66,c),
(434,0,l),
(524,0,l),
(524,320,ls),
(524,464,o),
(445,542,o),
(310,542,cs),
(190,542,o),
(101,480,o),
(79,366,c)
);
},
{
closed = 1;
nodes = (
(219,188,o),
(251,202,o),
(309,211,cs),
(383,224,l),
(383,210,ls),
(383,147,o),
(345,109,o),
(288,109,cs),
(246,109,o),
(223,126,o),
(221,151,cs)
);
}
);
width = 600;
}
);
},
{
glyphname = a.ss02;
kernLeft = "0";
kernRight = "0";
lastChange = "2023-11-09 14:20:38 +0000";
layers = (
{
anchors = (
{
name = bottom;
pos = (291,0);
},
{
name = ogonek;
pos = (507,0);
},
{
name = top;
pos = (293,530);
}
);
background = {
shapes = (
{
ref = d;
}
);
};
layerId = "EE2FFE84-06F1-4AFB-BBEC-60D09A436D14";
shapes = (
{
closed = 1;
nodes = (
(477,530,l),
(477,402,l),
(449,482,o),
(373,539,o),
(293,539,cs),
(157,539,o),
(72,433,o),
(72,265,cs),
(72,95,o),
(157,-12,o),
(293,-12,cs),
(373,-12,o),
(446,43,o),
(482,130,c),
(485,0,l),
(507,0,l),
(507,530,l)
);
},
{
closed = 1;
nodes = (
(480,126,o),
(398,17,o),
(293,17,cs),
(177,17,o),
(104,113,o),
(104,265,cs),
(104,415,o),
(177,509,o),
(293,509,cs),
(398,509,o),
(480,402,o),
(480,265,cs)
);
}
);
width = 600;
},
{
anchors = (
{
name = bottom;
pos = (277,0);
},
{
name = ogonek;
pos = (524,0);
},
{
name = top;
pos = (288,530);
}
);
layerId = "574EE4B9-5C1A-4E7E-9985-C08FACB65BD8";
shapes = (
{
closed = 1;
nodes = (
(440,530,l),
(440,460,l),
(410,513,o),
(356,542,o),
(278,542,cs),
(124,542,o),
(54,411,o),
(54,265,cs),
(54,119,o),
(124,-12,o),
(278,-12,cs),
(359,-12,o),
(416,21,o),
(445,76,c),
(448,0,l),
(524,0,l),
(524,530,l)
);
},
{
closed = 1;
nodes = (
(448,166,o),
(404,68,o),
(295,68,cs),
(185,68,o),
(142,164,o),
(142,265,cs),
(142,370,o),
(185,466,o),
(295,466,cs),
(404,466,o),
(448,368,o),
(448,265,cs)
);
}
);
width = 600;
},
{
anchors = (
{
name = bottom;
pos = (282,0);
},
{
name = ogonek;
pos = (535,0);
},
{
name = top;
pos = (305,530);
}
);
layerId = "58B1DC7A-69F8-4375-AD2E-AC5103CCF536";
shapes = (
{
closed = 1;
nodes = (
(394,530,l),
(394,454,l),
(361,511,o),
(315,542,o),
(247,542,cs),
(121,542,o),
(45,428,o),
(45,265,cs),
(45,102,o),
(121,-12,o),
(247,-12,cs),
(319,-12,o),
(366,20,o),
(396,77,c),
(399,0,l),
(535,0,l),
(535,530,l)
);
},
{
closed = 1;
nodes = (
(403,177,o),
(368,111,o),
(299,111,cs),
(231,111,o),
(195,176,o),
(195,265,cs),
(195,355,o),
(231,420,o),
(299,420,cs),
(368,420,o),
(403,354,o),
(403,265,cs)
);
}
);
width = 600;
}
);
},
{
glyphname = l.ss03;
kernLeft = "0";
kernRight = "0";
lastChange = "2023-11-09 14:20:38 +0000";
layers = (
{
anchors = (
{
name = bottom;
pos = (323,0);
},
{
name = top;
pos = (308,710);
}
);
background = {
shapes = (
{
closed = 1;
nodes = (
(122,0,l),
(519,0,l),
(519,30,l),
(122,30,l)
);
},
{
closed = 1;
nodes = (
(341,613,ls),
(341,680,o),
(311,710,o),
(243,710,cs),
(131,710,l),
(131,683,l),
(243,683,ls),
(292,683,o),
(311,664,o),
(311,613,cs),
(311,0,l),
(341,0,l)
);
}
);
};
layerId = "EE2FFE84-06F1-4AFB-BBEC-60D09A436D14";
shapes = (
{
closed = 1;
nodes = (
(116,680,l),
(316,680,l),
(316,710,l),
(116,710,l)
);
},
{
closed = 1;
nodes = (
(294,97,ls),
(294,30,o),
(324,0,o),
(392,0,cs),
(504,0,l),
(504,27,l),
(392,27,ls),
(343,27,o),
(324,46,o),
(324,97,cs),
(324,710,l),
(294,710,l)
);
}
);
width = 600;
},
{
anchors = (
{
name = bottom;
pos = (291,0);
},
{
name = top;
pos = (299,710);
}
);
layerId = "574EE4B9-5C1A-4E7E-9985-C08FACB65BD8";
shapes = (
{
closed = 1;
nodes = (
(94,636,l),
(330,636,l),
(330,710,l),
(94,710,l)
);
},
{
closed = 1;
nodes = (
(258,136,ls),
(258,48,o),
(310,0,o),
(401,0,cs),
(528,0,l),
(528,74,l),
(401,74,ls),
(360,74,o),
(342,93,o),
(342,136,cs),
(342,710,l),
(258,710,l)
);
}
);
width = 600;
},
{
anchors = (
{
name = bottom;
pos = (297,0);
},
{
name = top;
pos = (301,710);
}
);
layerId = "58B1DC7A-69F8-4375-AD2E-AC5103CCF536";
shapes = (
{
closed = 1;
nodes = (
(78,585,l),
(360,585,l),
(360,710,l),
(78,710,l)
);
},
{
closed = 1;
nodes = (
(233,182,ls),
(233,61,o),
(299,0,o),
(428,0,cs),
(550,0,l),
(550,125,l),
(428,125,ls),
(391,125,o),
(374,144,o),
(374,182,cs),
(374,710,l),
(233,710,l)
);
}
);
width = 600;
}
);
},
{
glyphname = lcaron.ss03;
kernLeft = "0";
kernRight = "0";
lastChange = "2023-11-09 14:20:38 +0000";
layers = (
{
background = {
shapes = (
{
closed = 1;
nodes = (
(53,710,l),
(53,402,l),
(25,482,o),
(-51,539,o),
(-131,539,cs),
(-267,539,o),
(-352,433,o),
(-352,265,cs),
(-352,95,o),
(-267,-12,o),
(-131,-12,cs),
(-51,-12,o),
(22,43,o),
(58,130,c),
(61,0,l),
(83,0,l),
(83,710,l)
);
},
{
closed = 1;
nodes = (
(56,126,o),
(-26,17,o),
(-131,17,cs),
(-247,17,o),
(-320,113,o),
(-320,265,cs),
(-320,415,o),
(-247,509,o),
(-131,509,cs),
(-26,509,o),
(56,402,o),
(56,265,cs)
);
},
{
pos = (102,0);
ref = caroncomb.alt;
}
);
};
layerId = "EE2FFE84-06F1-4AFB-BBEC-60D09A436D14";
shapes = (
{
alignment = -1;
ref = l.ss03;
},
{
alignment = 1;
pos = (137,0);
ref = quoteright;
}
);
width = 600;
},
{
layerId = "574EE4B9-5C1A-4E7E-9985-C08FACB65BD8";
shapes = (
{
alignment = -1;
ref = l.ss03;
},
{
alignment = -1;
pos = (160,0);
ref = quoteright;
}
);
width = 600;
},
{
layerId = "58B1DC7A-69F8-4375-AD2E-AC5103CCF536";
shapes = (
{
alignment = -1;
pos = (-11,0);
ref = l.ss03;
},
{
alignment = -1;
pos = (185,0);
ref = quoteright;
}
);
width = 600;
}
);
},
{
glyphname = lslash.ss03;
kernLeft = "0";
kernRight = "0";
lastChange = "2023-11-09 14:20:38 +0000";
layers = (
{
layerId = "EE2FFE84-06F1-4AFB-BBEC-60D09A436D14";
shapes = (
{
pos = (1,0);
ref = l.ss03;
},
{
closed = 1;
nodes = (
(194,323,l),
(420,427,l),
(407,454,l),
(181,350,l)
);
}
);
width = 600;
},
{
layerId = "574EE4B9-5C1A-4E7E-9985-C08FACB65BD8";
shapes = (
{
alignment = -1;
pos = (-1,0);
ref = l.ss03;
},
{
closed = 1;
nodes = (
(203,304,l),
(429,408,l),
(397,475,l),
(171,371,l)
);
}
);
width = 600;
},
{
layerId = "58B1DC7A-69F8-4375-AD2E-AC5103CCF536";
shapes = (
{
alignment = -1;
pos = (-5,0);
ref = l.ss03;
},
{
closed = 1;
nodes = (
(147,302,l),
(480,403,l),
(453,488,l),
(120,387,l)
);
}
);
width = 600;
}
);
},
{
color = 3;
glyphname = "Be-cy";
lastChange = "2023-11-15 21:12:38 +0000";
layers = (
{
background = {
shapes = (
{
ref = B;
}
);
};
layerId = "EE2FFE84-06F1-4AFB-BBEC-60D09A436D14";
shapes = (
{
pos = (-13,710);
ref = P;
scale = (1,-1);
},
{
closed = 1;
nodes = (
(91,680,l),
(519,680,l),
(519,710,l),
(91,710,l)
);
}
);
width = 600;
},
{
background = {
shapes = (
{
ref = B;
}
);
};
layerId = "574EE4B9-5C1A-4E7E-9985-C08FACB65BD8";
shapes = (
{
pos = (-10,710);
ref = P;
scale = (1,-1);
},
{
closed = 1;
nodes = (
(80,626,l),
(523,626,l),
(523,710,l),
(80,710,l)
);
}
);
width = 600;
},
{
background = {
shapes = (
{
ref = B;
}
);
};
layerId = "58B1DC7A-69F8-4375-AD2E-AC5103CCF536";
shapes = (
{
pos = (0,710);
ref = P;
scale = (1,-1);
},
{
closed = 1;
nodes = (
(70,579,l),
(530,579,l),
(530,710,l),
(70,710,l)
);
}
);
width = 600;
}
);
unicode = 1041;
},
{
color = 3;
glyphname = "Ge-cy";
lastChange = "2023-11-15 21:13:04 +0000";
layers = (
{
anchors = (
{
name = top;
pos = (326,710);
}
);
background = {
shapes = (
{
ref = "Be-cy";
}
);
};
layerId = "EE2FFE84-06F1-4AFB-BBEC-60D09A436D14";
shapes = (
{
closed = 1;
nodes = (
(106,0,l),
(138,0,l),
(138,680,l),
(545,680,l),
(545,710,l),
(106,710,l)
);
}
);
width = 600;
},
{
anchors = (
{
name = top;
pos = (326,710);
}
);
background = {
shapes = (
{
closed = 1;
nodes = (
(86,0,l),
(232,0,l),
(232,579,l),
(576,579,l),
(576,710,l),
(86,710,l)
);
}
);
};
layerId = "574EE4B9-5C1A-4E7E-9985-C08FACB65BD8";
shapes = (
{
closed = 1;
nodes = (
(100,0,l),
(186,0,l),
(186,626,l),
(552,626,l),
(552,710,l),
(100,710,l)
);
}
);
width = 600;
},
{
anchors = (
{
name = top;
pos = (321,710);
}
);
layerId = "58B1DC7A-69F8-4375-AD2E-AC5103CCF536";
shapes = (
{
closed = 1;
nodes = (
(86,0,l),
(232,0,l),
(232,579,l),
(556,579,l),
(556,710,l),
(86,710,l)
);
}
);
width = 600;
}
);
unicode = 1043;
},
{
color = 3;
glyphname = "Geupturn-cy";
lastChange = "2023-11-15 21:13:10 +0000";
layers = (
{
layerId = "EE2FFE84-06F1-4AFB-BBEC-60D09A436D14";
shapes = (
{
closed = 1;
nodes = (
(523,680,l),
(555,680,l),
(555,865,l),
(523,865,l)
);
},
{
ref = "Ge-cy";
}
);
width = 600;
},
{
layerId = "574EE4B9-5C1A-4E7E-9985-C08FACB65BD8";
shapes = (
{
closed = 1;
nodes = (
(476,626,l),
(562,626,l),
(562,865,l),
(476,865,l)
);
},
{
ref = "Ge-cy";
}
);
width = 600;
},
{
layerId = "58B1DC7A-69F8-4375-AD2E-AC5103CCF536";
shapes = (
{
closed = 1;
nodes = (
(420,579,l),
(566,579,l),
(566,865,l),
(420,865,l)
);
},
{
ref = "Ge-cy";
}
);
width = 600;
}
);
unicode = 1168;
},
{
color = 3;
glyphname = "Gestroke-cy";
lastChange = "2023-11-15 21:13:12 +0000";
layers = (
{
layerId = "EE2FFE84-06F1-4AFB-BBEC-60D09A436D14";
shapes = (
{
ref = "Ge-cy";
},
{
closed = 1;
nodes = (
(36,313,l),
(412,313,l),
(412,343,l),
(36,343,l)
);
}
);
width = 600;
},
{
layerId = "574EE4B9-5C1A-4E7E-9985-C08FACB65BD8";
shapes = (
{
ref = "Ge-cy";
},
{
closed = 1;
nodes = (
(19,286,l),
(425,286,l),
(425,370,l),
(19,370,l)
);
}
);
width = 600;
},
{
layerId = "58B1DC7A-69F8-4375-AD2E-AC5103CCF536";
shapes = (
{
ref = "Ge-cy";
},
{
closed = 1;
nodes = (
(20,263,l),
(466,263,l),
(466,394,l),
(20,394,l)
);
}
);
width = 600;
}
);
unicode = 1170;
},
{
color = 3;
glyphname = "De-cy";
lastChange = "2023-11-15 21:13:16 +0000";
layers = (
{
background = {
shapes = (
{
closed = 1;
nodes = (
(218,710,l),
(166,217,ls),
(156,126,o),
(131,86,o),
(81,86,cs),
(40,86,l),
(40,30,l),
(81,30,ls),
(188,30,o),
(240,84,o),
(253,207,cs),
(298,624,l),
(569,624,l),
(569,0,l),
(657,0,l),
(657,710,l)
);
},
{
closed = 1;
nodes = (
(41,0,l),
(745,0,l),
(745,86,l),
(41,86,l)
);
},
{
closed = 1;
nodes = (
(657,-150,l),
(745,-150,l),
(745,86,l),
(657,86,l)
);
},
{
closed = 1;
nodes = (
(40,-150,l),
(128,-150,l),
(128,86,l),
(40,86,l)
);
}
);
};
layerId = "EE2FFE84-06F1-4AFB-BBEC-60D09A436D14";
shapes = (
{
closed = 1;
nodes = (
(199,710,l),
(147,191,ls),
(137,88,o),
(98,30,o),
(39,30,cs),
(18,30,l),
(18,-150,l),
(50,-150,l),
(50,0,l),
(543,0,l),
(543,-150,l),
(575,-150,l),
(575,30,l),
(487,30,l),
(487,710,l)
);
},
{
closed = 1;
nodes = (
(144,55,o),
(170,114,o),
(177,181,cs),
(227,680,l),
(455,680,l),
(455,30,l),
(111,30,l)
);
}
);
width = 600;
},
{
associatedMasterId = "EE2FFE84-06F1-4AFB-BBEC-60D09A436D14";
background = {
shapes = (
{
closed = 1;
nodes = (
(228,710,l),
(176,217,ls),
(166,126,o),
(141,86,o),
(91,86,cs),
(50,86,l),
(50,30,l),
(91,30,ls),
(198,30,o),
(250,84,o),
(263,207,cs),
(308,624,l),
(579,624,l),
(579,0,l),
(667,0,l),
(667,710,l)
);
},
{
closed = 1;
nodes = (
(51,0,l),
(755,0,l),
(755,86,l),
(51,86,l)
);
},
{
closed = 1;
nodes = (
(667,-150,l),
(755,-150,l),
(755,86,l),
(667,86,l)
);
},
{
closed = 1;
nodes = (
(50,-150,l),
(138,-150,l),
(138,86,l),
(50,86,l)
);
}
);
};
layerId = "C2C1386F-9A22-4D25-8481-8DE8C90E9B3C";
name = "3 Nov 23 21:12";
shapes = (
{
closed = 1;
nodes = (
(228,710,l),
(176,217,ls),
(166,126,o),
(141,86,o),
(91,86,cs),
(50,86,l),
(50,30,l),
(91,30,ls),
(198,30,o),
(250,84,o),
(263,207,cs),
(308,624,l),
(579,624,l),
(579,0,l),
(667,0,l),
(667,710,l)
);
},
{
closed = 1;
nodes = (
(51,0,l),
(755,0,l),
(755,86,l),
(51,86,l)
);
},
{
closed = 1;
nodes = (
(667,-150,l),
(755,-150,l),
(755,86,l),
(667,86,l)
);
},
{
closed = 1;
nodes = (
(50,-150,l),
(138,-150,l),
(138,86,l),
(50,86,l)
);
}
);
width = 805;
},
{
layerId = "574EE4B9-5C1A-4E7E-9985-C08FACB65BD8";
shapes = (
{
closed = 1;
nodes = (
(190,710,l),
(138,216,ls),
(128,125,o),
(103,84,o),
(53,84,cs),
(12,84,l),
(12,-150,l),
(98,-150,l),
(98,0,l),
(494,0,l),
(494,-150,l),
(580,-150,l),
(580,84,l),
(492,84,l),
(492,710,l)
);
},
{
closed = 1;
nodes = (
(205,113,o),
(218,153,o),
(224,206,cs),
(269,626,l),
(406,626,l),
(406,84,l),
(184,84,l)
);
}
);
width = 600;
},
{
layerId = "58B1DC7A-69F8-4375-AD2E-AC5103CCF536";
shapes = (
{
closed = 1;
nodes = (
(166,710,l),
(114,263,ls),
(104,179,o),
(66,131,o),
(12,131,cs),
(10,131,l),
(10,-150,l),
(156,-150,l),
(156,0,l),
(439,0,l),
(439,-150,l),
(585,-150,l),
(585,131,l),
(507,131,l),
(507,710,l)
);
},
{
closed = 1;
nodes = (
(241,160,o),
(255,200,o),
(260,253,cs),
(293,579,l),
(361,579,l),
(361,131,l),
(220,131,l)
);
}
);
width = 600;
}
);
unicode = 1044;
},
{
color = 3;
glyphname = "Zhe-cy";
lastChange = "2023-11-15 21:13:31 +0000";
layers = (
{
background = {
shapes = (
{
closed = 1;
nodes = (
(284,0,l),
(316,0,l),
(316,710,l),
(284,710,l)
);
}
);
};
layerId = "EE2FFE84-06F1-4AFB-BBEC-60D09A436D14";
shapes = (
{
closed = 1;
nodes = (
(284,0,l),
(316,0,l),
(316,710,l),
(284,710,l)
);
},
{
closed = 1;
nodes = (
(20,710,l),
(254,355,l),
(289,355,l),
(57,710,l)
);
},
{
closed = 1;
nodes = (
(289,355,l),
(254,355,l),
(10,0,l),
(47,0,l)
);
},
{
closed = 1;
nodes = (
(311,355,l),
(346,355,l),
(580,710,l),
(543,710,l)
);
},
{
closed = 1;
nodes = (
(590,0,l),
(346,355,l),
(311,355,l),
(553,0,l)
);
}
);
width = 600;
},
{
background = {
shapes = (
{
closed = 1;
nodes = (
(257,0,l),
(343,0,l),
(343,710,l),
(257,710,l)
);
}
);
};
layerId = "574EE4B9-5C1A-4E7E-9985-C08FACB65BD8";
shapes = (
{
closed = 1;
nodes = (
(257,0,l),
(343,0,l),
(343,710,l),
(257,710,l)
);
},
{
closed = 1;
nodes = (
(17,710,l),
(174,355,l),
(267,355,l),
(110,710,l)
);
},
{
closed = 1;
nodes = (
(267,355,l),
(174,355,l),
(7,0,l),
(100,0,l)
);
},
{
closed = 1;
nodes = (
(333,355,l),
(426,355,l),
(583,710,l),
(490,710,l)
);
},
{
closed = 1;
nodes = (
(593,0,l),
(426,355,l),
(333,355,l),
(500,0,l)
);
}
);
width = 600;
},
{
background = {
shapes = (
{
closed = 1;
nodes = (
(227,0,l),
(373,0,l),
(373,710,l),
(227,710,l)
);
}
);
};
layerId = "58B1DC7A-69F8-4375-AD2E-AC5103CCF536";
shapes = (
{
closed = 1;
nodes = (
(227,0,l),
(373,0,l),
(373,710,l),
(227,710,l)
);
},
{
closed = 1;
nodes = (
(5,710,l),
(90,355,l),
(238,355,l),
(153,710,l)
);
},
{
closed = 1;
nodes = (
(238,355,l),
(90,355,l),
(2,0,l),
(150,0,l)
);
},
{
closed = 1;
nodes = (
(362,355,l),
(510,355,l),
(595,710,l),
(447,710,l)
);
},
{
closed = 1;
nodes = (
(598,0,l),
(510,355,l),
(362,355,l),
(450,0,l)
);
}
);
width = 600;
}
);
unicode = 1046;
},
{
color = 3;
glyphname = "Ze-cy";
lastChange = "2023-11-15 21:13:34 +0000";
layers = (
{
background = {
shapes = (
{
closed = 1;
nodes = (
(266,334,l),
(340,335,ls),
(423,336,o),
(511,297,o),
(511,202,cs),
(511,121,o),
(440,70,o),
(326,70,cs),
(219,70,o),
(147,116,o),
(140,189,c),
(49,183,l),
(55,66,o),
(169,-16,o),
(326,-16,cs),
(488,-16,o),
(602,71,o),
(602,195,cs),
(602,297,o),
(534,370,o),
(412,392,c),
(411,375,l),
(521,395,o),
(578,451,o),
(578,541,cs),
(578,650,o),
(474,726,o),
(326,726,cs),
(191,726,o),
(87,655,o),
(74,555,c),
(166,549,l),
(175,605,o),
(236,640,o),
(326,640,cs),
(424,640,o),
(486,602,o),
(486,541,cs),
(486,449,o),
(406,419,o),
(340,420,cs),
(266,421,l)
);
}
);
};
layerId = "EE2FFE84-06F1-4AFB-BBEC-60D09A436D14";
shapes = (
{
closed = 1;
nodes = (
(240,367,l),
(306,368,l),
(424,368,o),
(514,298,o),
(514,199,cs),
(514,88,o),
(424,16,o),
(296,16,cs),
(177,16,o),
(90,78,o),
(80,177,c),
(49,174,l),
(59,57,o),
(158,-16,o),
(296,-16,cs),
(444,-16,o),
(548,71,o),
(548,195,cs),
(548,296,o),
(466,378,o),
(350,395,c),
(350,372,l),
(452,386,o),
(524,457,o),
(524,541,cs),
(524,650,o),
(433,726,o),
(299,726,cs),
(187,726,o),
(98,664,o),
(79,564,c),
(113,561,l),
(129,643,o),
(204,694,o),
(299,694,cs),
(413,694,o),
(490,631,o),
(490,541,cs),
(490,456,o),
(410,397,o),
(306,397,c),
(240,398,l)
);
}
);
width = 600;
},
{
layerId = "574EE4B9-5C1A-4E7E-9985-C08FACB65BD8";
shapes = (
{
closed = 1;
nodes = (
(240,335,l),
(314,336,l),
(388,337,o),
(476,297,o),
(476,202,cs),
(476,120,o),
(404,68,o),
(300,68,cs),
(202,68,o),
(129,115,o),
(122,189,c),
(33,183,l),
(39,66,o),
(153,-16,o),
(300,-16,cs),
(452,-16,o),
(565,71,o),
(565,195,cs),
(565,297,o),
(497,370,o),
(375,392,c),
(374,375,l),
(484,395,o),
(541,451,o),
(541,541,cs),
(541,650,o),
(438,726,o),
(300,726,cs),
(175,726,o),
(72,655,o),
(59,555,c),
(149,549,l),
(158,606,o),
(219,642,o),
(300,642,cs),
(389,642,o),
(451,603,o),
(451,541,cs),
(451,449,o),
(371,418,o),
(314,419,c),
(240,420,l)
);
}
);
width = 600;
},
{
layerId = "58B1DC7A-69F8-4375-AD2E-AC5103CCF536";
shapes = (
{
closed = 1;
nodes = (
(238,314,l),
(298,315,l),
(372,317,o),
(418,275,o),
(418,209,cs),
(418,153,o),
(375,115,o),
(300,115,cs),
(236,115,o),
(186,150,o),
(182,210,c),
(27,204,l),
(33,62,o),
(153,-16,o),
(310,-16,cs),
(465,-16,o),
(572,74,o),
(572,202,cs),
(572,294,o),
(501,384,o),
(369,392,c),
(368,375,l),
(478,386,o),
(548,446,o),
(548,537,cs),
(548,649,o),
(455,726,o),
(310,726,cs),
(155,726,o),
(58,650,o),
(45,534,c),
(200,528,l),
(204,567,o),
(240,595,o),
(299,595,cs),
(361,595,o),
(394,565,o),
(394,522,cs),
(394,465,o),
(351,439,o),
(298,440,c),
(238,441,l)
);
}
);
width = 600;
}
);
unicode = 1047;
},
{
color = 3;
glyphname = "Ka-cy";
lastChange = "2023-11-15 21:13:42 +0000";
layers = (
{
anchors = (
{
name = top;
pos = (298,710);
}
);
background = {
shapes = (
{
ref = K;
}
);
};
layerId = "EE2FFE84-06F1-4AFB-BBEC-60D09A436D14";
shapes = (
{
closed = 1;
nodes = (
(81,0,l),
(113,0,l),
(113,710,l),
(81,710,l)
);
},
{
closed = 1;
nodes = (
(106,355,l),
(148,355,l),
(523,710,l),
(482,710,l)
);
},
{
closed = 1;
nodes = (
(552,0,l),
(148,355,l),
(106,355,l),
(510,0,l)
);
}
);
width = 600;
},
{
anchors = (
{
name = top;
pos = (294,710);
}
);
background = {
shapes = (
{
ref = K;
}
);
};
layerId = "574EE4B9-5C1A-4E7E-9985-C08FACB65BD8";
shapes = (
{
closed = 1;
nodes = (
(58,0,l),
(144,0,l),
(144,710,l),
(58,710,l)
);
},
{
closed = 1;
nodes = (
(137,355,l),
(248,355,l),
(555,710,l),
(442,710,l)
);
},
{
closed = 1;
nodes = (
(565,0,l),
(248,355,l),
(137,355,l),
(452,0,l)
);
}
);
width = 600;
},
{
anchors = (
{
name = top;
pos = (301,710);
}
);
layerId = "58B1DC7A-69F8-4375-AD2E-AC5103CCF536";
shapes = (
{
closed = 1;
nodes = (
(40,0,l),
(186,0,l),
(186,710,l),
(40,710,l)
);
},
{
closed = 1;
nodes = (
(179,355,l),
(346,355,l),
(573,710,l),
(405,710,l)
);
},
{
closed = 1;
nodes = (
(583,0,l),
(346,355,l),
(179,355,l),
(413,0,l)
);
}
);
width = 600;
}
);
unicode = 1050;
},
{
color = 3;
glyphname = "El-cy";
lastChange = "2023-11-15 21:25:33 +0000";
layers = (
{
layerId = "EE2FFE84-06F1-4AFB-BBEC-60D09A436D14";
shapes = (
{
closed = 1;
nodes = (
(193,710,l),
(146,149,ls),
(139,69,o),
(110,30,o),
(59,30,cs),
(30,30,l),
(30,0,l),
(60,0,ls),
(130,0,o),
(170,49,o),
(178,147,cs),
(223,680,l),
(505,680,l),
(505,0,l),
(537,0,l),
(537,710,l)
);
}
);
width = 600;
},
{
layerId = "574EE4B9-5C1A-4E7E-9985-C08FACB65BD8";
shapes = (
{
closed = 1;
nodes = (
(183,710,l),
(137,157,ls),
(133,113,o),
(114,84,o),
(78,84,cs),
(20,84,l),
(20,0,l),
(91,0,ls),
(179,0,o),
(217,58,o),
(224,147,cs),
(264,626,l),
(461,626,l),
(461,0,l),
(547,0,l),
(547,710,l)
);
}
);
width = 600;
},
{
layerId = "58B1DC7A-69F8-4375-AD2E-AC5103CCF536";
shapes = (
{
closed = 1;
nodes = (
(169,710,l),
(123,229,ls),
(119,183,o),
(97,157,o),
(57,157,cs),
(15,157,l),
(15,0,l),
(78,0,ls),
(186,0,o),
(254,74,o),
(265,190,cs),
(301,585,l),
(414,585,l),
(414,0,l),
(560,0,l),
(560,710,l)
);
}
);
width = 600;
}
);
unicode = 1051;
},
{
color = 3;
glyphname = "Pe-cy";
lastChange = "2023-11-15 21:14:01 +0000";
layers = (
{
background = {
shapes = (
{
ref = H;
}
);
};
layerId = "EE2FFE84-06F1-4AFB-BBEC-60D09A436D14";
shapes = (
{
closed = 1;
nodes = (
(88,710,l),
(88,0,l),
(120,0,l),
(120,680,l),
(480,680,l),
(480,0,l),
(512,0,l),
(512,710,l)
);
}
);
width = 600;
},
{
background = {
shapes = (
{
ref = H;
}
);
};
layerId = "574EE4B9-5C1A-4E7E-9985-C08FACB65BD8";
shapes = (
{
closed = 1;
nodes = (
(70,710,l),
(70,0,l),
(156,0,l),
(156,626,l),
(444,626,l),
(444,0,l),
(530,0,l),
(530,710,l)
);
}
);
width = 600;
},
{
background = {
shapes = (
{
ref = H;
}
);
};
layerId = "58B1DC7A-69F8-4375-AD2E-AC5103CCF536";
shapes = (
{
closed = 1;
nodes = (
(43,710,l),
(43,0,l),
(189,0,l),
(189,579,l),
(411,579,l),
(411,0,l),
(557,0,l),
(557,710,l)
);
}
);
width = 600;
}
);
unicode = 1055;
},
{
color = 3;
glyphname = "Es-cy";
lastChange = "2023-11-15 21:14:10 +0000";
layers = (
{
background = {
shapes = (
{
closed = 1;
nodes = (
(557,249,l),
(534,97,o),
(444,16,o),
(324,16,cs),
(158,16,o),
(54,146,o),
(54,354,cs),
(54,563,o),
(158,694,o),
(324,694,cs),
(441,694,o),
(528,610,o),
(551,477,c),
(585,481,l),
(555,638,o),
(454,726,o),
(324,726,cs),
(137,726,o),
(20,583,o),
(20,354,cs),
(20,127,o),
(137,-16,o),
(324,-16,cs),
(462,-16,o),
(566,78,o),
(591,245,c)
);
}
);
};
layerId = "EE2FFE84-06F1-4AFB-BBEC-60D09A436D14";
shapes = (
{
ref = C;
}
);
width = 600;
},
{
background = {
shapes = (
{
closed = 1;
nodes = (
(485,240,l),
(464,130,o),
(394,68,o),
(290,68,cs),
(129,68,o),
(59,201,o),
(59,354,cs),
(59,508,o),
(128,642,o),
(290,642,cs),
(388,642,o),
(457,586,o),
(480,486,c),
(571,492,l),
(540,632,o),
(441,726,o),
(290,726,cs),
(85,726,o),
(-31,561,o),
(-31,354,cs),
(-31,148,o),
(86,-16,o),
(290,-16,cs),
(454,-16,o),
(551,85,o),
(577,234,c)
);
}
);
};
layerId = "574EE4B9-5C1A-4E7E-9985-C08FACB65BD8";
shapes = (
{
ref = C;
}
);
width = 600;
},
{
layerId = "58B1DC7A-69F8-4375-AD2E-AC5103CCF536";
shapes = (
{
ref = C;
}
);
width = 600;
}
);
unicode = 1057;
},
{
color = 3;
glyphname = "U-cy";
lastChange = "2023-11-15 21:14:21 +0000";
layers = (
{
anchors = (
{
name = top;
pos = (311,710);
}
);
background = {
shapes = (
{
pos = (0,179);
ref = y;
}
);
};
layerId = "EE2FFE84-06F1-4AFB-BBEC-60D09A436D14";
shapes = (
{
closed = 1;
nodes = (
(286,190,l),
(303,190,l),
(274,111,ls),
(252,52,o),
(225,30,o),
(176,30,cs),
(137,30,l),
(137,0,l),
(176,0,ls),
(235,0,o),
(275,28,o),
(298,91,cs),
(530,710,l),
(496,710,l),
(311,211,l),
(111,710,l),
(77,710,l)
);
}
);
width = 600;
},
{
anchors = (
{
name = top;
pos = (304,710);
}
);
layerId = "574EE4B9-5C1A-4E7E-9985-C08FACB65BD8";
shapes = (
{
closed = 1;
nodes = (
(245,190,l),
(279,190,l),
(254,121,ls),
(244,94,o),
(228,84,o),
(202,84,cs),
(141,84,l),
(141,0,l),
(210,0,ls),
(270,0,o),
(308,26,o),
(328,83,cs),
(554,710,l),
(460,710,l),
(306,270,l),
(147,710,l),
(52,710,l)
);
}
);
width = 600;
},
{
anchors = (
{
name = top;
pos = (305,710);
}
);
layerId = "58B1DC7A-69F8-4375-AD2E-AC5103CCF536";
shapes = (
{
closed = 1;
nodes = (
(211,219,l),
(254,219,l),
(237,170,ls),
(226,139,o),
(208,131,o),
(175,131,cs),
(111,131,l),
(111,0,l),
(208,0,ls),
(295,0,o),
(348,34,o),
(374,110,cs),
(579,710,l),
(421,710,l),
(305,362,l),
(184,710,l),
(24,710,l)
);
}
);
width = 600;
}
);
unicode = 1059;
},
{
color = 3;
glyphname = "Ef-cy";
lastChange = "2023-11-15 21:14:29 +0000";
layers = (
{
layerId = "EE2FFE84-06F1-4AFB-BBEC-60D09A436D14";
shapes = (
{
closed = 1;
nodes = (
(30,182,o),
(134,73,o),
(299,73,cs),
(465,73,o),
(570,182,o),
(570,355,cs),
(570,528,o),
(465,637,o),
(299,637,cs),
(134,637,o),
(30,528,o),
(30,355,cs)
);
},
{
closed = 1;
nodes = (
(64,509,o),
(155,605,o),
(299,605,cs),
(445,605,o),
(536,509,o),
(536,355,cs),
(536,201,o),
(445,105,o),
(299,105,cs),
(155,105,o),
(64,201,o),
(64,355,cs)
);
},
{
closed = 1;
nodes = (
(283,0,l),
(315,0,l),
(315,710,l),
(283,710,l)
);
}
);
width = 600;
},
{
layerId = "574EE4B9-5C1A-4E7E-9985-C08FACB65BD8";
shapes = (
{
closed = 1;
nodes = (
(25,182,o),
(131,73,o),
(299,73,cs),
(469,73,o),
(575,182,o),
(575,355,cs),
(575,528,o),
(469,637,o),
(299,637,cs),
(131,637,o),
(25,528,o),
(25,355,cs)
);
},
{
closed = 1;
nodes = (
(115,477,o),
(186,553,o),
(300,553,cs),
(414,553,o),
(485,477,o),
(485,355,cs),
(485,233,o),
(414,157,o),
(300,157,cs),
(186,157,o),
(115,233,o),
(115,355,cs)
);
},
{
closed = 1;
nodes = (
(256,0,l),
(342,0,l),
(342,710,l),
(256,710,l)
);
}
);
width = 600;
},
{
layerId = "58B1DC7A-69F8-4375-AD2E-AC5103CCF536";
shapes = (
{
closed = 1;
nodes = (
(20,182,o),
(128,73,o),
(300,73,cs),
(472,73,o),
(580,182,o),
(580,355,cs),
(580,528,o),
(472,637,o),
(300,637,cs),
(128,637,o),
(20,528,o),
(20,355,cs)
);
},
{
closed = 1;
nodes = (
(174,448,o),
(223,506,o),
(300,506,cs),
(377,506,o),
(426,448,o),
(426,355,cs),
(426,262,o),
(377,204,o),
(300,204,cs),
(223,204,o),
(174,262,o),
(174,355,cs)
);
},
{
closed = 1;
nodes = (
(227,0,l),
(373,0,l),
(373,710,l),
(227,710,l)
);
}
);
width = 600;
}
);
unicode = 1060;
},
{
color = 3;
glyphname = "Che-cy";
lastChange = "2023-11-15 21:14:36 +0000";
layers = (
{
background = {
shapes = (
{
closed = 1;
nodes = (
(529,710,l),
(441,710,l),
(441,469,ls),
(441,384,o),
(360,324,o),
(244,324,cs),
(155,324,o),
(105,380,o),
(105,469,cs),
(105,710,l),
(17,710,l),
(17,469,ls),
(17,327,o),
(101,238,o),
(244,238,cs),
(363,238,o),
(456,308,o),
(456,396,c),
(441,366,l),
(441,0,l),
(529,0,l)
);
}
);
};
layerId = "EE2FFE84-06F1-4AFB-BBEC-60D09A436D14";
shapes = (
{
closed = 1;
nodes = (
(510,710,l),
(478,710,l),
(478,463,ls),
(478,349,o),
(390,269,o),
(264,269,cs),
(154,269,o),
(92,333,o),
(92,449,cs),
(92,710,l),
(60,710,l),
(60,449,ls),
(60,314,o),
(133,238,o),
(264,238,cs),
(380,238,o),
(476,307,o),
(482,395,c),
(478,395,l),
(478,0,l),
(510,0,l)
);
}
);
width = 600;
},
{
layerId = "574EE4B9-5C1A-4E7E-9985-C08FACB65BD8";
shapes = (
{
closed = 1;
nodes = (
(530,710,l),
(444,710,l),
(444,469,ls),
(444,383,o),
(363,322,o),
(256,322,cs),
(187,322,o),
(136,378,o),
(136,468,cs),
(136,710,l),
(50,710,l),
(50,468,ls),
(50,327,o),
(134,238,o),
(256,238,cs),
(365,238,o),
(458,308,o),
(458,396,c),
(444,367,l),
(444,0,l),
(530,0,l)
);
}
);
width = 600;
},
{
layerId = "58B1DC7A-69F8-4375-AD2E-AC5103CCF536";
shapes = (
{
closed = 1;
nodes = (
(530,710,l),
(384,710,l),
(384,508,ls),
(384,423,o),
(343,370,o),
(278,370,cs),
(231,370,o),
(196,423,o),
(196,508,cs),
(196,710,l),
(50,710,l),
(50,447,ls),
(50,319,o),
(128,238,o),
(242,238,cs),
(347,238,o),
(416,309,o),
(421,423,c),
(384,378,l),
(384,0,l),
(530,0,l)
);
}
);
width = 600;
}
);
unicode = 1063;
},
{
color = 3;
glyphname = "Tse-cy";
lastChange = "2023-11-15 21:14:38 +0000";
layers = (
{
layerId = "EE2FFE84-06F1-4AFB-BBEC-60D09A436D14";
shapes = (
{
pos = (0,710);
ref = "Pe-cy";
scale = (1,-1);
},
{
closed = 1;
nodes = (
(543,-150,l),
(575,-150,l),
(575,30,l),
(543,30,l)
);
},
{
closed = 1;
nodes = (
(397,0,l),
(551,0,l),
(551,30,l),
(397,30,l)
);
}
);
width = 600;
},
{
layerId = "574EE4B9-5C1A-4E7E-9985-C08FACB65BD8";
shapes = (
{
alignment = -1;
pos = (-10,710);
ref = "Pe-cy";
scale = (1,-1);
},
{
closed = 1;
nodes = (
(499,-150,l),
(585,-150,l),
(585,84,l),
(499,84,l)
);
},
{
closed = 1;
nodes = (
(341,0,l),
(511,0,l),
(511,84,l),
(341,84,l)
);
}
);
width = 600;
},
{
layerId = "58B1DC7A-69F8-4375-AD2E-AC5103CCF536";
shapes = (
{
alignment = -1;
pos = (-28,710);
ref = "Pe-cy";
scale = (1,-1);
},
{
closed = 1;
nodes = (
(444,-150,l),
(590,-150,l),
(590,131,l),
(444,131,l)
);
},
{
closed = 1;
nodes = (
(305,0,l),
(476,0,l),
(476,131,l),
(305,131,l)
);
}
);
width = 600;
}
);
unicode = 1062;
},
{
color = 3;
glyphname = "Sha-cy";
lastChange = "2023-11-15 21:14:53 +0000";
layers = (
{
layerId = "EE2FFE84-06F1-4AFB-BBEC-60D09A436D14";
shapes = (
{
closed = 1;
nodes = (
(109,0,l),
(109,710,l),
(77,710,l),
(77,0,l)
);
},
{
closed = 1;
nodes = (
(523,0,l),
(523,710,l),
(491,710,l),
(491,0,l)
);
},
{
closed = 1;
nodes = (
(316,0,l),
(316,710,l),
(284,710,l),
(284,0,l)
);
},
{
closed = 1;
nodes = (
(523,0,l),
(523,30,l),
(77,30,l),
(77,0,l)
);
}
);
width = 600;
},
{
background = {
shapes = (
{
ref = "Pe-cy";
}
);
};
layerId = "574EE4B9-5C1A-4E7E-9985-C08FACB65BD8";
shapes = (
{
closed = 1;
nodes = (
(141,0,l),
(141,710,l),
(55,710,l),
(55,0,l)
);
},
{
closed = 1;
nodes = (
(545,0,l),
(545,710,l),
(459,710,l),
(459,0,l)
);
},
{
closed = 1;
nodes = (
(343,0,l),
(343,710,l),
(257,710,l),
(257,0,l)
);
},
{
closed = 1;
nodes = (
(545,0,l),
(545,84,l),
(55,84,l),
(55,0,l)
);
}
);
width = 600;
},
{
layerId = "58B1DC7A-69F8-4375-AD2E-AC5103CCF536";
shapes = (
{
closed = 1;
nodes = (
(176,0,l),
(176,710,l),
(30,710,l),
(30,0,l)
);
},
{
closed = 1;
nodes = (
(570,0,l),
(570,710,l),
(424,710,l),
(424,0,l)
);
},
{
closed = 1;
nodes = (
(364,0,l),
(364,710,l),
(236,710,l),
(236,0,l)
);
},
{
closed = 1;
nodes = (
(498,0,l),
(498,131,l),
(102,131,l),
(102,0,l)
);
}
);
width = 600;
}
);
unicode = 1064;
},
{
color = 3;
glyphname = "Shcha-cy";
lastChange = "2023-11-15 21:14:55 +0000";
layers = (
{
layerId = "EE2FFE84-06F1-4AFB-BBEC-60D09A436D14";
shapes = (
{
ref = "Sha-cy";
},
{
closed = 1;
nodes = (
(543,-150,l),
(575,-150,l),
(575,30,l),
(543,30,l)
);
},
{
closed = 1;
nodes = (
(472,0,l),
(575,0,l),
(575,30,l),
(472,30,l)
);
}
);
width = 600;
},
{
layerId = "574EE4B9-5C1A-4E7E-9985-C08FACB65BD8";
shapes = (
{
alignment = -1;
pos = (-20,0);
ref = "Sha-cy";
},
{
closed = 1;
nodes = (
(499,-150,l),
(585,-150,l),
(585,84,l),
(499,84,l)
);
},
{
closed = 1;
nodes = (
(416,0,l),
(585,0,l),
(585,84,l),
(416,84,l)
);
}
);
width = 600;
},
{
layerId = "58B1DC7A-69F8-4375-AD2E-AC5103CCF536";
shapes = (
{
alignment = -1;
pos = (-9,0);
ref = "Sha-cy";
scale = (0.9574,1);
},
{
closed = 1;
nodes = (
(444,-150,l),
(590,-150,l),
(590,131,l),
(444,131,l)
);
},
{
closed = 1;
nodes = (
(361,0,l),
(532,0,l),
(532,131,l),
(361,131,l)
);
}
);
width = 600;
}
);
unicode = 1065;
},
{
color = 3;
glyphname = "Dzhe-cy";
lastChange = "2023-11-13 17:24:33 +0000";
layers = (
{
layerId = "EE2FFE84-06F1-4AFB-BBEC-60D09A436D14";
shapes = (
{
pos = (0,710);
ref = "Pe-cy";
scale = (1,-1);
},
{
closed = 1;
nodes = (
(284,-150,l),
(316,-150,l),
(316,15,l),
(284,15,l)
);
}
);
width = 600;
},
{
layerId = "574EE4B9-5C1A-4E7E-9985-C08FACB65BD8";
shapes = (
{
pos = (0,710);
ref = "Pe-cy";
scale = (1,-1);
},
{
closed = 1;
nodes = (
(257,-150,l),
(343,-150,l),
(343,32,l),
(257,32,l)
);
}
);
width = 600;
},
{
layerId = "58B1DC7A-69F8-4375-AD2E-AC5103CCF536";
shapes = (
{
pos = (0,710);
ref = "Pe-cy";
scale = (1,-1);
},
{
closed = 1;
nodes = (
(228,-150,l),
(374,-150,l),
(374,32,l),
(228,32,l)
);
}
);
width = 600;
}
);
unicode = 1039;
},
{
color = 3;
glyphname = "Yeru-cy";
lastChange = "2023-11-15 21:15:02 +0000";
layers = (
{
layerId = "EE2FFE84-06F1-4AFB-BBEC-60D09A436D14";
shapes = (
{
closed = 1;
nodes = (
(222,0,l),
(369,0,o),
(462,79,o),
(462,205,cs),
(462,328,o),
(369,405,o),
(222,405,c),
(77,405,l),
(77,710,l),
(45,710,l),
(45,0,l)
);
},
{
closed = 1;
nodes = (
(222,375,ls),
(354,375,o),
(428,314,o),
(428,205,cs),
(428,93,o),
(354,30,o),
(222,30,c),
(77,30,l),
(77,375,l)
);
},
{
closed = 1;
nodes = (
(525,0,l),
(555,0,l),
(555,710,l),
(525,710,l)
);
}
);
width = 600;
},
{
layerId = "574EE4B9-5C1A-4E7E-9985-C08FACB65BD8";
shapes = (
{
closed = 1;
nodes = (
(170,0,l),
(328,0,o),
(421,80,o),
(421,215,cs),
(421,352,o),
(328,434,o),
(170,434,c),
(122,434,l),
(122,710,l),
(35,710,l),
(35,0,l)
);
},
{
closed = 1;
nodes = (
(170,350,ls),
(278,350,o),
(331,304,o),
(331,215,cs),
(331,128,o),
(278,84,o),
(170,84,c),
(122,84,l),
(122,350,l)
);
},
{
closed = 1;
nodes = (
(479,0,l),
(565,0,l),
(565,710,l),
(479,710,l)
);
}
);
width = 600;
},
{
layerId = "58B1DC7A-69F8-4375-AD2E-AC5103CCF536";
shapes = (
{
closed = 1;
nodes = (
(174,0,l),
(327,0,o),
(403,78,o),
(403,236,cs),
(403,392,o),
(327,470,o),
(174,470,c),
(161,470,l),
(161,710,l),
(15,710,l),
(15,0,l)
);
},
{
closed = 1;
nodes = (
(174,339,ls),
(223,339,o),
(248,305,o),
(248,236,cs),
(248,166,o),
(223,131,o),
(174,131,cs),
(161,131,l),
(161,339,l)
);
},
{
closed = 1;
nodes = (
(439,0,l),
(585,0,l),
(585,710,l),
(439,710,l)
);
}
);
width = 600;
}
);
unicode = 1067;
},
{
color = 3;
glyphname = "Hardsign-cy";
lastChange = "2023-11-15 21:15:09 +0000";
layers = (
{
layerId = "EE2FFE84-06F1-4AFB-BBEC-60D09A436D14";
shapes = (
{
pos = (43,710);
ref = P;
scale = (1,-1);
},
{
closed = 1;
nodes = (
(46,680,l),
(175,680,l),
(175,710,l),
(46,710,l)
);
}
);
width = 600;
},
{
layerId = "574EE4B9-5C1A-4E7E-9985-C08FACB65BD8";
shapes = (
{
alignment = -1;
pos = (17,710);
ref = P;
scale = (1,-1);
},
{
closed = 1;
nodes = (
(30,626,l),
(194,626,l),
(194,710,l),
(30,710,l)
);
}
);
width = 600;
},
{
layerId = "58B1DC7A-69F8-4375-AD2E-AC5103CCF536";
shapes = (
{
alignment = -1;
pos = (18,710);
ref = P;
scale = (1,-1);
},
{
closed = 1;
nodes = (
(15,579,l),
(232,579,l),
(232,710,l),
(15,710,l)
);
}
);
width = 600;
}
);
unicode = 1066;
},
{
color = 3;
glyphname = "Lje-cy";
lastChange = "2023-11-15 21:15:12 +0000";
layers = (
{
layerId = "EE2FFE84-06F1-4AFB-BBEC-60D09A436D14";
shapes = (
{
closed = 1;
nodes = (
(138,710,l),
(101,149,ls),
(96,69,o),
(65,30,o),
(14,30,cs),
(5,30,l),
(5,0,l),
(15,0,ls),
(85,0,o),
(127,49,o),
(133,147,cs),
(168,680,l),
(293,680,l),
(293,0,l),
(325,0,l),
(325,710,l)
);
},
{
closed = 1;
nodes = (
(380,0,l),
(515,0,o),
(590,74,o),
(590,205,cs),
(590,333,o),
(515,405,o),
(380,405,c),
(325,405,l),
(325,710,l),
(293,710,l),
(293,0,l)
);
},
{
closed = 1;
nodes = (
(380,375,ls),
(493,375,o),
(556,314,o),
(556,205,cs),
(556,93,o),
(493,30,o),
(380,30,c),
(325,30,l),
(325,375,l)
);
}
);
width = 600;
},
{
layerId = "574EE4B9-5C1A-4E7E-9985-C08FACB65BD8";
shapes = (
{
closed = 1;
nodes = (
(118,710,l),
(92,157,ls),
(90,113,o),
(69,84,o),
(33,84,cs),
(5,84,l),
(5,0,l),
(46,0,ls),
(134,0,o),
(175,58,o),
(179,147,cs),
(199,626,l),
(279,626,l),
(279,0,l),
(365,0,l),
(365,710,l)
);
},
{
closed = 1;
nodes = (
(394,0,l),
(522,0,o),
(595,80,o),
(595,215,cs),
(595,352,o),
(522,434,o),
(394,434,c),
(366,434,l),
(365,710,l),
(279,710,l),
(279,0,l)
);
},
{
closed = 1;
nodes = (
(385,350,ls),
(463,350,o),
(496,304,o),
(496,215,cs),
(496,128,o),
(463,84,o),
(385,84,c),
(366,84,l),
(366,350,l)
);
}
);
width = 600;
},
{
layerId = "58B1DC7A-69F8-4375-AD2E-AC5103CCF536";
shapes = (
{
closed = 1;
nodes = (
(85,710,l),
(72,229,ls),
(71,183,o),
(46,157,o),
(6,157,cs),
(2,157,l),
(2,0,l),
(27,0,ls),
(135,0,o),
(212,74,o),
(214,190,cs),
(220,585,l),
(263,585,l),
(263,0,l),
(409,0,l),
(409,710,l)
);
},
{
closed = 1;
nodes = (
(427,0,l),
(545,0,o),
(601,85,o),
(601,236,cs),
(601,386,o),
(545,470,o),
(427,470,c),
(409,470,l),
(409,710,l),
(263,710,l),
(263,0,l)
);
},
{
closed = 1;
nodes = (
(420,339,ls),
(445,339,o),
(456,308,o),
(456,236,cs),
(456,163,o),
(445,131,o),
(420,131,c),
(409,131,l),
(409,339,l)
);
}
);
width = 600;
}
);
unicode = 1033;
},
{
color = 3;
glyphname = "Nje-cy";
lastChange = "2023-11-15 21:15:15 +0000";
layers = (
{
background = {
shapes = (
{
ref = H;
}
);
};
layerId = "EE2FFE84-06F1-4AFB-BBEC-60D09A436D14";
shapes = (
{
closed = 1;
nodes = (
(330,0,ls),
(477,0,o),
(570,79,o),
(570,205,cs),
(570,328,o),
(477,405,o),
(330,405,cs),
(275,405,l),
(275,710,l),
(243,710,l),
(243,0,l)
);
},
{
closed = 1;
nodes = (
(330,375,ls),
(462,375,o),
(536,314,o),
(536,205,cs),
(536,93,o),
(462,30,o),
(330,30,cs),
(275,30,l),
(275,375,l)
);
},
{
closed = 1;
nodes = (
(54,355,l),
(263,355,l),
(263,385,l),
(54,385,l)
);
},
{
closed = 1;
nodes = (
(30,0,l),
(62,0,l),
(62,710,l),
(30,710,l)
);
}
);
width = 600;
},
{
background = {
shapes = (
{
alignment = -1;
pos = (-92,0);
ref = H;
}
);
};
layerId = "574EE4B9-5C1A-4E7E-9985-C08FACB65BD8";
shapes = (
{
closed = 1;
nodes = (
(349,0,l),
(507,0,o),
(580,80,o),
(580,215,cs),
(580,352,o),
(507,434,o),
(349,434,c),
(311,434,l),
(311,710,l),
(224,710,l),
(224,0,l)
);
},
{
closed = 1;
nodes = (
(340,350,ls),
(448,350,o),
(481,304,o),
(481,215,cs),
(481,128,o),
(448,84,o),
(340,84,c),
(311,84,l),
(311,350,l)
);
},
{
closed = 1;
nodes = (
(78,314,l),
(284,314,l),
(284,398,l),
(78,398,l)
);
},
{
closed = 1;
nodes = (
(20,0,l),
(106,0,l),
(106,710,l),
(20,710,l)
);
}
);
width = 600;
},
{
background = {
shapes = (
{
pos = (-62,0);
ref = H;
}
);
};
layerId = "58B1DC7A-69F8-4375-AD2E-AC5103CCF536";
shapes = (
{
closed = 1;
nodes = (
(382,0,l),
(515,0,o),
(590,85,o),
(590,236,cs),
(590,386,o),
(515,470,o),
(382,470,c),
(359,470,l),
(359,710,l),
(223,710,l),
(223,0,l)
);
},
{
closed = 1;
nodes = (
(365,339,ls),
(418,339,o),
(441,308,o),
(441,236,cs),
(441,163,o),
(418,131,o),
(365,131,c),
(359,131,l),
(359,339,l)
);
},
{
closed = 1;
nodes = (
(134,290,l),
(270,290,l),
(270,421,l),
(134,421,l)
);
},
{
closed = 1;
nodes = (
(10,0,l),
(146,0,l),
(146,710,l),
(10,710,l)
);
}
);
width = 600;
}
);
unicode = 1034;
},
{
color = 3;
glyphname = "Ereversed-cy";
lastChange = "2023-11-15 21:15:27 +0000";
layers = (
{
anchors = (
{
name = bottom;
pos = (300,0);
},
{
name = top;
pos = (300,710);
}
);
background = {
shapes = (
{
closed = 1;
nodes = (
(51,227,l),
(83,83,o),
(190,-16,o),
(348,-16,cs),
(538,-16,o),
(655,127,o),
(655,354,cs),
(655,583,o),
(538,726,o),
(348,726,cs),
(189,726,o),
(82,626,o),
(50,480,c),
(85,480,l),
(115,606,o),
(210,694,o),
(348,694,cs),
(517,694,o),
(621,563,o),
(621,354,cs),
(621,146,o),
(517,16,o),
(348,16,cs),
(210,16,o),
(116,102,o),
(85,227,c)
);
},
{
closed = 1;
nodes = (
(306,339,l),
(643,339,l),
(643,369,l),
(306,369,l)
);
}
);
};
layerId = "EE2FFE84-06F1-4AFB-BBEC-60D09A436D14";
shapes = (
{
closed = 1;
nodes = (
(306,339,l),
(540,339,l),
(540,369,l),
(306,369,l)
);
},
{
closed = 1;
nodes = (
(58,227,l),
(88,75,o),
(176,-16,o),
(300,-16,cs),
(456,-16,o),
(554,127,o),
(554,354,cs),
(554,583,o),
(456,726,o),
(300,726,cs),
(175,726,o),
(88,635,o),
(58,481,c),
(92,481,l),
(120,615,o),
(195,694,o),
(300,694,cs),
(435,694,o),
(520,563,o),
(520,354,cs),
(520,146,o),
(435,16,o),
(300,16,cs),
(195,16,o),
(121,94,o),
(92,227,c)
);
}
);
width = 600;
},
{
anchors = (
{
name = bottom;
pos = (300,0);
},
{
name = top;
pos = (300,710);
}
);
background = {
shapes = (
{
closed = 1;
nodes = (
(0,248,l),
(32,83,o),
(145,-16,o),
(314,-16,cs),
(517,-16,o),
(639,125,o),
(639,354,cs),
(639,585,o),
(517,726,o),
(314,726,cs),
(145,726,o),
(32,628,o),
(0,461,c),
(92,461,l),
(121,575,o),
(200,642,o),
(314,642,cs),
(461,642,o),
(549,533,o),
(549,354,cs),
(549,177,o),
(461,68,o),
(314,68,cs),
(200,68,o),
(121,135,o),
(92,248,c)
);
},
{
closed = 1;
nodes = (
(255,312,l),
(564,312,l),
(564,396,l),
(255,396,l)
);
}
);
};
layerId = "574EE4B9-5C1A-4E7E-9985-C08FACB65BD8";
shapes = (
{
closed = 1;
nodes = (
(255,312,l),
(534,312,l),
(534,396,l),
(255,396,l)
);
},
{
closed = 1;
nodes = (
(45,248,l),
(70,78,o),
(159,-16,o),
(300,-16,cs),
(468,-16,o),
(562,117,o),
(562,354,cs),
(562,593,o),
(468,726,o),
(300,726,cs),
(159,726,o),
(71,633,o),
(45,462,c),
(137,462,l),
(157,578,o),
(214,642,o),
(300,642,cs),
(410,642,o),
(472,538,o),
(472,354,cs),
(472,171,o),
(410,68,o),
(300,68,cs),
(214,68,o),
(157,132,o),
(136,248,c)
);
}
);
width = 600;
},
{
anchors = (
{
name = bottom;
pos = (300,0);
},
{
name = top;
pos = (300,710);
}
);
background = {
shapes = (
{
closed = 1;
nodes = (
(0,258,l),
(34,87,o),
(159,-16,o),
(351,-16,cs),
(576,-16,o),
(710,126,o),
(710,354,cs),
(710,584,o),
(576,726,o),
(351,726,cs),
(159,726,o),
(33,623,o),
(0,450,c),
(207,450,l),
(228,526,o),
(278,569,o),
(351,569,cs),
(453,569,o),
(510,490,o),
(510,354,cs),
(510,219,o),
(453,141,o),
(351,141,cs),
(278,141,o),
(228,183,o),
(207,258,c)
);
},
{
closed = 1;
nodes = (
(318,285,l),
(618,285,l),
(618,424,l),
(318,424,l)
);
}
);
};
layerId = "58B1DC7A-69F8-4375-AD2E-AC5103CCF536";
shapes = (
{
closed = 1;
nodes = (
(268,288,l),
(531,288,l),
(531,419,l),
(268,419,l)
);
},
{
closed = 1;
nodes = (
(35,255,l),
(61,89,o),
(153,-16,o),
(300,-16,cs),
(474,-16,o),
(572,131,o),
(572,354,cs),
(572,577,o),
(474,726,o),
(300,726,cs),
(152,726,o),
(59,619,o),
(35,450,c),
(188,450,l),
(202,545,o),
(239,595,o),
(300,595,cs),
(379,595,o),
(418,512,o),
(418,354,cs),
(418,197,o),
(379,115,o),
(300,115,cs),
(240,115,o),
(203,163,o),
(189,255,c)
);
}
);
width = 600;
}
);
unicode = 1069;
},
{
color = 3;
glyphname = "Tshe-cy";
lastChange = "2023-11-15 21:15:40 +0000";
layers = (
{
background = {
shapes = (
{
closed = 1;
nodes = (
(5,626,l),
(332,626,l),
(332,710,l),
(5,710,l)
);
}
);
};
layerId = "EE2FFE84-06F1-4AFB-BBEC-60D09A436D14";
shapes = (
{
closed = 1;
nodes = (
(140,0,l),
(172,0,l),
(172,247,ls),
(172,361,o),
(248,441,o),
(356,441,cs),
(466,441,o),
(528,377,o),
(528,261,cs),
(528,0,l),
(560,0,l),
(560,261,ls),
(560,396,o),
(487,472,o),
(356,472,cs),
(256,472,o),
(174,403,o),
(168,315,c),
(172,315,l),
(172,710,l),
(140,710,l)
);
},
{
closed = 1;
nodes = (
(10,680,l),
(332,680,l),
(332,710,l),
(10,710,l)
);
}
);
width = 600;
},
{
layerId = "574EE4B9-5C1A-4E7E-9985-C08FACB65BD8";
shapes = (
{
closed = 1;
nodes = (
(120,0,l),
(206,0,l),
(206,241,ls),
(206,327,o),
(267,388,o),
(354,388,cs),
(430,388,o),
(484,328,o),
(484,242,cs),
(484,0,l),
(570,0,l),
(570,242,ls),
(570,383,o),
(486,472,o),
(364,472,cs),
(268,472,o),
(192,402,o),
(192,314,c),
(206,343,l),
(206,710,l),
(120,710,l)
);
},
{
closed = 1;
nodes = (
(5,626,l),
(352,626,l),
(352,710,l),
(5,710,l)
);
}
);
width = 600;
},
{
background = {
shapes = (
{
closed = 1;
nodes = (
(5,626,l),
(332,626,l),
(332,710,l),
(5,710,l)
);
}
);
};
layerId = "58B1DC7A-69F8-4375-AD2E-AC5103CCF536";
shapes = (
{
closed = 1;
nodes = (
(110,0,l),
(256,0,l),
(256,202,ls),
(256,287,o),
(297,340,o),
(342,340,cs),
(389,340,o),
(424,287,o),
(424,202,cs),
(424,0,l),
(570,0,l),
(570,263,ls),
(570,391,o),
(492,472,o),
(378,472,cs),
(293,472,o),
(224,401,o),
(219,287,c),
(256,332,l),
(256,710,l),
(110,710,l)
);
},
{
closed = 1;
nodes = (
(5,579,l),
(400,579,l),
(400,710,l),
(5,710,l)
);
}
);
width = 600;
}
);
unicode = 1035;
},
{
color = 3;
glyphname = "Yu-cy";
lastChange = "2023-11-15 21:15:43 +0000";
layers = (
{
layerId = "EE2FFE84-06F1-4AFB-BBEC-60D09A436D14";
shapes = (
{
closed = 1;
nodes = (
(505,-16,o),
(570,107,o),
(570,354,cs),
(570,603,o),
(505,726,o),
(373,726,cs),
(242,726,o),
(177,603,o),
(177,354,cs),
(177,107,o),
(242,-16,o),
(373,-16,cs)
);
},
{
closed = 1;
nodes = (
(263,16,o),
(209,128,o),
(209,354,cs),
(209,581,o),
(263,694,o),
(373,694,cs),
(483,694,o),
(538,581,o),
(538,354,cs),
(538,128,o),
(483,16,o),
(373,16,cs)
);
},
{
closed = 1;
nodes = (
(54,340,l),
(204,340,l),
(204,370,l),
(54,370,l)
);
},
{
closed = 1;
nodes = (
(30,0,l),
(62,0,l),
(62,710,l),
(30,710,l)
);
}
);
width = 600;
},
{
layerId = "574EE4B9-5C1A-4E7E-9985-C08FACB65BD8";
shapes = (
{
closed = 1;
nodes = (
(521,-16,o),
(580,97,o),
(580,354,cs),
(580,613,o),
(521,726,o),
(386,726,cs),
(252,726,o),
(193,613,o),
(193,354,cs),
(193,97,o),
(252,-16,o),
(386,-16,cs)
);
},
{
closed = 1;
nodes = (
(312,68,o),
(284,147,o),
(284,354,cs),
(284,562,o),
(312,642,o),
(386,642,cs),
(461,642,o),
(490,562,o),
(490,354,cs),
(490,147,o),
(461,68,o),
(386,68,cs)
);
},
{
closed = 1;
nodes = (
(78,313,l),
(267,313,l),
(267,397,l),
(78,397,l)
);
},
{
closed = 1;
nodes = (
(20,0,l),
(106,0,l),
(106,710,l),
(20,710,l)
);
}
);
width = 600;
},
{
layerId = "58B1DC7A-69F8-4375-AD2E-AC5103CCF536";
shapes = (
{
closed = 1;
nodes = (
(527,-16,o),
(585,97,o),
(585,354,cs),
(585,613,o),
(527,726,o),
(393,726,cs),
(261,726,o),
(203,613,o),
(203,354,cs),
(203,97,o),
(261,-16,o),
(393,-16,cs)
);
},
{
closed = 1;
nodes = (
(361,115,o),
(347,188,o),
(347,354,cs),
(347,522,o),
(361,595,o),
(393,595,cs),
(426,595,o),
(441,522,o),
(441,354,cs),
(441,188,o),
(426,115,o),
(393,115,cs)
);
},
{
closed = 1;
nodes = (
(160,290,l),
(247,290,l),
(247,421,l),
(160,421,l)
);
},
{
closed = 1;
nodes = (
(15,0,l),
(161,0,l),
(161,710,l),
(15,710,l)
);
}
);
width = 600;
}
);
unicode = 1070;
},
{
color = 3;
glyphname = "Dje-cy";
lastChange = "2023-11-15 21:15:47 +0000";
layers = (
{
background = {
shapes = (
{
ref = "Tshe-cy";
}
);
};
layerId = "EE2FFE84-06F1-4AFB-BBEC-60D09A436D14";
shapes = (
{
closed = 1;
nodes = (
(140,0,l),
(172,0,l),
(172,247,ls),
(172,361,o),
(250,440,o),
(366,440,cs),
(478,440,o),
(548,361,o),
(548,232,cs),
(548,108,o),
(466,30,o),
(326,30,c),
(326,0,l),
(486,0,o),
(582,89,o),
(582,232,cs),
(582,379,o),
(499,472,o),
(366,472,cs),
(260,472,o),
(174,403,o),
(168,315,c),
(172,315,l),
(172,710,l),
(140,710,l)
);
},
{
closed = 1;
nodes = (
(10,680,l),
(332,680,l),
(332,710,l),
(10,710,l)
);
}
);
width = 600;
},
{
background = {
shapes = (
{
ref = "Tshe-cy";
}
);
};
layerId = "574EE4B9-5C1A-4E7E-9985-C08FACB65BD8";
shapes = (
{
closed = 1;
nodes = (
(120,0,l),
(206,0,l),
(206,241,ls),
(206,327,o),
(268,388,o),
(357,388,cs),
(444,388,o),
(500,331,o),
(500,239,cs),
(500,144,o),
(427,84,o),
(304,84,c),
(304,0,l),
(480,0,o),
(590,92,o),
(590,239,cs),
(590,376,o),
(493,472,o),
(357,472,cs),
(265,472,o),
(192,402,o),
(192,314,c),
(206,343,l),
(206,710,l),
(120,710,l)
);
},
{
closed = 1;
nodes = (
(5,626,l),
(352,626,l),
(352,710,l),
(5,710,l)
);
}
);
width = 600;
},
{
background = {
shapes = (
{
ref = "Tshe-cy";
}
);
};
layerId = "58B1DC7A-69F8-4375-AD2E-AC5103CCF536";
shapes = (
{
closed = 1;
nodes = (
(110,0,l),
(256,0,l),
(256,192,ls),
(256,282,o),
(292,338,o),
(349,338,cs),
(402,338,o),
(436,300,o),
(436,239,cs),
(436,173,o),
(397,131,o),
(334,131,c),
(334,0,l),
(491,0,o),
(590,94,o),
(590,245,cs),
(590,384,o),
(511,472,o),
(386,472,cs),
(288,472,o),
(224,401,o),
(219,287,c),
(256,332,l),
(256,710,l),
(110,710,l)
);
},
{
closed = 1;
nodes = (
(5,579,l),
(400,579,l),
(400,710,l),
(5,710,l)
);
}
);
width = 600;
}
);
unicode = 1026;
},
{
color = 3;
glyphname = "Yat-cy";
lastChange = "2023-11-15 21:15:50 +0000";
layers = (
{
background = {
shapes = (
{
ref = "Softsign-cy";
}
);
};
layerId = "EE2FFE84-06F1-4AFB-BBEC-60D09A436D14";
shapes = (
{
pos = (10,0);
ref = "Softsign-cy";
},
{
closed = 1;
nodes = (
(16,550,l),
(311,550,l),
(311,580,l),
(16,580,l)
);
}
);
width = 600;
},
{
layerId = "574EE4B9-5C1A-4E7E-9985-C08FACB65BD8";
shapes = (
{
alignment = -1;
pos = (24,0);
ref = "Softsign-cy";
},
{
closed = 1;
nodes = (
(15,530,l),
(364,530,l),
(364,614,l),
(15,614,l)
);
}
);
width = 600;
},
{
layerId = "58B1DC7A-69F8-4375-AD2E-AC5103CCF536";
shapes = (
{
alignment = -1;
pos = (21,0);
ref = "Softsign-cy";
},
{
closed = 1;
nodes = (
(20,524,l),
(403,524,l),
(403,627,l),
(20,627,l)
);
}
);
width = 600;
}
);
unicode = 1122;
},
{
color = 3;
glyphname = "Yusbig-cy";
lastChange = "2023-11-15 21:15:56 +0000";
layers = (
{
layerId = "EE2FFE84-06F1-4AFB-BBEC-60D09A436D14";
shapes = (
{
closed = 1;
nodes = (
(238,370,ls),
(186,370,o),
(147,343,o),
(124,288,cs),
(5,0,l),
(40,0,l),
(143,255,ls),
(168,317,o),
(195,340,o),
(239,340,cs),
(361,340,ls),
(405,340,o),
(432,317,o),
(457,255,cs),
(560,0,l),
(595,0,l),
(475,288,ls),
(452,343,o),
(415,370,o),
(362,370,cs)
);
},
{
closed = 1;
nodes = (
(284,0,l),
(316,0,l),
(316,360,l),
(284,360,l)
);
},
{
closed = 1;
nodes = (
(71,680,l),
(529,680,l),
(529,710,l),
(71,710,l)
);
},
{
closed = 1;
nodes = (
(277,352,l),
(312,352,l),
(106,680,l),
(71,680,l)
);
},
{
closed = 1;
nodes = (
(494,680,l),
(288,352,l),
(323,352,l),
(529,680,l)
);
}
);
width = 600;
},
{
layerId = "574EE4B9-5C1A-4E7E-9985-C08FACB65BD8";
shapes = (
{
closed = 1;
nodes = (
(214,389,ls),
(170,389,o),
(130,358,o),
(105,289,cs),
(1,0,l),
(93,0,l),
(180,248,ls),
(195,292,o),
(211,305,o),
(236,305,cs),
(364,305,ls),
(388,305,o),
(403,292,o),
(419,248,cs),
(507,0,l),
(599,0,l),
(494,289,ls),
(469,358,o),
(430,389,o),
(385,389,cs)
);
},
{
closed = 1;
nodes = (
(257,0,l),
(343,0,l),
(343,389,l),
(257,389,l)
);
},
{
closed = 1;
nodes = (
(64,626,l),
(536,626,l),
(536,710,l),
(64,710,l)
);
},
{
closed = 1;
nodes = (
(260,307,l),
(360,307,l),
(164,626,l),
(64,626,l)
);
},
{
closed = 1;
nodes = (
(436,626,l),
(240,307,l),
(340,307,l),
(536,626,l)
);
}
);
width = 600;
},
{
layerId = "58B1DC7A-69F8-4375-AD2E-AC5103CCF536";
shapes = (
{
closed = 1;
nodes = (
(179,383,ls),
(113,383,o),
(79,343,o),
(55,237,cs),
(1,0,l),
(150,0,l),
(184,176,ls),
(195,233,o),
(210,252,o),
(242,252,cs),
(357,252,ls),
(390,252,o),
(405,233,o),
(416,176,cs),
(450,0,l),
(599,0,l),
(544,237,ls),
(519,343,o),
(485,383,o),
(421,383,cs)
);
},
{
closed = 1;
nodes = (
(227,0,l),
(373,0,l),
(373,383,l),
(227,383,l)
);
},
{
closed = 1;
nodes = (
(58,579,l),
(542,579,l),
(542,710,l),
(58,710,l)
);
},
{
closed = 1;
nodes = (
(190,254,l),
(354,254,l),
(223,579,l),
(58,579,l)
);
},
{
closed = 1;
nodes = (
(378,579,l),
(246,254,l),
(411,254,l),
(542,579,l)
);
}
);
width = 600;
}
);
unicode = 1130;
},
{
color = 3;
glyphname = "Fita-cy";
lastChange = "2023-11-15 21:15:58 +0000";
layers = (
{
layerId = "EE2FFE84-06F1-4AFB-BBEC-60D09A436D14";
shapes = (
{
ref = O;
},
{
closed = 1;
nodes = (
(62,366,l),
(81,372,o),
(101,376,o),
(125,378,cs),
(164,381,o),
(219,370,o),
(267,350,cs),
(382,302,o),
(408,298,o),
(447,300,cs),
(478,302,o),
(509,310,o),
(538,325,c),
(538,362,l),
(507,343,o),
(478,334,o),
(445,332,cs),
(399,329,o),
(384,333,o),
(265,384,cs),
(222,402,o),
(163,413,o),
(122,410,cs),
(99,409,o),
(80,405,o),
(62,400,c)
);
}
);
width = 600;
},
{
layerId = "574EE4B9-5C1A-4E7E-9985-C08FACB65BD8";
shapes = (
{
ref = O;
},
{
closed = 1;
nodes = (
(95,334,l),
(111,340,o),
(128,344,o),
(146,346,cs),
(185,350,o),
(240,341,o),
(287,323,cs),
(406,279,o),
(428,275,o),
(471,279,cs),
(486,281,o),
(501,284,o),
(516,289,c),
(516,378,l),
(499,371,o),
(481,367,o),
(462,365,cs),
(416,360,o),
(401,364,o),
(280,410,cs),
(237,427,o),
(178,436,o),
(136,431,cs),
(122,430,o),
(108,428,o),
(95,424,c)
);
}
);
width = 600;
},
{
layerId = "58B1DC7A-69F8-4375-AD2E-AC5103CCF536";
shapes = (
{
ref = O;
},
{
closed = 1;
nodes = (
(109,260,l),
(133,285,o),
(165,305,o),
(192,311,cs),
(213,315,o),
(252,308,o),
(295,291,cs),
(359,268,o),
(420,258,o),
(453,267,cs),
(463,269,o),
(481,281,o),
(499,297,c),
(489,446,l),
(471,424,o),
(446,407,o),
(427,403,cs),
(401,396,o),
(351,406,o),
(296,428,cs),
(250,448,o),
(200,456,o),
(166,447,cs),
(163,446,o),
(137,434,o),
(99,416,c)
);
}
);
width = 600;
}
);
unicode = 1138;
},
